JonovaCondensed-Bold.ufo
<glyph name="numbersign" format="2">
  <advance width="840"/>
  <unicode hex="0023"/>
  <outline>
    <contour>
      <point x="103" y="1004" type="line"/>
      <point x="249" y="1004" type="line"/>
      <point x="310" y="1464" type="line"/>
      <point x="418" y="1434" type="line"/>
      <point x="361" y="1004" type="line"/>
      <point x="551" y="1004" type="line"/>
      <point x="611" y="1464" type="line"/>
      <point x="723" y="1434" type="line"/>
      <point x="667" y="1004" type="line"/>
      <point x="812" y="1004" type="line"/>
      <point x="792" y="852" type="line"/>
      <point x="646" y="852" type="line"/>
      <point x="611" y="583" type="line"/>
      <point x="756" y="583" type="line"/>
      <point x="737" y="431" type="line"/>
      <point x="590" y="431" type="line"/>
      <point x="530" y="-30" type="line"/>
      <point x="418" y="0" type="line"/>
      <point x="476" y="431" type="line"/>
      <point x="285" y="431" type="line"/>
      <point x="224" y="-30" type="line"/>
      <point x="116" y="0" type="line"/>
      <point x="173" y="431" type="line"/>
      <point x="28" y="431" type="line"/>
      <point x="49" y="583" type="line"/>
      <point x="192" y="583" type="line"/>
      <point x="229" y="852" type="line"/>
      <point x="83" y="852" type="line"/>
    </contour>
    <contour>
      <point x="305" y="583" type="line"/>
      <point x="495" y="583" type="line"/>
      <point x="531" y="852" type="line"/>
      <point x="341" y="852" type="line"/>
    </contour>
  </outline>
</glyph>
<glyph name="dollar" format="2">
  <advance width="840"/>
  <unicode hex="0024"/>
  <outline>
    <contour>
      <point x="716" y="1312" type="qcurve"/>
      <point x="629" y="1200" type="line"/>
      <point x="618" y="1223"/>
      <point x="587" y="1269"/>
      <point x="547" y="1308"/>
      <point x="494" y="1338"/>
      <point x="461" y="1346" type="qcurve"/>
      <point x="461" y="861" type="line"/>
      <point x="522" y="818"/>
      <point x="634" y="723"/>
      <point x="719" y="609"/>
      <point x="769" y="469"/>
      <point x="769" y="382" type="qcurve"/>
      <point x="769" y="305"/>
      <point x="725" y="166"/>
      <point x="645" y="56"/>
      <point x="532" y="-18"/>
      <point x="461" y="-30" type="qcurve"/>
      <point x="461" y="-142" type="line"/>
      <point x="355" y="-165" type="line"/>
      <point x="355" y="-30" type="line"/>
      <point x="284" y="-24"/>
      <point x="146" y="43"/>
      <point x="71" y="121" type="qcurve"/>
      <point x="156" y="233" type="line"/>
      <point x="205" y="162"/>
      <point x="299" y="91"/>
      <point x="355" y="83" type="qcurve"/>
      <point x="355" y="662" type="line"/>
      <point x="292" y="702"/>
      <point x="188" y="790"/>
      <point x="113" y="895"/>
      <point x="71" y="1022"/>
      <point x="71" y="1101" type="qcurve"/>
      <point x="71" y="1171"/>
      <point x="114" y="1295"/>
      <point x="189" y="1392"/>
      <point x="293" y="1455"/>
      <point x="355" y="1464" type="qcurve"/>
      <point x="355" y="1576" type="line"/>
      <point x="461" y="1600" type="line"/>
      <point x="461" y="1464" type="line"/>
      <point x="509" y="1459"/>
      <point x="580" y="1432"/>
      <point x="639" y="1392"/>
      <point x="689" y="1341"/>
    </contour>
    <contour>
      <point x="587" y="306" type="qcurve"/>
      <point x="587" y="393"/>
      <point x="530" y="533"/>
      <point x="461" y="588" type="qcurve"/>
      <point x="461" y="82" type="line"/>
      <point x="490" y="93"/>
      <point x="536" y="136"/>
      <point x="569" y="195"/>
      <point x="587" y="267"/>
    </contour>
    <contour>
      <point x="253" y="1149" type="qcurve"/>
      <point x="253" y="1119"/>
      <point x="263" y="1059"/>
      <point x="287" y="1004"/>
      <point x="326" y="956"/>
      <point x="355" y="937" type="qcurve"/>
      <point x="355" y="1346" type="line"/>
      <point x="312" y="1329"/>
      <point x="253" y="1230"/>
    </contour>
  </outline>
</glyph>
<glyph name="percent" format="2">
  <advance width="1200"/>
  <unicode hex="0025"/>
  <outline>
    <contour>
      <point x="295" y="1342" type="qcurve"/>
      <point x="278" y="1342"/>
      <point x="243" y="1313"/>
      <point x="215" y="1250"/>
      <point x="198" y="1153"/>
      <point x="198" y="1084" type="qcurve"/>
      <point x="198" y="1015"/>
      <point x="213" y="917"/>
      <point x="239" y="855"/>
      <point x="275" y="826"/>
      <point x="295" y="826" type="qcurve"/>
      <point x="315" y="826"/>
      <point x="350" y="855"/>
      <point x="377" y="917"/>
      <point x="392" y="1015"/>
      <point x="392" y="1084" type="qcurve"/>
      <point x="392" y="1153"/>
      <point x="374" y="1250"/>
      <point x="347" y="1313"/>
      <point x="312" y="1342"/>
    </contour>
    <contour>
      <point x="905" y="608" type="qcurve"/>
      <point x="890" y="608"/>
      <point x="857" y="579"/>
      <point x="828" y="516"/>
      <point x="809" y="419"/>
      <point x="809" y="350" type="qcurve"/>
      <point x="809" y="281"/>
      <point x="828" y="183"/>
      <point x="857" y="121"/>
      <point x="890" y="92"/>
      <point x="905" y="92" type="qcurve"/>
      <point x="919" y="92"/>
      <point x="953" y="121"/>
      <point x="983" y="183"/>
      <point x="1002" y="281"/>
      <point x="1002" y="350" type="qcurve"/>
      <point x="1002" y="419"/>
      <point x="983" y="516"/>
      <point x="953" y="579"/>
      <point x="919" y="608"/>
    </contour>
    <contour>
      <point x="1038" y="1434" type="line"/>
      <point x="269" y="-30" type="line"/>
      <point x="162" y="0" type="line"/>
      <point x="931" y="1464" type="line"/>
    </contour>
    <contour>
      <point x="905" y="730" type="qcurve"/>
      <point x="953" y="730"/>
      <point x="1038" y="684"/>
      <point x="1102" y="590"/>
      <point x="1139" y="447"/>
      <point x="1139" y="350" type="qcurve"/>
      <point x="1139" y="253"/>
      <point x="1102" y="110"/>
      <point x="1038" y="16"/>
      <point x="953" y="-30"/>
      <point x="905" y="-30" type="qcurve"/>
      <point x="857" y="-30"/>
      <point x="773" y="16"/>
      <point x="709" y="110"/>
      <point x="672" y="253"/>
      <point x="672" y="350" type="qcurve"/>
      <point x="672" y="447"/>
      <point x="709" y="590"/>
      <point x="773" y="684"/>
      <point x="857" y="730"/>
    </contour>
    <contour>
      <point x="295" y="1464" type="qcurve"/>
      <point x="343" y="1464"/>
      <point x="428" y="1418"/>
      <point x="491" y="1324"/>
      <point x="528" y="1181"/>
      <point x="528" y="1084" type="qcurve"/>
      <point x="528" y="987"/>
      <point x="491" y="844"/>
      <point x="428" y="750"/>
      <point x="343" y="704"/>
      <point x="295" y="704" type="qcurve"/>
      <point x="247" y="704"/>
      <point x="162" y="750"/>
      <point x="98" y="844"/>
      <point x="62" y="987"/>
      <point x="62" y="1084" type="qcurve"/>
      <point x="62" y="1181"/>
      <point x="98" y="1324"/>
      <point x="162" y="1418"/>
      <point x="247" y="1464"/>
    </contour>
  </outline>
</glyph>
<glyph name="ampersand" format="2">
  <advance width="936"/>
  <unicode hex="0026"/>
  <outline>
    <contour>
      <point x="392" y="1206" type="qcurve"/>
      <point x="392" y="1183"/>
      <point x="414" y="1115"/>
      <point x="444" y="1047"/>
      <point x="474" y="988"/>
      <point x="482" y="974" type="qcurve"/>
      <point x="508" y="995"/>
      <point x="548" y="1035"/>
      <point x="575" y="1082"/>
      <point x="588" y="1139"/>
      <point x="588" y="1177" type="qcurve"/>
      <point x="588" y="1218"/>
      <point x="566" y="1273"/>
      <point x="533" y="1307"/>
      <point x="495" y="1322"/>
      <point x="481" y="1322" type="qcurve"/>
      <point x="464" y="1322"/>
      <point x="432" y="1307"/>
      <point x="407" y="1277"/>
      <point x="392" y="1234"/>
    </contour>
    <contour>
      <point x="368" y="709" type="line"/>
      <point x="335" y="683"/>
      <point x="289" y="604"/>
      <point x="259" y="512"/>
      <point x="245" y="416"/>
      <point x="245" y="374" type="qcurve"/>
      <point x="245" y="293"/>
      <point x="280" y="181"/>
      <point x="332" y="112"/>
      <point x="392" y="82"/>
      <point x="416" y="82" type="qcurve"/>
      <point x="443" y="82"/>
      <point x="495" y="98"/>
      <point x="542" y="123"/>
      <point x="582" y="156"/>
      <point x="597" y="174" type="qcurve"/>
    </contour>
    <contour>
      <point x="686" y="-30" type="line"/>
      <point x="641" y="74" type="line"/>
      <point x="617" y="52"/>
      <point x="564" y="14"/>
      <point x="505" y="-14"/>
      <point x="437" y="-30"/>
      <point x="399" y="-30" type="qcurve"/>
      <point x="320" y="-30"/>
      <point x="192" y="29"/>
      <point x="104" y="138"/>
      <point x="56" y="291"/>
      <point x="56" y="384" type="qcurve"/>
      <point x="56" y="454"/>
      <point x="95" y="586"/>
      <point x="162" y="706"/>
      <point x="254" y="811"/>
      <point x="306" y="855" type="qcurve"/>
      <point x="294" y="881"/>
      <point x="266" y="946"/>
      <point x="241" y="1021"/>
      <point x="224" y="1105"/>
      <point x="224" y="1149" type="qcurve"/>
      <point x="224" y="1200"/>
      <point x="258" y="1301"/>
      <point x="323" y="1383"/>
      <point x="420" y="1434"/>
      <point x="482" y="1434" type="qcurve"/>
      <point x="542" y="1434"/>
      <point x="633" y="1388"/>
      <point x="694" y="1313"/>
      <point x="725" y="1219"/>
      <point x="725" y="1172" type="qcurve"/>
      <point x="725" y="1116"/>
      <point x="692" y="1019"/>
      <point x="640" y="935"/>
      <point x="575" y="864"/>
      <point x="541" y="835" type="qcurve"/>
      <point x="725" y="396" type="line"/>
      <point x="730" y="408"/>
      <point x="747" y="458"/>
      <point x="764" y="516"/>
      <point x="778" y="576"/>
      <point x="780" y="599" type="qcurve"/>
      <point x="899" y="569" type="line"/>
      <point x="891" y="537"/>
      <point x="861" y="449"/>
      <point x="826" y="362"/>
      <point x="792" y="288"/>
      <point x="781" y="269" type="qcurve"/>
      <point x="899" y="0" type="line"/>
    </contour>
  </outline>
</glyph>
<glyph name="quotesingle" format="2">
  <advance width="432"/>
  <unicode hex="0027"/>
  <outline>
    <contour>
      <point x="163" y="901" type="line"/>
      <point x="133" y="1434" type="line"/>
      <point x="155" y="1464" type="line"/>
      <point x="277" y="1464" type="line"/>
      <point x="299" y="1434" type="line"/>
      <point x="269" y="901" type="line"/>
    </contour>
  </outline>
</glyph>
<glyph name="parenright" format="2">
  <advance width="552"/>
  <unicode hex="0029"/>
  <outline>
    <contour>
      <point x="89" y="1570" type="line"/>
      <point x="272" y="1412"/>
      <point x="466" y="927"/>
      <point x="466" y="593" type="qcurve"/>
      <point x="466" y="258"/>
      <point x="272" y="-226"/>
      <point x="89" y="-384" type="qcurve"/>
      <point x="74" y="-278" type="line"/>
      <point x="140" y="-204"/>
      <point x="228" y="-13"/>
      <point x="283" y="211"/>
      <point x="307" y="460"/>
      <point x="307" y="593" type="qcurve"/>
      <point x="307" y="711"/>
      <point x="283" y="957"/>
      <point x="228" y="1187"/>
      <point x="140" y="1390"/>
      <point x="74" y="1464" type="qcurve"/>
    </contour>
  </outline>
</glyph>
<glyph name="asterisk" format="2">
  <advance width="768"/>
  <unicode hex="002A"/>
  <outline>
    <contour>
      <point x="96" y="1321" type="line"/>
      <point x="173" y="1500" type="line"/>
      <point x="348" y="1295" type="line"/>
      <point x="354" y="1298" type="line"/>
      <point x="307" y="1606" type="line"/>
      <point x="461" y="1606" type="line"/>
      <point x="415" y="1299" type="line"/>
      <point x="420" y="1295" type="line"/>
      <point x="597" y="1501" type="line"/>
      <point x="674" y="1326" type="line"/>
      <point x="451" y="1225" type="line"/>
      <point x="451" y="1216" type="line"/>
      <point x="672" y="1118" type="line"/>
      <point x="596" y="941" type="line"/>
      <point x="421" y="1146" type="line"/>
      <point x="415" y="1143" type="line"/>
      <point x="462" y="835" type="line"/>
      <point x="308" y="835" type="line"/>
      <point x="355" y="1143" type="line"/>
      <point x="350" y="1147" type="line"/>
      <point x="173" y="938" type="line"/>
      <point x="96" y="1113" type="line"/>
      <point x="319" y="1217" type="line"/>
      <point x="319" y="1225" type="line"/>
    </contour>
    <contour>
      <point x="346" y="1221" type="qcurve"/>
      <point x="346" y="1200"/>
      <point x="368" y="1170"/>
      <point x="384" y="1170" type="qcurve"/>
      <point x="401" y="1170"/>
      <point x="423" y="1200"/>
      <point x="423" y="1221" type="qcurve"/>
      <point x="423" y="1243"/>
      <point x="401" y="1273"/>
      <point x="384" y="1273" type="qcurve"/>
      <point x="368" y="1273"/>
      <point x="346" y="1243"/>
    </contour>
  </outline>
</glyph>
<glyph name="plus" format="2">
  <advance width="864"/>
  <unicode hex="002B"/>
  <outline>
    <contour>
      <point x="68" y="381" type="line"/>
      <point x="68" y="593" type="line"/>
      <point x="353" y="593" type="line"/>
      <point x="353" y="974" type="line"/>
      <point x="512" y="974" type="line"/>
      <point x="512" y="593" type="line"/>
      <point x="797" y="593" type="line"/>
      <point x="797" y="381" type="line"/>
      <point x="512" y="381" type="line"/>
      <point x="512" y="0" type="line"/>
      <point x="353" y="0" type="line"/>
      <point x="353" y="381" type="line"/>
    </contour>
  </outline>
</glyph>
<glyph name="comma" format="2">
  <advance width="432"/>
  <unicode hex="002C"/>
  <outline>
    <contour>
      <point x="118" y="154" type="line"/>
      <point x="246" y="325" type="line"/>
      <point x="266" y="325" type="line"/>
      <point x="277" y="307"/>
      <point x="302" y="250"/>
      <point x="323" y="171"/>
      <point x="337" y="72"/>
      <point x="337" y="12" type="qcurve"/>
      <point x="337" y="-64"/>
      <point x="298" y="-202"/>
      <point x="235" y="-322"/>
      <point x="157" y="-423"/>
      <point x="118" y="-460" type="qcurve"/>
      <point x="49" y="-367" type="line"/>
      <point x="72" y="-338"/>
      <point x="118" y="-276"/>
      <point x="155" y="-204"/>
      <point x="178" y="-120"/>
      <point x="178" y="-69" type="qcurve"/>
      <point x="178" y="-2"/>
      <point x="141" y="93"/>
      <point x="118" y="128" type="qcurve"/>
    </contour>
  </outline>
</glyph>
<glyph name="hyphen" format="2">
  <advance width="552"/>
  <unicode hex="002D"/>
  <outline>
    <contour>
      <point x="47" y="593" type="line"/>
      <point x="506" y="593" type="line"/>
      <point x="506" y="381" type="line"/>
      <point x="47" y="381" type="line"/>
    </contour>
  </outline>
</glyph>
<glyph name="period" format="2">
  <advance width="432"/>
  <unicode hex="002E"/>
  <outline>
    <contour>
      <point x="338" y="131" type="qcurve"/>
      <point x="338" y="98"/>
      <point x="319" y="39"/>
      <point x="286" y="-5"/>
      <point x="242" y="-30"/>
      <point x="217" y="-30" type="qcurve"/>
      <point x="192" y="-30"/>
      <point x="148" y="-5"/>
      <point x="115" y="39"/>
      <point x="96" y="98"/>
      <point x="96" y="131" type="qcurve"/>
      <point x="96" y="164"/>
      <point x="115" y="223"/>
      <point x="148" y="267"/>
      <point x="192" y="292"/>
      <point x="217" y="292" type="qcurve"/>
      <point x="242" y="292"/>
      <point x="286" y="267"/>
      <point x="319" y="223"/>
      <point x="338" y="164"/>
    </contour>
  </outline>
</glyph>
<glyph name="slash" format="2">
  <advance width="432"/>
  <unicode hex="002F"/>
  <outline>
    <contour>
      <point x="477" y="1556" type="line"/>
      <point x="109" y="-152" type="line"/>
      <point x="-45" y="-122" type="line"/>
      <point x="323" y="1586" type="line"/>
    </contour>
  </outline>
</glyph>
<glyph name="zero" format="2">
  <advance width="840"/>
  <unicode hex="0030"/>
  <outline>
    <contour>
      <point x="420" y="1342" type="qcurve"/>
      <point x="377" y="1342"/>
      <point x="322" y="1272"/>
      <point x="289" y="1121"/>
      <point x="275" y="884"/>
      <point x="275" y="718" type="qcurve"/>
      <point x="275" y="551"/>
      <point x="289" y="314"/>
      <point x="322" y="162"/>
      <point x="377" y="92"/>
      <point x="420" y="92" type="qcurve"/>
      <point x="463" y="92"/>
      <point x="518" y="162"/>
      <point x="551" y="314"/>
      <point x="565" y="551"/>
      <point x="565" y="718" type="qcurve"/>
      <point x="565" y="884"/>
      <point x="551" y="1121"/>
      <point x="518" y="1272"/>
      <point x="463" y="1342"/>
    </contour>
    <contour>
      <point x="420" y="1464" type="qcurve"/>
      <point x="597" y="1464"/>
      <point x="784" y="1092"/>
      <point x="784" y="718" type="qcurve"/>
      <point x="784" y="343"/>
      <point x="597" y="-30"/>
      <point x="420" y="-30" type="qcurve"/>
      <point x="243" y="-30"/>
      <point x="56" y="343"/>
      <point x="56" y="718" type="qcurve"/>
      <point x="56" y="1092"/>
      <point x="243" y="1464"/>
    </contour>
  </outline>
</glyph>
<glyph name="one" format="2">
  <advance width="840"/>
  <unicode hex="0031"/>
  <outline>
    <contour>
      <point x="554" y="1464" type="line"/>
      <point x="554" y="0" type="line"/>
      <point x="342" y="0" type="line"/>
      <point x="342" y="1237" type="line"/>
      <point x="131" y="1153" type="line"/>
      <point x="115" y="1265" type="line"/>
      <point x="509" y="1464" type="line"/>
    </contour>
  </outline>
</glyph>
<glyph name="two" format="2">
  <advance width="840"/>
  <unicode hex="0032"/>
  <outline>
    <contour>
      <point x="88" y="1265" type="line"/>
      <point x="154" y="1360"/>
      <point x="305" y="1464"/>
      <point x="401" y="1464" type="qcurve"/>
      <point x="468" y="1464"/>
      <point x="596" y="1412"/>
      <point x="694" y="1307"/>
      <point x="754" y="1150"/>
      <point x="754" y="1044" type="qcurve"/>
      <point x="754" y="985"/>
      <point x="740" y="877"/>
      <point x="704" y="763"/>
      <point x="642" y="635"/>
      <point x="546" y="478"/>
      <point x="410" y="285"/>
      <point x="320" y="162" type="qcurve"/>
      <point x="780" y="202" type="line"/>
      <point x="754" y="0" type="line"/>
      <point x="73" y="0" type="line"/>
      <point x="73" y="59" type="line"/>
      <point x="184" y="218"/>
      <point x="340" y="469"/>
      <point x="444" y="668"/>
      <point x="504" y="821"/>
      <point x="534" y="942"/>
      <point x="542" y="1039"/>
      <point x="542" y="1082" type="qcurve"/>
      <point x="542" y="1132"/>
      <point x="520" y="1226"/>
      <point x="478" y="1298"/>
      <point x="420" y="1342"/>
      <point x="386" y="1342" type="qcurve"/>
      <point x="260" y="1342"/>
      <point x="174" y="1153" type="qcurve"/>
    </contour>
  </outline>
</glyph>
<glyph name="three" format="2">
  <advance width="840"/>
  <unicode hex="0033"/>
  <outline>
    <contour>
      <point x="152" y="282" type="line"/>
      <point x="164" y="254"/>
      <point x="206" y="187"/>
      <point x="262" y="130"/>
      <point x="331" y="92"/>
      <point x="371" y="92" type="qcurve"/>
      <point x="466" y="92"/>
      <point x="565" y="254"/>
      <point x="565" y="414" type="qcurve"/>
      <point x="565" y="494"/>
      <point x="537" y="622"/>
      <point x="485" y="712"/>
      <point x="412" y="760"/>
      <point x="366" y="760" type="qcurve"/>
      <point x="288" y="760" type="line"/>
      <point x="304" y="882" type="line"/>
      <point x="359" y="882" type="line"/>
      <point x="383" y="882"/>
      <point x="442" y="916"/>
      <point x="493" y="979"/>
      <point x="527" y="1071"/>
      <point x="527" y="1130" type="qcurve"/>
      <point x="527" y="1188"/>
      <point x="500" y="1269"/>
      <point x="458" y="1320"/>
      <point x="410" y="1342"/>
      <point x="390" y="1342" type="qcurve"/>
      <point x="355" y="1342"/>
      <point x="299" y="1307"/>
      <point x="254" y="1252"/>
      <point x="221" y="1185"/>
      <point x="209" y="1153" type="qcurve"/>
      <point x="124" y="1265" type="line"/>
      <point x="140" y="1298"/>
      <point x="192" y="1368"/>
      <point x="263" y="1426"/>
      <point x="352" y="1464"/>
      <point x="406" y="1464" type="qcurve"/>
      <point x="472" y="1464"/>
      <point x="586" y="1412"/>
      <point x="669" y="1321"/>
      <point x="716" y="1200"/>
      <point x="716" y="1131" type="qcurve"/>
      <point x="716" y="1069"/>
      <point x="686" y="975"/>
      <point x="639" y="904"/>
      <point x="581" y="855"/>
      <point x="554" y="838" type="qcurve"/>
      <point x="587" y="820"/>
      <point x="668" y="755"/>
      <point x="738" y="653"/>
      <point x="784" y="511"/>
      <point x="784" y="416" type="qcurve"/>
      <point x="784" y="323"/>
      <point x="729" y="161"/>
      <point x="626" y="40"/>
      <point x="479" y="-30"/>
      <point x="386" y="-30" type="qcurve"/>
      <point x="326" y="-30"/>
      <point x="230" y="6"/>
      <point x="153" y="63"/>
      <point x="92" y="135"/>
      <point x="66" y="170" type="qcurve"/>
    </contour>
  </outline>
</glyph>
<glyph name="four" format="2">
  <advance width="840"/>
  <unicode hex="0034"/>
  <outline>
    <contour>
      <point x="455" y="1464" type="line"/>
      <point x="667" y="1434" type="line"/>
      <point x="238" y="472" type="line"/>
      <point x="455" y="488" type="line"/>
      <point x="455" y="686" type="line"/>
      <point x="622" y="740" type="line"/>
      <point x="667" y="740" type="line"/>
      <point x="667" y="504" type="line"/>
      <point x="779" y="512" type="line"/>
      <point x="757" y="350" type="line"/>
      <point x="667" y="350" type="line"/>
      <point x="667" y="0" type="line"/>
      <point x="455" y="0" type="line"/>
      <point x="455" y="350" type="line"/>
      <point x="54" y="350" type="line"/>
      <point x="54" y="410" type="line"/>
    </contour>
  </outline>
</glyph>
<glyph name="six" format="2">
  <advance width="840"/>
  <unicode hex="0036"/>
  <outline>
    <contour>
      <point x="423" y="780" type="qcurve"/>
      <point x="390" y="780"/>
      <point x="336" y="727"/>
      <point x="297" y="636"/>
      <point x="275" y="515"/>
      <point x="275" y="448" type="qcurve"/>
      <point x="275" y="364"/>
      <point x="298" y="232"/>
      <point x="338" y="140"/>
      <point x="392" y="92"/>
      <point x="423" y="92" type="qcurve"/>
      <point x="453" y="92"/>
      <point x="505" y="138"/>
      <point x="543" y="226"/>
      <point x="565" y="355"/>
      <point x="565" y="439" type="qcurve"/>
      <point x="565" y="520"/>
      <point x="543" y="646"/>
      <point x="505" y="734"/>
      <point x="453" y="780"/>
    </contour>
    <contour>
      <point x="691" y="1342" type="line"/>
      <point x="611" y="1342"/>
      <point x="464" y="1264"/>
      <point x="349" y="1123"/>
      <point x="275" y="929"/>
      <point x="267" y="814" type="qcurve"/>
      <point x="305" y="856"/>
      <point x="393" y="902"/>
      <point x="438" y="902" type="qcurve"/>
      <point x="515" y="902"/>
      <point x="643" y="832"/>
      <point x="734" y="707"/>
      <point x="784" y="538"/>
      <point x="784" y="439" type="qcurve"/>
      <point x="784" y="332"/>
      <point x="727" y="159"/>
      <point x="631" y="37"/>
      <point x="506" y="-30"/>
      <point x="438" y="-30" type="qcurve"/>
      <point x="365" y="-30"/>
      <point x="227" y="56"/>
      <point x="121" y="227"/>
      <point x="56" y="480"/>
      <point x="56" y="647" type="qcurve"/>
      <point x="56" y="743"/>
      <point x="89" y="939"/>
      <point x="158" y="1120"/>
      <point x="263" y="1279"/>
      <point x="407" y="1396"/>
      <point x="593" y="1464"/>
      <point x="707" y="1464" type="qcurve"/>
    </contour>
  </outline>
</glyph>
<glyph name="eight" format="2">
  <advance width="840"/>
  <unicode hex="0038"/>
  <outline>
    <contour>
      <point x="304" y="1118" type="qcurve"/>
      <point x="304" y="1065"/>
      <point x="320" y="975"/>
      <point x="349" y="909"/>
      <point x="392" y="872"/>
      <point x="420" y="872" type="qcurve"/>
      <point x="448" y="872"/>
      <point x="491" y="909"/>
      <point x="520" y="975"/>
      <point x="535" y="1065"/>
      <point x="535" y="1118" type="qcurve"/>
      <point x="535" y="1224"/>
      <point x="476" y="1342"/>
      <point x="420" y="1342" type="qcurve"/>
      <point x="364" y="1342"/>
      <point x="304" y="1224"/>
    </contour>
    <contour>
      <point x="275" y="424" type="qcurve"/>
      <point x="275" y="362"/>
      <point x="290" y="243"/>
      <point x="323" y="149"/>
      <point x="379" y="92"/>
      <point x="420" y="92" type="qcurve"/>
      <point x="461" y="92"/>
      <point x="517" y="149"/>
      <point x="551" y="243"/>
      <point x="565" y="362"/>
      <point x="565" y="424" type="qcurve"/>
      <point x="565" y="485"/>
      <point x="551" y="602"/>
      <point x="517" y="694"/>
      <point x="461" y="750"/>
      <point x="420" y="750" type="qcurve"/>
      <point x="379" y="750"/>
      <point x="323" y="694"/>
      <point x="290" y="602"/>
      <point x="275" y="485"/>
    </contour>
    <contour>
      <point x="56" y="421" type="qcurve"/>
      <point x="56" y="479"/>
      <point x="71" y="592"/>
      <point x="110" y="696"/>
      <point x="176" y="789"/>
      <point x="227" y="828" type="qcurve"/>
      <point x="167" y="888"/>
      <point x="115" y="1043"/>
      <point x="115" y="1125" type="qcurve"/>
      <point x="115" y="1189"/>
      <point x="160" y="1312"/>
      <point x="240" y="1406"/>
      <point x="353" y="1464"/>
      <point x="420" y="1464" type="qcurve"/>
      <point x="488" y="1464"/>
      <point x="599" y="1406"/>
      <point x="680" y="1312"/>
      <point x="724" y="1189"/>
      <point x="724" y="1125" type="qcurve"/>
      <point x="724" y="1043"/>
      <point x="671" y="888"/>
      <point x="611" y="828" type="qcurve"/>
      <point x="663" y="789"/>
      <point x="731" y="698"/>
      <point x="769" y="596"/>
      <point x="784" y="483"/>
      <point x="784" y="422" type="qcurve"/>
      <point x="784" y="338"/>
      <point x="738" y="176"/>
      <point x="647" y="48"/>
      <point x="511" y="-30"/>
      <point x="420" y="-30" type="qcurve"/>
      <point x="330" y="-30"/>
      <point x="194" y="48"/>
      <point x="103" y="176"/>
      <point x="56" y="338"/>
    </contour>
  </outline>
</glyph>
<glyph name="nine" format="2">
  <advance width="840"/>
  <unicode hex="0039"/>
  <outline>
    <contour>
      <point x="417" y="684" type="qcurve"/>
      <point x="455" y="684"/>
      <point x="511" y="735"/>
      <point x="548" y="820"/>
      <point x="565" y="931"/>
      <point x="565" y="991" type="qcurve"/>
      <point x="565" y="1071"/>
      <point x="544" y="1201"/>
      <point x="506" y="1292"/>
      <point x="451" y="1342"/>
      <point x="417" y="1342" type="qcurve"/>
      <point x="384" y="1342"/>
      <point x="332" y="1295"/>
      <point x="295" y="1209"/>
      <point x="275" y="1086"/>
      <point x="275" y="1010" type="qcurve"/>
      <point x="275" y="937"/>
      <point x="295" y="817"/>
      <point x="332" y="731"/>
      <point x="384" y="684"/>
    </contour>
    <contour>
      <point x="149" y="92" type="line"/>
      <point x="235" y="92"/>
      <point x="383" y="177"/>
      <point x="497" y="322"/>
      <point x="568" y="514"/>
      <point x="575" y="621" type="qcurve"/>
      <point x="539" y="591"/>
      <point x="447" y="562"/>
      <point x="402" y="562" type="qcurve"/>
      <point x="322" y="562"/>
      <point x="194" y="628"/>
      <point x="104" y="746"/>
      <point x="56" y="911"/>
      <point x="56" y="1010" type="qcurve"/>
      <point x="56" y="1113"/>
      <point x="111" y="1280"/>
      <point x="206" y="1399"/>
      <point x="331" y="1464"/>
      <point x="402" y="1464" type="qcurve"/>
      <point x="475" y="1464"/>
      <point x="613" y="1378"/>
      <point x="719" y="1209"/>
      <point x="784" y="960"/>
      <point x="784" y="797" type="qcurve"/>
      <point x="784" y="701"/>
      <point x="753" y="504"/>
      <point x="686" y="320"/>
      <point x="584" y="159"/>
      <point x="439" y="39"/>
      <point x="251" y="-30"/>
      <point x="133" y="-30" type="qcurve"/>
    </contour>
  </outline>
</glyph>
<glyph name="colon" format="2">
  <advance width="432"/>
  <unicode hex="003A"/>
  <outline>
    <contour>
      <point x="373" y="116" type="qcurve"/>
      <point x="373" y="86"/>
      <point x="356" y="32"/>
      <point x="326" y="-7"/>
      <point x="286" y="-30"/>
      <point x="263" y="-30" type="qcurve"/>
      <point x="241" y="-30"/>
      <point x="200" y="-7"/>
      <point x="171" y="32"/>
      <point x="154" y="86"/>
      <point x="154" y="116" type="qcurve"/>
      <point x="154" y="146"/>
      <point x="171" y="200"/>
      <point x="200" y="239"/>
      <point x="241" y="262"/>
      <point x="263" y="262" type="qcurve"/>
      <point x="286" y="262"/>
      <point x="326" y="239"/>
      <point x="356" y="200"/>
      <point x="373" y="146"/>
    </contour>
    <contour>
      <point x="373" y="858" type="qcurve"/>
      <point x="373" y="828"/>
      <point x="356" y="774"/>
      <point x="326" y="735"/>
      <point x="286" y="712"/>
      <point x="263" y="712" type="qcurve"/>
      <point x="241" y="712"/>
      <point x="200" y="735"/>
      <point x="171" y="774"/>
      <point x="154" y="828"/>
      <point x="154" y="858" type="qcurve"/>
      <point x="154" y="888"/>
      <point x="171" y="942"/>
      <point x="200" y="981"/>
      <point x="241" y="1004"/>
      <point x="263" y="1004" type="qcurve"/>
      <point x="286" y="1004"/>
      <point x="326" y="981"/>
      <point x="356" y="942"/>
      <point x="373" y="888"/>
    </contour>
  </outline>
</glyph>
<glyph name="semicolon" format="2">
  <advance width="432"/>
  <unicode hex="003B"/>
  <outline>
    <contour>
      <point x="373" y="858" type="qcurve"/>
      <point x="373" y="828"/>
      <point x="356" y="774"/>
      <point x="326" y="735"/>
      <point x="286" y="712"/>
      <point x="263" y="712" type="qcurve"/>
      <point x="241" y="712"/>
      <point x="200" y="735"/>
      <point x="171" y="774"/>
      <point x="154" y="828"/>
      <point x="154" y="858" type="qcurve"/>
      <point x="154" y="888"/>
      <point x="171" y="942"/>
      <point x="200" y="981"/>
      <point x="241" y="1004"/>
      <point x="263" y="1004" type="qcurve"/>
      <point x="286" y="1004"/>
      <point x="326" y="981"/>
      <point x="356" y="942"/>
      <point x="373" y="888"/>
    </contour>
    <contour>
      <point x="154" y="154" type="line"/>
      <point x="282" y="325" type="line"/>
      <point x="302" y="325" type="line"/>
      <point x="313" y="307"/>
      <point x="338" y="250"/>
      <point x="359" y="171"/>
      <point x="373" y="72"/>
      <point x="373" y="12" type="qcurve"/>
      <point x="373" y="-64"/>
      <point x="334" y="-202"/>
      <point x="271" y="-322"/>
      <point x="193" y="-423"/>
      <point x="154" y="-460" type="qcurve"/>
      <point x="85" y="-367" type="line"/>
      <point x="108" y="-338"/>
      <point x="154" y="-276"/>
      <point x="191" y="-204"/>
      <point x="214" y="-120"/>
      <point x="214" y="-69" type="qcurve"/>
      <point x="214" y="-2"/>
      <point x="177" y="93"/>
      <point x="154" y="128" type="qcurve"/>
    </contour>
  </outline>
</glyph>
<glyph name="equal" format="2">
  <advance width="864"/>
  <unicode hex="003D"/>
  <outline>
    <contour>
      <point x="56" y="805" type="line"/>
      <point x="808" y="805" type="line"/>
      <point x="808" y="593" type="line"/>
      <point x="56" y="593" type="line"/>
    </contour>
    <contour>
      <point x="56" y="381" type="line"/>
      <point x="808" y="381" type="line"/>
      <point x="808" y="169" type="line"/>
      <point x="56" y="169" type="line"/>
    </contour>
  </outline>
</glyph>
<glyph name="greater" format="2">
  <advance width="864"/>
  <unicode hex="003E"/>
  <outline>
    <contour>
      <point x="179" y="1004" type="line"/>
      <point x="782" y="538" type="line"/>
      <point x="782" y="436" type="line"/>
      <point x="178" y="-30" type="line"/>
      <point x="152" y="170" type="line"/>
      <point x="563" y="487" type="line"/>
      <point x="152" y="804" type="line"/>
    </contour>
  </outline>
</glyph>
<glyph name="question" format="2">
  <advance width="768"/>
  <unicode hex="003F"/>
  <outline>
    <contour>
      <point x="492" y="96" type="qcurve"/>
      <point x="492" y="70"/>
      <point x="477" y="24"/>
      <point x="452" y="-10"/>
      <point x="417" y="-30"/>
      <point x="398" y="-30" type="qcurve"/>
      <point x="378" y="-30"/>
      <point x="344" y="-10"/>
      <point x="318" y="24"/>
      <point x="303" y="70"/>
      <point x="303" y="96" type="qcurve"/>
      <point x="303" y="122"/>
      <point x="318" y="168"/>
      <point x="344" y="202"/>
      <point x="378" y="222"/>
      <point x="398" y="222" type="qcurve"/>
      <point x="417" y="222"/>
      <point x="452" y="202"/>
      <point x="477" y="168"/>
      <point x="492" y="122"/>
    </contour>
    <contour>
      <point x="89" y="1265" type="line"/>
      <point x="114" y="1301"/>
      <point x="176" y="1372"/>
      <point x="252" y="1429"/>
      <point x="344" y="1464"/>
      <point x="401" y="1464" type="qcurve"/>
      <point x="458" y="1464"/>
      <point x="560" y="1421"/>
      <point x="637" y="1342"/>
      <point x="681" y="1231"/>
      <point x="681" y="1164" type="qcurve"/>
      <point x="681" y="1097"/>
      <point x="649" y="993"/>
      <point x="587" y="907"/>
      <point x="497" y="830"/>
      <point x="439" y="790" type="qcurve"/>
      <point x="410" y="770"/>
      <point x="371" y="726"/>
      <point x="350" y="680"/>
      <point x="342" y="633"/>
      <point x="342" y="611" type="qcurve"/>
      <point x="342" y="580"/>
      <point x="364" y="532"/>
      <point x="397" y="499"/>
      <point x="433" y="482"/>
      <point x="448" y="482" type="qcurve"/>
      <point x="433" y="370" type="line"/>
      <point x="390" y="370"/>
      <point x="313" y="412"/>
      <point x="255" y="482"/>
      <point x="221" y="572"/>
      <point x="221" y="619" type="qcurve"/>
      <point x="221" y="657"/>
      <point x="232" y="728"/>
      <point x="260" y="797"/>
      <point x="310" y="866"/>
      <point x="347" y="901" type="qcurve"/>
      <point x="422" y="970"/>
      <point x="492" y="1101"/>
      <point x="492" y="1182" type="qcurve"/>
      <point x="492" y="1219"/>
      <point x="473" y="1279"/>
      <point x="440" y="1320"/>
      <point x="396" y="1342"/>
      <point x="372" y="1342" type="qcurve"/>
      <point x="344" y="1342"/>
      <point x="286" y="1310"/>
      <point x="233" y="1257"/>
      <point x="189" y="1189"/>
      <point x="174" y="1153" type="qcurve"/>
    </contour>
  </outline>
</glyph>
<glyph name="A" format="2">
  <advance width="1008"/>
  <unicode hex="0041"/>
  <outline>
    <contour>
      <point x="446" y="1434" type="line"/>
      <point x="554" y="1464" type="line"/>
      <point x="996" y="0" type="line"/>
      <point x="752" y="-30" type="line"/>
      <point x="639" y="345" type="line"/>
      <point x="247" y="345" type="line"/>
      <point x="133" y="-30" type="line"/>
      <point x="11" y="0" type="line"/>
    </contour>
    <contour>
      <point x="596" y="487" type="line"/>
      <point x="443" y="992" type="line"/>
      <point x="290" y="487" type="line"/>
    </contour>
  </outline>
</glyph>
<glyph name="C" format="2">
  <advance width="1008"/>
  <unicode hex="0043"/>
  <outline>
    <contour>
      <point x="986" y="1235" type="qcurve"/>
      <point x="894" y="1113" type="line"/>
      <point x="837" y="1223"/>
      <point x="689" y="1322"/>
      <point x="597" y="1322" type="qcurve"/>
      <point x="532" y="1322"/>
      <point x="418" y="1242"/>
      <point x="333" y="1088"/>
      <point x="285" y="862"/>
      <point x="285" y="717" type="qcurve"/>
      <point x="285" y="571"/>
      <point x="333" y="346"/>
      <point x="418" y="192"/>
      <point x="532" y="112"/>
      <point x="597" y="112" type="qcurve"/>
      <point x="689" y="112"/>
      <point x="837" y="211"/>
      <point x="894" y="321" type="qcurve"/>
      <point x="986" y="199" type="line"/>
      <point x="950" y="151"/>
      <point x="868" y="67"/>
      <point x="773" y="5"/>
      <point x="662" y="-30"/>
      <point x="597" y="-30" type="qcurve"/>
      <point x="527" y="-30"/>
      <point x="392" y="17"/>
      <point x="269" y="107"/>
      <point x="164" y="237"/>
      <point x="87" y="403"/>
      <point x="44" y="603"/>
      <point x="44" y="717" type="qcurve"/>
      <point x="44" y="832"/>
      <point x="87" y="1032"/>
      <point x="164" y="1198"/>
      <point x="269" y="1328"/>
      <point x="392" y="1417"/>
      <point x="528" y="1464"/>
      <point x="597" y="1464" type="qcurve"/>
      <point x="662" y="1464"/>
      <point x="773" y="1429"/>
      <point x="868" y="1367"/>
      <point x="950" y="1283"/>
    </contour>
  </outline>
</glyph>
<glyph name="D" format="2">
  <advance width="1128"/>
  <unicode hex="0044"/>
  <outline>
    <contour>
      <point x="99" y="1434" type="line"/>
      <point x="455" y="1434" type="line"/>
      <point x="599" y="1434"/>
      <point x="826" y="1336"/>
      <point x="983" y="1151"/>
      <point x="1067" y="885"/>
      <point x="1067" y="717" type="qcurve"/>
      <point x="1067" y="619"/>
      <point x="1027" y="436"/>
      <point x="953" y="277"/>
      <point x="846" y="145"/>
      <point x="712" y="52"/>
      <point x="553" y="0"/>
      <point x="463" y="0" type="qcurve"/>
      <point x="99" y="0" type="line"/>
    </contour>
    <contour>
      <point x="333" y="1302" type="line"/>
      <point x="333" y="132" type="line"/>
      <point x="442" y="132" type="line"/>
      <point x="533" y="132"/>
      <point x="676" y="226"/>
      <point x="774" y="386"/>
      <point x="825" y="598"/>
      <point x="825" y="717" type="qcurve"/>
      <point x="825" y="859"/>
      <point x="771" y="1078"/>
      <point x="670" y="1226"/>
      <point x="527" y="1302"/>
      <point x="437" y="1302" type="qcurve"/>
    </contour>
  </outline>
</glyph>
<glyph name="G" format="2">
  <advance width="1200"/>
  <unicode hex="0047"/>
  <outline>
    <contour>
      <point x="645" y="717" type="line"/>
      <point x="1052" y="717" type="line"/>
      <point x="1052" y="200" type="line"/>
      <point x="1008" y="139"/>
      <point x="917" y="52"/>
      <point x="817" y="-4"/>
      <point x="707" y="-30"/>
      <point x="644" y="-30" type="qcurve"/>
      <point x="512" y="-30"/>
      <point x="290" y="78"/>
      <point x="131" y="274"/>
      <point x="44" y="550"/>
      <point x="44" y="717" type="qcurve"/>
      <point x="44" y="880"/>
      <point x="129" y="1155"/>
      <point x="287" y="1353"/>
      <point x="509" y="1464"/>
      <point x="645" y="1464" type="qcurve"/>
      <point x="717" y="1464"/>
      <point x="834" y="1432"/>
      <point x="932" y="1373"/>
      <point x="1015" y="1288"/>
      <point x="1052" y="1235" type="qcurve"/>
      <point x="960" y="1113" type="line"/>
      <point x="931" y="1165"/>
      <point x="869" y="1243"/>
      <point x="795" y="1295"/>
      <point x="704" y="1322"/>
      <point x="646" y="1322" type="qcurve"/>
      <point x="555" y="1322"/>
      <point x="420" y="1228"/>
      <point x="330" y="1065"/>
      <point x="285" y="844"/>
      <point x="285" y="717" type="qcurve"/>
      <point x="285" y="637"/>
      <point x="302" y="486"/>
      <point x="339" y="351"/>
      <point x="396" y="239"/>
      <point x="476" y="157"/>
      <point x="580" y="112"/>
      <point x="644" y="112" type="qcurve"/>
      <point x="671" y="112"/>
      <point x="714" y="115"/>
      <point x="753" y="125"/>
      <point x="793" y="144"/>
      <point x="818" y="160" type="qcurve"/>
      <point x="818" y="575" type="line"/>
      <point x="626" y="575" type="line"/>
    </contour>
  </outline>
</glyph>
<glyph name="J" format="2">
  <advance width="552"/>
  <unicode hex="004A"/>
  <outline>
    <contour>
      <point x="216" y="1434" type="line"/>
      <point x="450" y="1464" type="line"/>
      <point x="450" y="539" type="line"/>
      <point x="450" y="362"/>
      <point x="383" y="139"/>
      <point x="264" y="15"/>
      <point x="99" y="-30"/>
      <point x="0" y="-30" type="qcurve"/>
      <point x="22" y="132" type="line"/>
      <point x="58" y="132"/>
      <point x="127" y="150"/>
      <point x="182" y="213"/>
      <point x="216" y="332"/>
      <point x="216" y="433" type="qcurve"/>
    </contour>
  </outline>
</glyph>
<glyph name="K" format="2">
  <advance width="1008"/>
  <unicode hex="004B"/>
  <outline>
    <contour>
      <point x="99" y="1434" type="line"/>
      <point x="333" y="1464" type="line"/>
      <point x="333" y="829" type="line"/>
      <point x="808" y="1464" type="line"/>
      <point x="939" y="1434" type="line"/>
      <point x="518" y="872" type="line"/>
      <point x="976" y="0" type="line"/>
      <point x="734" y="-30" type="line"/>
      <point x="367" y="671" type="line"/>
      <point x="333" y="626" type="line"/>
      <point x="333" y="0" type="line"/>
      <point x="99" y="0" type="line"/>
    </contour>
  </outline>
</glyph>
<glyph name="L" format="2">
  <advance width="816"/>
  <unicode hex="004C"/>
  <outline>
    <contour>
      <point x="98" y="1434" type="line"/>
      <point x="332" y="1464" type="line"/>
      <point x="332" y="122" type="line"/>
      <point x="760" y="162" type="line"/>
      <point x="737" y="0" type="line"/>
      <point x="98" y="0" type="line"/>
    </contour>
  </outline>
</glyph>
<glyph name="R" format="2">
  <advance width="936"/>
  <unicode hex="0052"/>
  <outline>
    <contour>
      <point x="333" y="1302" type="line"/>
      <point x="333" y="717" type="line"/>
      <point x="427" y="717" type="line"/>
      <point x="467" y="717"/>
      <point x="538" y="765"/>
      <point x="592" y="847"/>
      <point x="623" y="958"/>
      <point x="623" y="1021" type="qcurve"/>
      <point x="623" y="1081"/>
      <point x="590" y="1184"/>
      <point x="534" y="1259"/>
      <point x="464" y="1302"/>
      <point x="428" y="1302" type="qcurve"/>
    </contour>
    <contour>
      <point x="99" y="1434" type="line"/>
      <point x="444" y="1434" type="line"/>
      <point x="548" y="1434"/>
      <point x="705" y="1378"/>
      <point x="811" y="1271"/>
      <point x="865" y="1118"/>
      <point x="865" y="1021" type="qcurve"/>
      <point x="865" y="934"/>
      <point x="816" y="795"/>
      <point x="740" y="691"/>
      <point x="647" y="622"/>
      <point x="604" y="606" type="qcurve"/>
      <point x="923" y="0" type="line"/>
      <point x="682" y="-30" type="line"/>
      <point x="378" y="585" type="line"/>
      <point x="333" y="585" type="line"/>
      <point x="333" y="0" type="line"/>
      <point x="99" y="0" type="line"/>
    </contour>
  </outline>
</glyph>
<glyph name="T" format="2">
  <advance width="864"/>
  <unicode hex="0054"/>
  <outline>
    <contour>
      <point x="23" y="1434" type="line"/>
      <point x="863" y="1434" type="line"/>
      <point x="841" y="1272" type="line"/>
      <point x="549" y="1312" type="line"/>
      <point x="549" y="0" type="line"/>
      <point x="315" y="0" type="line"/>
      <point x="315" y="1313" type="line"/>
      <point x="2" y="1272" type="line"/>
    </contour>
  </outline>
</glyph>
<glyph name="Y" format="2">
  <advance width="936"/>
  <unicode hex="0059"/>
  <outline>
    <contour>
      <point x="254" y="1464" type="line"/>
      <point x="526" y="785" type="line"/>
      <point x="796" y="1464" type="line"/>
      <point x="924" y="1434" type="line"/>
      <point x="585" y="582" type="line"/>
      <point x="585" y="0" type="line"/>
      <point x="351" y="0" type="line"/>
      <point x="351" y="584" type="line"/>
      <point x="12" y="1434" type="line"/>
    </contour>
  </outline>
</glyph>
<glyph name="Z" format="2">
  <advance width="936"/>
  <unicode hex="005A"/>
  <outline>
    <contour>
      <point x="110" y="1434" type="line"/>
      <point x="879" y="1434" type="line"/>
      <point x="879" y="1374" type="line"/>
      <point x="332" y="122" type="line"/>
      <point x="880" y="163" type="line"/>
      <point x="859" y="0" type="line"/>
      <point x="47" y="0" type="line"/>
      <point x="47" y="60" type="line"/>
      <point x="590" y="1312" type="line"/>
      <point x="89" y="1272" type="line"/>
    </contour>
  </outline>
</glyph>
<glyph name="underscore" format="2">
  <advance width="768"/>
  <unicode hex="005F"/>
  <outline>
    <contour>
      <point x="0" y="-222" type="line"/>
      <point x="768" y="-222" type="line"/>
      <point x="768" y="-304" type="line"/>
      <point x="0" y="-304" type="line"/>
    </contour>
  </outline>
</glyph>
<glyph name="grave" format="2">
  <advance width="576"/>
  <unicode hex="0060"/>
  <outline>
    <contour>
      <point x="344" y="1138" type="line"/>
      <point x="69" y="1426" type="line"/>
      <point x="69" y="1470" type="line"/>
      <point x="158" y="1588" type="line"/>
      <point x="191" y="1588" type="line"/>
      <point x="401" y="1219" type="line"/>
    </contour>
  </outline>
</glyph>
<glyph name="e" format="2">
  <advance width="768"/>
  <unicode hex="0065"/>
  <outline>
    <contour>
      <point x="435" y="82" type="qcurve"/>
      <point x="465" y="82"/>
      <point x="517" y="109"/>
      <point x="560" y="152"/>
      <point x="593" y="206"/>
      <point x="606" y="234" type="qcurve"/>
      <point x="691" y="122" type="line"/>
      <point x="669" y="90"/>
      <point x="614" y="34"/>
      <point x="545" y="-7"/>
      <point x="461" y="-30"/>
      <point x="413" y="-30" type="qcurve"/>
      <point x="326" y="-30"/>
      <point x="189" y="47"/>
      <point x="93" y="185"/>
      <point x="42" y="374"/>
      <point x="42" y="487" type="qcurve"/>
      <point x="42" y="599"/>
      <point x="95" y="789"/>
      <point x="194" y="927"/>
      <point x="334" y="1004"/>
      <point x="420" y="1004" type="qcurve"/>
      <point x="474" y="1004"/>
      <point x="583" y="949"/>
      <point x="671" y="827"/>
      <point x="726" y="629"/>
      <point x="726" y="487" type="qcurve"/>
      <point x="254" y="487" type="line"/>
      <point x="254" y="371"/>
      <point x="287" y="215"/>
      <point x="339" y="121"/>
      <point x="404" y="82"/>
    </contour>
    <contour>
      <point x="413" y="892" type="qcurve"/>
      <point x="383" y="892"/>
      <point x="326" y="855"/>
      <point x="281" y="781"/>
      <point x="254" y="671"/>
      <point x="254" y="599" type="qcurve"/>
      <point x="545" y="599" type="line"/>
      <point x="545" y="677"/>
      <point x="524" y="789"/>
      <point x="488" y="859"/>
      <point x="440" y="892"/>
    </contour>
  </outline>
</glyph>
<glyph name="j" format="2">
  <advance width="432"/>
  <unicode hex="006A"/>
  <outline>
    <contour>
      <point x="114" y="974" type="line"/>
      <point x="281" y="1004" type="line"/>
      <point x="326" y="1004" type="line"/>
      <point x="326" y="-76" type="line"/>
      <point x="326" y="-202"/>
      <point x="290" y="-362"/>
      <point x="215" y="-455"/>
      <point x="96" y="-490"/>
      <point x="13" y="-490" type="qcurve"/>
      <point x="28" y="-378" type="line"/>
      <point x="53" y="-378"/>
      <point x="86" y="-363"/>
      <point x="106" y="-323"/>
      <point x="114" y="-250"/>
      <point x="114" y="-191" type="qcurve"/>
    </contour>
    <contour>
      <point x="110" y="1288" type="qcurve"/>
      <point x="110" y="1318"/>
      <point x="128" y="1372"/>
      <point x="157" y="1411"/>
      <point x="197" y="1434"/>
      <point x="220" y="1434" type="qcurve"/>
      <point x="242" y="1434"/>
      <point x="283" y="1411"/>
      <point x="312" y="1372"/>
      <point x="329" y="1318"/>
      <point x="329" y="1288" type="qcurve"/>
      <point x="329" y="1258"/>
      <point x="312" y="1204"/>
      <point x="283" y="1165"/>
      <point x="242" y="1142"/>
      <point x="220" y="1142" type="qcurve"/>
      <point x="197" y="1142"/>
      <point x="157" y="1165"/>
      <point x="128" y="1204"/>
      <point x="110" y="1258"/>
    </contour>
  </outline>
</glyph>
<glyph name="k" format="2">
  <advance width="768"/>
  <unicode hex="006B"/>
  <outline>
    <contour>
      <point x="768" y="0" type="line"/>
      <point x="551" y="-30" type="line"/>
      <point x="337" y="463" type="line"/>
      <point x="287" y="396" type="line"/>
      <point x="287" y="0" type="line"/>
      <point x="75" y="0" type="line"/>
      <point x="75" y="1464" type="line"/>
      <point x="242" y="1494" type="line"/>
      <point x="287" y="1494" type="line"/>
      <point x="287" y="582" type="line"/>
      <point x="602" y="1004" type="line"/>
      <point x="721" y="973" type="line"/>
      <point x="484" y="658" type="line"/>
    </contour>
  </outline>
</glyph>
<glyph name="q" format="2">
  <advance width="840"/>
  <unicode hex="0071"/>
  <outline>
    <contour>
      <point x="554" y="851" type="line"/>
      <point x="537" y="867"/>
      <point x="474" y="892"/>
      <point x="429" y="892" type="qcurve"/>
      <point x="392" y="892"/>
      <point x="330" y="834"/>
      <point x="286" y="728"/>
      <point x="261" y="578"/>
      <point x="261" y="487" type="qcurve"/>
      <point x="261" y="386"/>
      <point x="290" y="234"/>
      <point x="338" y="133"/>
      <point x="398" y="82"/>
      <point x="429" y="82" type="qcurve"/>
      <point x="452" y="82"/>
      <point x="489" y="96"/>
      <point x="520" y="119"/>
      <point x="544" y="148"/>
      <point x="554" y="163" type="qcurve"/>
    </contour>
    <contour>
      <point x="393" y="1004" type="qcurve"/>
      <point x="496" y="1004"/>
      <point x="677" y="929"/>
      <point x="765" y="851" type="qcurve"/>
      <point x="765" y="-460" type="line"/>
      <point x="599" y="-490" type="line"/>
      <point x="554" y="-490" type="line"/>
      <point x="554" y="51" type="line"/>
      <point x="522" y="13"/>
      <point x="437" y="-30"/>
      <point x="392" y="-30" type="qcurve"/>
      <point x="320" y="-30"/>
      <point x="192" y="41"/>
      <point x="97" y="174"/>
      <point x="42" y="366"/>
      <point x="42" y="487" type="qcurve"/>
      <point x="42" y="602"/>
      <point x="95" y="792"/>
      <point x="190" y="929"/>
      <point x="318" y="1004"/>
    </contour>
  </outline>
</glyph>
<glyph name="s" format="2">
  <advance width="648"/>
  <unicode hex="0073"/>
  <outline>
    <contour>
      <point x="110" y="234" type="line"/>
      <point x="130" y="187"/>
      <point x="173" y="128"/>
      <point x="217" y="94"/>
      <point x="261" y="82"/>
      <point x="283" y="82" type="qcurve"/>
      <point x="307" y="82"/>
      <point x="354" y="101"/>
      <point x="392" y="140"/>
      <point x="416" y="201"/>
      <point x="416" y="242" type="qcurve"/>
      <point x="416" y="300"/>
      <point x="346" y="378"/>
      <point x="275" y="413" type="qcurve"/>
      <point x="239" y="431"/>
      <point x="167" y="489"/>
      <point x="112" y="568"/>
      <point x="78" y="671"/>
      <point x="78" y="735" type="qcurve"/>
      <point x="78" y="797"/>
      <point x="114" y="897"/>
      <point x="179" y="967"/>
      <point x="266" y="1004"/>
      <point x="317" y="1004" type="qcurve"/>
      <point x="368" y="1004"/>
      <point x="449" y="983"/>
      <point x="517" y="944"/>
      <point x="575" y="888"/>
      <point x="602" y="852" type="qcurve"/>
      <point x="515" y="740" type="line"/>
      <point x="483" y="819"/>
      <point x="397" y="892"/>
      <point x="350" y="892" type="qcurve"/>
      <point x="335" y="892"/>
      <point x="303" y="875"/>
      <point x="277" y="840"/>
      <point x="260" y="788"/>
      <point x="260" y="753" type="qcurve"/>
      <point x="260" y="723"/>
      <point x="281" y="673"/>
      <point x="313" y="634"/>
      <point x="351" y="606"/>
      <point x="369" y="597" type="qcurve"/>
      <point x="430" y="568"/>
      <point x="519" y="500"/>
      <point x="577" y="417"/>
      <point x="605" y="319"/>
      <point x="605" y="260" type="qcurve"/>
      <point x="605" y="193"/>
      <point x="559" y="85"/>
      <point x="480" y="10"/>
      <point x="376" y="-30"/>
      <point x="318" y="-30" type="qcurve"/>
      <point x="270" y="-30"/>
      <point x="189" y="-13"/>
      <point x="119" y="24"/>
      <point x="56" y="82"/>
      <point x="26" y="122" type="qcurve"/>
    </contour>
  </outline>
</glyph>
<glyph name="u" format="2">
  <advance width="840"/>
  <unicode hex="0075"/>
  <outline>
    <contour>
      <point x="287" y="1004" type="line"/>
      <point x="287" y="258" type="line"/>
      <point x="287" y="204"/>
      <point x="305" y="135"/>
      <point x="332" y="96"/>
      <point x="364" y="82"/>
      <point x="378" y="82" type="qcurve"/>
      <point x="405" y="82"/>
      <point x="455" y="103"/>
      <point x="499" y="137"/>
      <point x="535" y="183"/>
      <point x="548" y="208" type="qcurve"/>
      <point x="548" y="974" type="line"/>
      <point x="714" y="1004" type="line"/>
      <point x="759" y="1004" type="line"/>
      <point x="759" y="165" type="line"/>
      <point x="759" y="117"/>
      <point x="782" y="82"/>
      <point x="813" y="82" type="qcurve"/>
      <point x="798" y="-30" type="line"/>
      <point x="748" y="-30"/>
      <point x="675" y="-11"/>
      <point x="623" y="21"/>
      <point x="590" y="61"/>
      <point x="580" y="82" type="qcurve"/>
      <point x="562" y="62"/>
      <point x="512" y="23"/>
      <point x="452" y="-10"/>
      <point x="383" y="-30"/>
      <point x="347" y="-30" type="qcurve"/>
      <point x="293" y="-30"/>
      <point x="194" y="6"/>
      <point x="119" y="85"/>
      <point x="75" y="210"/>
      <point x="75" y="298" type="qcurve"/>
      <point x="75" y="974" type="line"/>
      <point x="242" y="1004" type="line"/>
    </contour>
  </outline>
</glyph>
<glyph name="x" format="2">
  <advance width="768"/>
  <unicode hex="0078"/>
  <outline>
    <contour>
      <point x="228" y="1004" type="line"/>
      <point x="398" y="683" type="line"/>
      <point x="566" y="1004" type="line"/>
      <point x="671" y="974" type="line"/>
      <point x="458" y="569" type="line"/>
      <point x="755" y="0" type="line"/>
      <point x="539" y="-30" type="line"/>
      <point x="341" y="346" type="line"/>
      <point x="144" y="-30" type="line"/>
      <point x="39" y="0" type="line"/>
      <point x="281" y="460" type="line"/>
      <point x="12" y="974" type="line"/>
    </contour>
  </outline>
</glyph>
<glyph name="y" format="2">
  <advance width="720"/>
  <unicode hex="0079"/>
  <outline>
    <contour>
      <point x="251" y="1004" type="line"/>
      <point x="436" y="385" type="line"/>
      <point x="587" y="1004" type="line"/>
      <point x="692" y="974" type="line"/>
      <point x="448" y="-30" type="line"/>
      <point x="415" y="-167"/>
      <point x="341" y="-344"/>
      <point x="252" y="-449"/>
      <point x="143" y="-490"/>
      <point x="61" y="-490" type="qcurve"/>
      <point x="76" y="-378" type="line"/>
      <point x="116" y="-378"/>
      <point x="198" y="-340"/>
      <point x="263" y="-252"/>
      <point x="315" y="-109"/>
      <point x="341" y="-3" type="qcurve"/>
      <point x="31" y="974" type="line"/>
    </contour>
  </outline>
</glyph>
<glyph name="z" format="2">
  <advance width="720"/>
  <unicode hex="007A"/>
  <outline>
    <contour>
      <point x="23" y="60" type="line"/>
      <point x="443" y="862" type="line"/>
      <point x="62" y="835" type="line"/>
      <point x="80" y="974" type="line"/>
      <point x="698" y="974" type="line"/>
      <point x="698" y="914" type="line"/>
      <point x="270" y="112" type="line"/>
      <point x="697" y="141" type="line"/>
      <point x="679" y="0" type="line"/>
      <point x="23" y="0" type="line"/>
    </contour>
  </outline>
</glyph>
<glyph name="braceleft" format="2">
  <advance width="552"/>
  <unicode hex="007B"/>
  <outline>
    <contour>
      <point x="489" y="1342" type="line"/>
      <point x="446" y="1342"/>
      <point x="395" y="1321"/>
      <point x="371" y="1276"/>
      <point x="365" y="1204"/>
      <point x="365" y="1153" type="qcurve"/>
      <point x="365" y="917" type="line"/>
      <point x="365" y="805"/>
      <point x="293" y="648"/>
      <point x="209" y="593" type="qcurve"/>
      <point x="293" y="537"/>
      <point x="365" y="381"/>
      <point x="365" y="269" type="qcurve"/>
      <point x="365" y="21" type="line"/>
      <point x="365" y="-29"/>
      <point x="371" y="-97"/>
      <point x="395" y="-138"/>
      <point x="445" y="-156"/>
      <point x="489" y="-156" type="qcurve"/>
      <point x="506" y="-278" type="line"/>
      <point x="418" y="-278"/>
      <point x="293" y="-250"/>
      <point x="213" y="-179"/>
      <point x="176" y="-58"/>
      <point x="176" y="36" type="qcurve"/>
      <point x="176" y="230" type="line"/>
      <point x="176" y="297"/>
      <point x="169" y="408"/>
      <point x="140" y="488"/>
      <point x="83" y="532"/>
      <point x="34" y="532" type="qcurve"/>
      <point x="34" y="654" type="line"/>
      <point x="83" y="654"/>
      <point x="140" y="698"/>
      <point x="169" y="778"/>
      <point x="176" y="889"/>
      <point x="176" y="956" type="qcurve"/>
      <point x="176" y="1140" type="line"/>
      <point x="176" y="1233"/>
      <point x="213" y="1358"/>
      <point x="293" y="1433"/>
      <point x="418" y="1464"/>
      <point x="506" y="1464" type="qcurve"/>
    </contour>
  </outline>
</glyph>
<glyph name="bar" format="2">
  <advance width="552"/>
  <unicode hex="007C"/>
  <outline>
    <contour>
      <point x="362" y="1682" type="line"/>
      <point x="362" y="-278" type="line"/>
      <point x="173" y="-278" type="line"/>
      <point x="173" y="1682" type="line"/>
    </contour>
  </outline>
</glyph>
<glyph name="braceright" format="2">
  <advance width="552"/>
  <unicode hex="007D"/>
  <outline>
    <contour>
      <point x="49" y="1464" type="line"/>
      <point x="137" y="1464"/>
      <point x="261" y="1433"/>
      <point x="341" y="1358"/>
      <point x="379" y="1233"/>
      <point x="379" y="1140" type="qcurve"/>
      <point x="379" y="956" type="line"/>
      <point x="379" y="889"/>
      <point x="386" y="778"/>
      <point x="414" y="698"/>
      <point x="471" y="654"/>
      <point x="521" y="654" type="qcurve"/>
      <point x="521" y="532" type="line"/>
      <point x="471" y="532"/>
      <point x="414" y="488"/>
      <point x="386" y="408"/>
      <point x="379" y="297"/>
      <point x="379" y="230" type="qcurve"/>
      <point x="379" y="36" type="line"/>
      <point x="379" y="-58"/>
      <point x="341" y="-179"/>
      <point x="261" y="-250"/>
      <point x="137" y="-278"/>
      <point x="49" y="-278" type="qcurve"/>
      <point x="65" y="-156" type="line"/>
      <point x="110" y="-156"/>
      <point x="159" y="-138"/>
      <point x="184" y="-97"/>
      <point x="190" y="-29"/>
      <point x="190" y="21" type="qcurve"/>
      <point x="190" y="269" type="line"/>
      <point x="190" y="381"/>
      <point x="262" y="537"/>
      <point x="345" y="593" type="qcurve"/>
      <point x="262" y="648"/>
      <point x="190" y="805"/>
      <point x="190" y="917" type="qcurve"/>
      <point x="190" y="1153" type="line"/>
      <point x="190" y="1204"/>
      <point x="184" y="1276"/>
      <point x="159" y="1321"/>
      <point x="109" y="1342"/>
      <point x="65" y="1342" type="qcurve"/>
    </contour>
  </outline>
</glyph>
<glyph name="asciitilde" format="2">
  <advance width="936"/>
  <unicode hex="007E"/>
  <outline>
    <contour>
      <point x="47" y="386" type="line"/>
      <point x="47" y="427"/>
      <point x="79" y="526"/>
      <point x="141" y="611"/>
      <point x="233" y="669"/>
      <point x="291" y="669" type="qcurve"/>
      <point x="335" y="669"/>
      <point x="404" y="642"/>
      <point x="462" y="602"/>
      <point x="512" y="554"/>
      <point x="561" y="514"/>
      <point x="614" y="487"/>
      <point x="644" y="487" type="qcurve"/>
      <point x="677" y="487"/>
      <point x="729" y="518"/>
      <point x="764" y="569"/>
      <point x="783" y="634"/>
      <point x="783" y="669" type="qcurve"/>
      <point x="830" y="669" type="line"/>
      <point x="890" y="589" type="line"/>
      <point x="890" y="548"/>
      <point x="857" y="449"/>
      <point x="794" y="363"/>
      <point x="703" y="305"/>
      <point x="644" y="305" type="qcurve"/>
      <point x="597" y="305"/>
      <point x="527" y="332"/>
      <point x="470" y="372"/>
      <point x="423" y="420"/>
      <point x="376" y="460"/>
      <point x="323" y="487"/>
      <point x="290" y="487" type="qcurve"/>
      <point x="257" y="487"/>
      <point x="206" y="456"/>
      <point x="172" y="405"/>
      <point x="153" y="340"/>
      <point x="153" y="305" type="qcurve"/>
      <point x="107" y="305" type="line"/>
    </contour>
  </outline>
</glyph>
<glyph name="cent" format="2">
  <advance width="840"/>
  <unicode hex="00A2"/>
  <outline>
    <contour>
      <point x="616" y="1226" type="line"/>
      <point x="705" y="1189" type="line"/>
      <point x="648" y="955" type="line"/>
      <point x="680" y="935"/>
      <point x="728" y="882"/>
      <point x="748" y="852" type="qcurve"/>
      <point x="663" y="740" type="line"/>
      <point x="653" y="761"/>
      <point x="630" y="803"/>
      <point x="615" y="822" type="qcurve"/>
      <point x="438" y="98" type="line"/>
      <point x="463" y="82"/>
      <point x="492" y="82" type="qcurve"/>
      <point x="528" y="82"/>
      <point x="581" y="109"/>
      <point x="620" y="152"/>
      <point x="650" y="206"/>
      <point x="663" y="234" type="qcurve"/>
      <point x="748" y="122" type="line"/>
      <point x="726" y="90"/>
      <point x="675" y="34"/>
      <point x="608" y="-7"/>
      <point x="524" y="-30"/>
      <point x="470" y="-30" type="qcurve"/>
      <point x="438" y="-30"/>
      <point x="408" y="-24" type="qcurve"/>
      <point x="357" y="-234" type="line"/>
      <point x="268" y="-197" type="line"/>
      <point x="317" y="6" type="line"/>
      <point x="264" y="34"/>
      <point x="181" y="127"/>
      <point x="122" y="251"/>
      <point x="92" y="401"/>
      <point x="92" y="487" type="qcurve"/>
      <point x="92" y="599"/>
      <point x="145" y="789"/>
      <point x="244" y="927"/>
      <point x="383" y="1004"/>
      <point x="470" y="1004" type="qcurve"/>
      <point x="494" y="1004"/>
      <point x="539" y="999"/>
      <point x="559" y="994" type="qcurve"/>
    </contour>
    <contour>
      <point x="533" y="886" type="line"/>
      <point x="513" y="892"/>
      <point x="492" y="892" type="qcurve"/>
      <point x="455" y="892"/>
      <point x="389" y="836"/>
      <point x="339" y="731"/>
      <point x="311" y="581"/>
      <point x="311" y="487" type="qcurve"/>
      <point x="311" y="393"/>
      <point x="339" y="246"/>
      <point x="363" y="193" type="qcurve"/>
    </contour>
  </outline>
</glyph>
<glyph name="currency" format="2">
  <advance width="768"/>
  <unicode hex="00A4"/>
  <outline>
    <contour>
      <point x="118" y="1189" type="line"/>
      <point x="211" y="1063" type="line"/>
      <point x="290" y="1136"/>
      <point x="383" y="1136" type="qcurve"/>
      <point x="474" y="1136"/>
      <point x="556" y="1059" type="qcurve"/>
      <point x="654" y="1189" type="line"/>
      <point x="726" y="1093" type="line"/>
      <point x="628" y="963" type="line"/>
      <point x="655" y="911"/>
      <point x="682" y="796"/>
      <point x="682" y="738" type="qcurve"/>
      <point x="682" y="678"/>
      <point x="653" y="562"/>
      <point x="626" y="511" type="qcurve"/>
      <point x="726" y="378" type="line"/>
      <point x="654" y="282" type="line"/>
      <point x="556" y="413" type="line"/>
      <point x="476" y="337"/>
      <point x="383" y="337" type="qcurve"/>
      <point x="292" y="337"/>
      <point x="212" y="409" type="qcurve"/>
      <point x="118" y="282" type="line"/>
      <point x="46" y="378" type="line"/>
      <point x="140" y="503" type="line"/>
      <point x="112" y="555"/>
      <point x="84" y="673"/>
      <point x="84" y="736" type="qcurve"/>
      <point x="84" y="862"/>
      <point x="140" y="969" type="qcurve"/>
      <point x="46" y="1093" type="line"/>
    </contour>
    <contour>
      <point x="383" y="954" type="qcurve"/>
      <point x="349" y="954"/>
      <point x="290" y="918"/>
      <point x="246" y="858"/>
      <point x="221" y="779"/>
      <point x="221" y="736" type="qcurve"/>
      <point x="221" y="693"/>
      <point x="246" y="614"/>
      <point x="290" y="554"/>
      <point x="349" y="519"/>
      <point x="383" y="519" type="qcurve"/>
      <point x="415" y="519"/>
      <point x="473" y="553"/>
      <point x="518" y="612"/>
      <point x="545" y="691"/>
      <point x="545" y="736" type="qcurve"/>
      <point x="545" y="779"/>
      <point x="518" y="858"/>
      <point x="473" y="918"/>
      <point x="415" y="954"/>
    </contour>
  </outline>
</glyph>
<glyph name="yen" format="2">
  <advance width="768"/>
  <unicode hex="00A5"/>
  <outline>
    <contour>
      <point x="222" y="1464" type="line"/>
      <point x="421" y="732" type="line"/>
      <point x="621" y="1464" type="line"/>
      <point x="742" y="1434" type="line"/>
      <point x="617" y="974" type="line"/>
      <point x="742" y="974" type="line"/>
      <point x="725" y="852" type="line"/>
      <point x="584" y="852" type="line"/>
      <point x="532" y="665" type="line"/>
      <point x="742" y="665" type="line"/>
      <point x="726" y="543" type="line"/>
      <point x="501" y="543" type="line"/>
      <point x="501" y="0" type="line"/>
      <point x="267" y="0" type="line"/>
      <point x="267" y="543" type="line"/>
      <point x="26" y="543" type="line"/>
      <point x="42" y="665" type="line"/>
      <point x="236" y="665" type="line"/>
      <point x="185" y="852" type="line"/>
      <point x="26" y="852" type="line"/>
      <point x="43" y="974" type="line"/>
      <point x="152" y="974" type="line"/>
      <point x="26" y="1434" type="line"/>
    </contour>
  </outline>
</glyph>
<glyph name="section" format="2">
  <advance width="768"/>
  <unicode hex="00A7"/>
  <outline>
    <contour>
      <point x="308" y="554" type="qcurve"/>
      <point x="308" y="503"/>
      <point x="335" y="417"/>
      <point x="380" y="343"/>
      <point x="435" y="280"/>
      <point x="464" y="253" type="qcurve"/>
      <point x="508" y="310"/>
      <point x="508" y="419" type="qcurve"/>
      <point x="508" y="472"/>
      <point x="481" y="561"/>
      <point x="437" y="634"/>
      <point x="381" y="695"/>
      <point x="353" y="721" type="qcurve"/>
      <point x="332" y="694"/>
      <point x="308" y="608"/>
    </contour>
    <contour>
      <point x="662" y="-168" type="qcurve"/>
      <point x="662" y="-227"/>
      <point x="627" y="-342"/>
      <point x="560" y="-434"/>
      <point x="460" y="-490"/>
      <point x="395" y="-490" type="qcurve"/>
      <point x="299" y="-490"/>
      <point x="157" y="-404"/>
      <point x="110" y="-338" type="qcurve"/>
      <point x="196" y="-226" type="line"/>
      <point x="212" y="-265"/>
      <point x="256" y="-322"/>
      <point x="299" y="-360"/>
      <point x="341" y="-378"/>
      <point x="356" y="-378" type="qcurve"/>
      <point x="381" y="-378"/>
      <point x="425" y="-351"/>
      <point x="456" y="-308"/>
      <point x="473" y="-253"/>
      <point x="473" y="-224" type="qcurve"/>
      <point x="473" y="-159"/>
      <point x="440" y="-59"/>
      <point x="386" y="23"/>
      <point x="317" y="93"/>
      <point x="245" y="163"/>
      <point x="176" y="239"/>
      <point x="122" y="332"/>
      <point x="89" y="448"/>
      <point x="89" y="524" type="qcurve"/>
      <point x="89" y="577"/>
      <point x="114" y="668"/>
      <point x="157" y="746"/>
      <point x="214" y="813"/>
      <point x="247" y="843" type="qcurve"/>
      <point x="203" y="903"/>
      <point x="154" y="1050"/>
      <point x="154" y="1140" type="qcurve"/>
      <point x="154" y="1199"/>
      <point x="191" y="1315"/>
      <point x="260" y="1407"/>
      <point x="359" y="1464"/>
      <point x="421" y="1464" type="qcurve"/>
      <point x="478" y="1464"/>
      <point x="564" y="1440"/>
      <point x="631" y="1398"/>
      <point x="683" y="1343"/>
      <point x="707" y="1312" type="qcurve"/>
      <point x="621" y="1200" type="line"/>
      <point x="608" y="1233"/>
      <point x="574" y="1288"/>
      <point x="533" y="1329"/>
      <point x="485" y="1352"/>
      <point x="458" y="1352" type="qcurve"/>
      <point x="431" y="1352"/>
      <point x="389" y="1325"/>
      <point x="359" y="1281"/>
      <point x="343" y="1225"/>
      <point x="343" y="1197" type="qcurve"/>
      <point x="343" y="1132"/>
      <point x="376" y="1031"/>
      <point x="430" y="949"/>
      <point x="499" y="879"/>
      <point x="571" y="809"/>
      <point x="640" y="734"/>
      <point x="694" y="641"/>
      <point x="727" y="524"/>
      <point x="727" y="448" type="qcurve"/>
      <point x="727" y="396"/>
      <point x="702" y="305"/>
      <point x="659" y="227"/>
      <point x="602" y="159"/>
      <point x="569" y="129" type="qcurve"/>
      <point x="612" y="70"/>
      <point x="662" y="-78"/>
    </contour>
  </outline>
</glyph>
<glyph name="dieresis" format="2">
  <advance width="576"/>
  <unicode hex="00A8"/>
  <outline>
    <contour>
      <point x="17" y="1302" type="qcurve"/>
      <point x="17" y="1330"/>
      <point x="32" y="1378"/>
      <point x="58" y="1414"/>
      <point x="94" y="1434"/>
      <point x="114" y="1434" type="qcurve"/>
      <point x="135" y="1434"/>
      <point x="171" y="1414"/>
      <point x="198" y="1378"/>
      <point x="213" y="1330"/>
      <point x="213" y="1302" type="qcurve"/>
      <point x="213" y="1275"/>
      <point x="198" y="1227"/>
      <point x="171" y="1192"/>
      <point x="135" y="1172"/>
      <point x="114" y="1172" type="qcurve"/>
      <point x="94" y="1172"/>
      <point x="58" y="1192"/>
      <point x="32" y="1227"/>
      <point x="17" y="1275"/>
    </contour>
    <contour>
      <point x="363" y="1302" type="qcurve"/>
      <point x="363" y="1330"/>
      <point x="378" y="1378"/>
      <point x="404" y="1414"/>
      <point x="440" y="1434"/>
      <point x="461" y="1434" type="qcurve"/>
      <point x="482" y="1434"/>
      <point x="518" y="1414"/>
      <point x="545" y="1378"/>
      <point x="560" y="1330"/>
      <point x="560" y="1302" type="qcurve"/>
      <point x="560" y="1275"/>
      <point x="545" y="1227"/>
      <point x="518" y="1192"/>
      <point x="482" y="1172"/>
      <point x="461" y="1172" type="qcurve"/>
      <point x="440" y="1172"/>
      <point x="404" y="1192"/>
      <point x="378" y="1227"/>
      <point x="363" y="1275"/>
    </contour>
  </outline>
</glyph>
<glyph name="copyright" format="2">
  <advance width="1200"/>
  <unicode hex="00A9"/>
  <outline>
    <contour>
      <point x="39" y="716" type="qcurve"/>
      <point x="39" y="819"/>
      <point x="79" y="1010"/>
      <point x="152" y="1177"/>
      <point x="254" y="1313"/>
      <point x="379" y="1411"/>
      <point x="522" y="1464"/>
      <point x="599" y="1464" type="qcurve"/>
      <point x="677" y="1464"/>
      <point x="821" y="1411"/>
      <point x="945" y="1313"/>
      <point x="1048" y="1177"/>
      <point x="1121" y="1010"/>
      <point x="1161" y="819"/>
      <point x="1161" y="716" type="qcurve"/>
      <point x="1161" y="613"/>
      <point x="1121" y="422"/>
      <point x="1048" y="256"/>
      <point x="945" y="120"/>
      <point x="821" y="23"/>
      <point x="677" y="-30"/>
      <point x="599" y="-30" type="qcurve"/>
      <point x="522" y="-30"/>
      <point x="379" y="23"/>
      <point x="254" y="120"/>
      <point x="152" y="256"/>
      <point x="79" y="422"/>
      <point x="39" y="613"/>
    </contour>
    <contour>
      <point x="131" y="718" type="qcurve"/>
      <point x="131" y="634"/>
      <point x="165" y="475"/>
      <point x="227" y="336"/>
      <point x="314" y="221"/>
      <point x="418" y="138"/>
      <point x="536" y="92"/>
      <point x="599" y="92" type="qcurve"/>
      <point x="662" y="92"/>
      <point x="781" y="138"/>
      <point x="886" y="221"/>
      <point x="972" y="336"/>
      <point x="1035" y="475"/>
      <point x="1070" y="634"/>
      <point x="1070" y="718" type="qcurve"/>
      <point x="1070" y="844"/>
      <point x="994" y="1070"/>
      <point x="864" y="1241"/>
      <point x="694" y="1342"/>
      <point x="599" y="1342" type="qcurve"/>
      <point x="536" y="1342"/>
      <point x="418" y="1296"/>
      <point x="314" y="1213"/>
      <point x="227" y="1098"/>
      <point x="165" y="959"/>
      <point x="131" y="802"/>
    </contour>
    <contour>
      <point x="782" y="931" type="line"/>
      <point x="761" y="977"/>
      <point x="694" y="1043"/>
      <point x="644" y="1043" type="qcurve"/>
      <point x="615" y="1043"/>
      <point x="558" y="998"/>
      <point x="513" y="913"/>
      <point x="485" y="792"/>
      <point x="485" y="716" type="qcurve"/>
      <point x="485" y="640"/>
      <point x="513" y="518"/>
      <point x="558" y="433"/>
      <point x="615" y="388"/>
      <point x="644" y="388" type="qcurve"/>
      <point x="671" y="388"/>
      <point x="713" y="406"/>
      <point x="746" y="436"/>
      <point x="771" y="477"/>
      <point x="782" y="501" type="qcurve"/>
      <point x="854" y="406" type="line"/>
      <point x="836" y="379"/>
      <point x="790" y="331"/>
      <point x="732" y="296"/>
      <point x="661" y="276"/>
      <point x="617" y="276" type="qcurve"/>
      <point x="547" y="276"/>
      <point x="428" y="342"/>
      <point x="343" y="459"/>
      <point x="296" y="620"/>
      <point x="296" y="716" type="qcurve"/>
      <point x="296" y="812"/>
      <point x="343" y="973"/>
      <point x="428" y="1090"/>
      <point x="547" y="1155"/>
      <point x="617" y="1155" type="qcurve"/>
      <point x="660" y="1155"/>
      <point x="731" y="1135"/>
      <point x="790" y="1100"/>
      <point x="836" y="1053"/>
      <point x="854" y="1026" type="qcurve"/>
    </contour>
  </outline>
</glyph>
<glyph name="ordfeminine" format="2">
  <advance width="648"/>
  <unicode hex="00AA"/>
  <outline>
    <contour>
      <point x="392" y="1071" type="line"/>
      <point x="344" y="1067"/>
      <point x="277" y="1030"/>
      <point x="233" y="973"/>
      <point x="213" y="900"/>
      <point x="213" y="861" type="qcurve"/>
      <point x="213" y="798"/>
      <point x="254" y="739"/>
      <point x="282" y="739" type="qcurve"/>
      <point x="304" y="739"/>
      <point x="338" y="755"/>
      <point x="365" y="780"/>
      <point x="385" y="813"/>
      <point x="392" y="831" type="qcurve"/>
    </contour>
    <contour>
      <point x="81" y="1342" type="line"/>
      <point x="108" y="1370"/>
      <point x="159" y="1416"/>
      <point x="213" y="1447"/>
      <point x="272" y="1464"/>
      <point x="305" y="1464" type="qcurve"/>
      <point x="356" y="1464"/>
      <point x="445" y="1427"/>
      <point x="512" y="1352"/>
      <point x="551" y="1240"/>
      <point x="551" y="1164" type="qcurve"/>
      <point x="551" y="793" type="line"/>
      <point x="551" y="766"/>
      <point x="571" y="739"/>
      <point x="594" y="739" type="qcurve"/>
      <point x="582" y="637" type="line"/>
      <point x="540" y="637"/>
      <point x="482" y="659"/>
      <point x="443" y="692"/>
      <point x="419" y="730"/>
      <point x="410" y="747" type="qcurve"/>
      <point x="398" y="726"/>
      <point x="365" y="687"/>
      <point x="321" y="656"/>
      <point x="266" y="637"/>
      <point x="233" y="637" type="qcurve"/>
      <point x="189" y="637"/>
      <point x="122" y="671"/>
      <point x="77" y="732"/>
      <point x="54" y="817"/>
      <point x="54" y="868" type="qcurve"/>
      <point x="54" y="1002"/>
      <point x="217" y="1148"/>
      <point x="392" y="1153" type="qcurve"/>
      <point x="392" y="1235" type="line"/>
      <point x="392" y="1274"/>
      <point x="371" y="1324"/>
      <point x="340" y="1352"/>
      <point x="303" y="1362"/>
      <point x="287" y="1362" type="qcurve"/>
      <point x="271" y="1362"/>
      <point x="239" y="1354"/>
      <point x="206" y="1331"/>
      <point x="170" y="1288"/>
      <point x="149" y="1253" type="qcurve"/>
    </contour>
  </outline>
</glyph>
<glyph name="registered" format="2">
  <advance width="1200"/>
  <unicode hex="00AE"/>
  <outline>
    <contour>
      <point x="39" y="716" type="qcurve"/>
      <point x="39" y="819"/>
      <point x="79" y="1010"/>
      <point x="152" y="1177"/>
      <point x="254" y="1313"/>
      <point x="379" y="1411"/>
      <point x="522" y="1464"/>
      <point x="599" y="1464" type="qcurve"/>
      <point x="677" y="1464"/>
      <point x="821" y="1411"/>
      <point x="945" y="1313"/>
      <point x="1048" y="1177"/>
      <point x="1121" y="1010"/>
      <point x="1161" y="819"/>
      <point x="1161" y="716" type="qcurve"/>
      <point x="1161" y="613"/>
      <point x="1121" y="422"/>
      <point x="1048" y="256"/>
      <point x="945" y="120"/>
      <point x="821" y="23"/>
      <point x="677" y="-30"/>
      <point x="599" y="-30" type="qcurve"/>
      <point x="522" y="-30"/>
      <point x="379" y="23"/>
      <point x="254" y="120"/>
      <point x="152" y="256"/>
      <point x="79" y="422"/>
      <point x="39" y="613"/>
    </contour>
    <contour>
      <point x="131" y="718" type="qcurve"/>
      <point x="131" y="634"/>
      <point x="165" y="475"/>
      <point x="227" y="336"/>
      <point x="314" y="221"/>
      <point x="418" y="138"/>
      <point x="536" y="92"/>
      <point x="599" y="92" type="qcurve"/>
      <point x="662" y="92"/>
      <point x="781" y="138"/>
      <point x="886" y="221"/>
      <point x="972" y="336"/>
      <point x="1035" y="475"/>
      <point x="1070" y="634"/>
      <point x="1070" y="718" type="qcurve"/>
      <point x="1070" y="844"/>
      <point x="994" y="1070"/>
      <point x="864" y="1241"/>
      <point x="694" y="1342"/>
      <point x="599" y="1342" type="qcurve"/>
      <point x="536" y="1342"/>
      <point x="418" y="1296"/>
      <point x="314" y="1213"/>
      <point x="227" y="1098"/>
      <point x="165" y="959"/>
      <point x="131" y="802"/>
    </contour>
    <contour>
      <point x="523" y="1073" type="line"/>
      <point x="523" y="727" type="line"/>
      <point x="575" y="727" type="line"/>
      <point x="599" y="727"/>
      <point x="642" y="755"/>
      <point x="675" y="804"/>
      <point x="694" y="869"/>
      <point x="694" y="907" type="qcurve"/>
      <point x="694" y="943"/>
      <point x="674" y="1004"/>
      <point x="640" y="1048"/>
      <point x="598" y="1073"/>
      <point x="576" y="1073" type="qcurve"/>
    </contour>
    <contour>
      <point x="379" y="1155" type="line"/>
      <point x="587" y="1155" type="line"/>
      <point x="712" y="1155"/>
      <point x="838" y="1025"/>
      <point x="838" y="907" type="qcurve"/>
      <point x="838" y="855"/>
      <point x="801" y="775"/>
      <point x="747" y="718"/>
      <point x="685" y="681"/>
      <point x="659" y="672" type="qcurve"/>
      <point x="884" y="296" type="line"/>
      <point x="730" y="277" type="line"/>
      <point x="538" y="645" type="line"/>
      <point x="523" y="645" type="line"/>
      <point x="523" y="295" type="line"/>
      <point x="379" y="295" type="line"/>
    </contour>
  </outline>
</glyph>
<glyph name="degree" format="2">
  <advance width="576"/>
  <unicode hex="00B0"/>
  <outline>
    <contour>
      <point x="180" y="1272" type="qcurve"/>
      <point x="180" y="1241"/>
      <point x="197" y="1188"/>
      <point x="225" y="1149"/>
      <point x="264" y="1126"/>
      <point x="287" y="1126" type="qcurve"/>
      <point x="309" y="1126"/>
      <point x="349" y="1149"/>
      <point x="379" y="1188"/>
      <point x="396" y="1241"/>
      <point x="396" y="1272" type="qcurve"/>
      <point x="396" y="1300"/>
      <point x="379" y="1352"/>
      <point x="349" y="1391"/>
      <point x="309" y="1414"/>
      <point x="287" y="1414" type="qcurve"/>
      <point x="264" y="1414"/>
      <point x="225" y="1391"/>
      <point x="197" y="1352"/>
      <point x="180" y="1300"/>
    </contour>
    <contour>
      <point x="66" y="1271" type="qcurve"/>
      <point x="66" y="1331"/>
      <point x="100" y="1439"/>
      <point x="160" y="1519"/>
      <point x="241" y="1566"/>
      <point x="287" y="1566" type="qcurve"/>
      <point x="333" y="1566"/>
      <point x="414" y="1519"/>
      <point x="475" y="1439"/>
      <point x="510" y="1331"/>
      <point x="510" y="1271" type="qcurve"/>
      <point x="510" y="1207"/>
      <point x="475" y="1098"/>
      <point x="414" y="1019"/>
      <point x="333" y="974"/>
      <point x="287" y="974" type="qcurve"/>
      <point x="241" y="974"/>
      <point x="160" y="1019"/>
      <point x="100" y="1098"/>
      <point x="66" y="1207"/>
    </contour>
  </outline>
</glyph>
<glyph name="plusminus" format="2">
  <advance width="864"/>
  <unicode hex="00B1"/>
  <outline>
    <contour>
      <point x="56" y="212" type="line"/>
      <point x="808" y="212" type="line"/>
      <point x="808" y="0" type="line"/>
      <point x="56" y="0" type="line"/>
    </contour>
    <contour>
      <point x="68" y="762" type="line"/>
      <point x="68" y="974" type="line"/>
      <point x="353" y="974" type="line"/>
      <point x="353" y="1355" type="line"/>
      <point x="512" y="1355" type="line"/>
      <point x="512" y="974" type="line"/>
      <point x="797" y="974" type="line"/>
      <point x="797" y="762" type="line"/>
      <point x="512" y="762" type="line"/>
      <point x="512" y="381" type="line"/>
      <point x="353" y="381" type="line"/>
      <point x="353" y="762" type="line"/>
    </contour>
  </outline>
</glyph>
<glyph name="twosuperior" format="2">
  <advance width="552"/>
  <unicode hex="00B2"/>
  <outline>
    <contour>
      <point x="71" y="1345" type="line"/>
      <point x="111" y="1402"/>
      <point x="202" y="1464"/>
      <point x="259" y="1464" type="qcurve"/>
      <point x="299" y="1464"/>
      <point x="378" y="1433"/>
      <point x="440" y="1370"/>
      <point x="478" y="1275"/>
      <point x="478" y="1212" type="qcurve"/>
      <point x="478" y="1160"/>
      <point x="445" y="1051"/>
      <point x="375" y="928"/>
      <point x="267" y="787"/>
      <point x="192" y="704" type="qcurve"/>
      <point x="491" y="725" type="line"/>
      <point x="472" y="586" type="line"/>
      <point x="62" y="586" type="line"/>
      <point x="62" y="621" type="line"/>
      <point x="128" y="717"/>
      <point x="221" y="865"/>
      <point x="284" y="979"/>
      <point x="319" y="1066"/>
      <point x="337" y="1134"/>
      <point x="341" y="1189"/>
      <point x="341" y="1215" type="qcurve"/>
      <point x="341" y="1275"/>
      <point x="293" y="1352"/>
      <point x="250" y="1352" type="qcurve"/>
      <point x="175" y="1352"/>
      <point x="128" y="1269" type="qcurve"/>
    </contour>
  </outline>
</glyph>
<glyph name="threesuperior" format="2">
  <advance width="552"/>
  <unicode hex="00B3"/>
  <outline>
    <contour>
      <point x="261" y="1464" type="qcurve"/>
      <point x="301" y="1464"/>
      <point x="369" y="1433"/>
      <point x="419" y="1379"/>
      <point x="448" y="1306"/>
      <point x="448" y="1264" type="qcurve"/>
      <point x="448" y="1227"/>
      <point x="430" y="1170"/>
      <point x="401" y="1128"/>
      <point x="367" y="1099"/>
      <point x="349" y="1089" type="qcurve"/>
      <point x="370" y="1078"/>
      <point x="420" y="1039"/>
      <point x="464" y="982"/>
      <point x="494" y="904"/>
      <point x="494" y="853" type="qcurve"/>
      <point x="494" y="797"/>
      <point x="459" y="700"/>
      <point x="395" y="628"/>
      <point x="305" y="586"/>
      <point x="250" y="586" type="qcurve"/>
      <point x="214" y="586"/>
      <point x="157" y="607"/>
      <point x="110" y="642"/>
      <point x="73" y="684"/>
      <point x="58" y="705" type="qcurve"/>
      <point x="115" y="781" type="line"/>
      <point x="132" y="748"/>
      <point x="193" y="698"/>
      <point x="241" y="698" type="qcurve"/>
      <point x="266" y="698"/>
      <point x="308" y="716"/>
      <point x="340" y="754"/>
      <point x="357" y="812"/>
      <point x="357" y="852" type="qcurve"/>
      <point x="357" y="901"/>
      <point x="334" y="968"/>
      <point x="299" y="1010"/>
      <point x="257" y="1028"/>
      <point x="238" y="1028" type="qcurve"/>
      <point x="191" y="1028" type="line"/>
      <point x="204" y="1130" type="line"/>
      <point x="233" y="1130" type="line"/>
      <point x="248" y="1130"/>
      <point x="283" y="1142"/>
      <point x="313" y="1171"/>
      <point x="334" y="1219"/>
      <point x="334" y="1254" type="qcurve"/>
      <point x="334" y="1281"/>
      <point x="320" y="1319"/>
      <point x="296" y="1342"/>
      <point x="267" y="1352"/>
      <point x="252" y="1352" type="qcurve"/>
      <point x="221" y="1352"/>
      <point x="169" y="1309"/>
      <point x="149" y="1269" type="qcurve"/>
      <point x="92" y="1345" type="line"/>
      <point x="102" y="1364"/>
      <point x="133" y="1407"/>
      <point x="176" y="1441"/>
      <point x="229" y="1464"/>
    </contour>
  </outline>
</glyph>
<glyph name="mu" format="2">
  <advance width="768"/>
  <unicode hex="00B5"/>
  <outline>
    <contour>
      <point x="287" y="-460" type="line"/>
      <point x="120" y="-490" type="line"/>
      <point x="75" y="-490" type="line"/>
      <point x="75" y="974" type="line"/>
      <point x="242" y="1004" type="line"/>
      <point x="287" y="1004" type="line"/>
      <point x="287" y="209" type="line"/>
      <point x="305" y="158"/>
      <point x="365" y="112"/>
      <point x="393" y="112" type="qcurve"/>
      <point x="430" y="112"/>
      <point x="477" y="158"/>
      <point x="503" y="208" type="qcurve"/>
      <point x="503" y="974" type="line"/>
      <point x="669" y="1004" type="line"/>
      <point x="714" y="1004" type="line"/>
      <point x="714" y="165" type="line"/>
      <point x="714" y="117"/>
      <point x="737" y="82"/>
      <point x="768" y="82" type="qcurve"/>
      <point x="753" y="-30" type="line"/>
      <point x="703" y="-30"/>
      <point x="630" y="-11"/>
      <point x="578" y="21"/>
      <point x="545" y="61"/>
      <point x="535" y="82" type="qcurve"/>
      <point x="517" y="62"/>
      <point x="485" y="32"/>
      <point x="452" y="11"/>
      <point x="414" y="0"/>
      <point x="392" y="0" type="qcurve"/>
      <point x="382" y="0"/>
      <point x="355" y="6"/>
      <point x="326" y="19"/>
      <point x="298" y="40"/>
      <point x="287" y="55" type="qcurve"/>
    </contour>
  </outline>
</glyph>
<glyph name="paragraph" format="2">
  <advance width="768"/>
  <unicode hex="00B6"/>
  <outline>
    <contour>
      <point x="722" y="1434" type="line"/>
      <point x="722" y="1312" type="line"/>
      <point x="674" y="1312" type="line"/>
      <point x="674" y="0" type="line"/>
      <point x="537" y="0" type="line"/>
      <point x="537" y="1312" type="line"/>
      <point x="450" y="1312" type="line"/>
      <point x="450" y="0" type="line"/>
      <point x="314" y="0" type="line"/>
      <point x="314" y="750" type="line"/>
      <point x="253" y="750"/>
      <point x="154" y="800"/>
      <point x="84" y="891"/>
      <point x="47" y="1017"/>
      <point x="47" y="1092" type="qcurve"/>
      <point x="47" y="1167"/>
      <point x="86" y="1293"/>
      <point x="160" y="1383"/>
      <point x="264" y="1434"/>
      <point x="329" y="1434" type="qcurve"/>
    </contour>
  </outline>
</glyph>
<glyph name="periodcentered" format="2">
  <advance width="432"/>
  <unicode hex="00B7"/>
  <outline>
    <contour>
      <point x="95" y="497" type="qcurve"/>
      <point x="95" y="530"/>
      <point x="114" y="589"/>
      <point x="147" y="633"/>
      <point x="191" y="658"/>
      <point x="216" y="658" type="qcurve"/>
      <point x="241" y="658"/>
      <point x="285" y="633"/>
      <point x="318" y="589"/>
      <point x="337" y="530"/>
      <point x="337" y="497" type="qcurve"/>
      <point x="337" y="464"/>
      <point x="318" y="405"/>
      <point x="285" y="361"/>
      <point x="241" y="336"/>
      <point x="216" y="336" type="qcurve"/>
      <point x="191" y="336"/>
      <point x="147" y="361"/>
      <point x="114" y="405"/>
      <point x="95" y="464"/>
    </contour>
  </outline>
</glyph>
<glyph name="cedilla" format="2">
  <advance width="576"/>
  <unicode hex="00B8"/>
  <outline>
    <contour>
      <point x="234" y="15" type="line"/>
      <point x="371" y="15" type="line"/>
      <point x="346" y="-72" type="line"/>
      <point x="363" y="-75"/>
      <point x="410" y="-102"/>
      <point x="452" y="-149"/>
      <point x="481" y="-217"/>
      <point x="481" y="-262" type="qcurve"/>
      <point x="481" y="-318"/>
      <point x="449" y="-403"/>
      <point x="392" y="-461"/>
      <point x="318" y="-490"/>
      <point x="276" y="-490" type="qcurve"/>
      <point x="239" y="-490"/>
      <point x="181" y="-467"/>
      <point x="136" y="-433"/>
      <point x="104" y="-393"/>
      <point x="95" y="-375" type="qcurve"/>
      <point x="156" y="-266" type="line"/>
      <point x="169" y="-310"/>
      <point x="211" y="-369"/>
      <point x="245" y="-369" type="qcurve"/>
      <point x="263" y="-369"/>
      <point x="293" y="-348"/>
      <point x="316" y="-313"/>
      <point x="329" y="-267"/>
      <point x="329" y="-243" type="qcurve"/>
      <point x="329" y="-204"/>
      <point x="308" y="-153"/>
      <point x="272" y="-124"/>
      <point x="225" y="-113"/>
      <point x="199" y="-113" type="qcurve"/>
    </contour>
  </outline>
</glyph>
<glyph name="onesuperior" format="2">
  <advance width="552"/>
  <unicode hex="00B9"/>
  <outline>
    <contour>
      <point x="403" y="1464" type="line"/>
      <point x="403" y="586" type="line"/>
      <point x="266" y="586" type="line"/>
      <point x="266" y="1304" type="line"/>
      <point x="142" y="1271" type="line"/>
      <point x="130" y="1363" type="line"/>
      <point x="373" y="1464" type="line"/>
    </contour>
  </outline>
</glyph>
<glyph name="ordmasculine" format="2">
  <advance width="648"/>
  <unicode hex="00BA"/>
  <outline>
    <contour>
      <point x="324" y="739" type="qcurve"/>
      <point x="386" y="739"/>
      <point x="451" y="900"/>
      <point x="451" y="1050" type="qcurve"/>
      <point x="451" y="1201"/>
      <point x="386" y="1362"/>
      <point x="324" y="1362" type="qcurve"/>
      <point x="261" y="1362"/>
      <point x="197" y="1201"/>
      <point x="197" y="1050" type="qcurve"/>
      <point x="197" y="900"/>
      <point x="261" y="739"/>
    </contour>
    <contour>
      <point x="324" y="637" type="qcurve"/>
      <point x="254" y="637"/>
      <point x="146" y="699"/>
      <point x="74" y="809"/>
      <point x="38" y="960"/>
      <point x="38" y="1050" type="qcurve"/>
      <point x="38" y="1140"/>
      <point x="74" y="1292"/>
      <point x="146" y="1402"/>
      <point x="254" y="1464"/>
      <point x="324" y="1464" type="qcurve"/>
      <point x="394" y="1464"/>
      <point x="501" y="1402"/>
      <point x="573" y="1292"/>
      <point x="610" y="1140"/>
      <point x="610" y="1050" type="qcurve"/>
      <point x="610" y="960"/>
      <point x="573" y="809"/>
      <point x="501" y="699"/>
      <point x="394" y="637"/>
    </contour>
  </outline>
</glyph>
<glyph name="AE" format="2">
  <advance width="1320"/>
  <unicode hex="00C6"/>
  <outline>
    <contour>
      <point x="631" y="1434" type="line"/>
      <point x="1241" y="1434" type="line"/>
      <point x="1220" y="1272" type="line"/>
      <point x="834" y="1312" type="line"/>
      <point x="834" y="859" type="line"/>
      <point x="1164" y="859" type="line"/>
      <point x="1145" y="717" type="line"/>
      <point x="834" y="717" type="line"/>
      <point x="834" y="122" type="line"/>
      <point x="1262" y="162" type="line"/>
      <point x="1241" y="0" type="line"/>
      <point x="600" y="0" type="line"/>
      <point x="600" y="345" type="line"/>
      <point x="296" y="345" type="line"/>
      <point x="133" y="-30" type="line"/>
      <point x="11" y="0" type="line"/>
    </contour>
    <contour>
      <point x="357" y="487" type="line"/>
      <point x="600" y="487" type="line"/>
      <point x="600" y="1047" type="line"/>
    </contour>
  </outline>
</glyph>
<glyph name="Eth" format="2">
  <advance width="1128"/>
  <unicode hex="00D0"/>
  <outline>
    <contour>
      <point x="99" y="1434" type="line"/>
      <point x="458" y="1434" type="line"/>
      <point x="602" y="1434"/>
      <point x="827" y="1336"/>
      <point x="984" y="1151"/>
      <point x="1067" y="885"/>
      <point x="1067" y="717" type="qcurve"/>
      <point x="1067" y="619"/>
      <point x="1028" y="436"/>
      <point x="953" y="277"/>
      <point x="848" y="145"/>
      <point x="714" y="52"/>
      <point x="555" y="0"/>
      <point x="466" y="0" type="qcurve"/>
      <point x="99" y="0" type="line"/>
      <point x="99" y="717" type="line"/>
      <point x="29" y="717" type="line"/>
      <point x="49" y="859" type="line"/>
      <point x="99" y="859" type="line"/>
    </contour>
    <contour>
      <point x="333" y="1302" type="line"/>
      <point x="333" y="859" type="line"/>
      <point x="591" y="859" type="line"/>
      <point x="572" y="717" type="line"/>
      <point x="333" y="717" type="line"/>
      <point x="333" y="132" type="line"/>
      <point x="445" y="132" type="line"/>
      <point x="536" y="132"/>
      <point x="678" y="226"/>
      <point x="775" y="386"/>
      <point x="825" y="598"/>
      <point x="825" y="717" type="qcurve"/>
      <point x="825" y="859"/>
      <point x="772" y="1078"/>
      <point x="672" y="1226"/>
      <point x="530" y="1302"/>
      <point x="440" y="1302" type="qcurve"/>
    </contour>
  </outline>
</glyph>
<glyph name="multiply" format="2">
  <advance width="864"/>
  <unicode hex="00D7"/>
  <outline>
    <contour>
      <point x="118" y="854" type="line"/>
      <point x="230" y="1004" type="line"/>
      <point x="432" y="735" type="line"/>
      <point x="634" y="1004" type="line"/>
      <point x="746" y="854" type="line"/>
      <point x="545" y="585" type="line"/>
      <point x="746" y="316" type="line"/>
      <point x="634" y="166" type="line"/>
      <point x="432" y="435" type="line"/>
      <point x="230" y="166" type="line"/>
      <point x="118" y="316" type="line"/>
      <point x="320" y="585" type="line"/>
    </contour>
  </outline>
</glyph>
<glyph name="germandbls" format="2">
  <advance width="864"/>
  <unicode hex="00DF"/>
  <outline>
    <contour>
      <point x="75" y="1039" type="line"/>
      <point x="75" y="1153"/>
      <point x="127" y="1340"/>
      <point x="215" y="1473"/>
      <point x="333" y="1546"/>
      <point x="398" y="1546" type="qcurve"/>
      <point x="464" y="1546"/>
      <point x="564" y="1498"/>
      <point x="632" y="1421"/>
      <point x="666" y="1327"/>
      <point x="666" y="1281" type="qcurve"/>
      <point x="666" y="1231"/>
      <point x="644" y="1153"/>
      <point x="610" y="1090"/>
      <point x="571" y="1037"/>
      <point x="537" y="986"/>
      <point x="515" y="933"/>
      <point x="515" y="902" type="qcurve"/>
      <point x="515" y="865"/>
      <point x="560" y="802"/>
      <point x="629" y="737"/>
      <point x="708" y="663"/>
      <point x="776" y="569"/>
      <point x="822" y="447"/>
      <point x="822" y="366" type="qcurve"/>
      <point x="822" y="282"/>
      <point x="764" y="137"/>
      <point x="651" y="30"/>
      <point x="485" y="-30"/>
      <point x="378" y="-30" type="qcurve"/>
      <point x="393" y="82" type="line"/>
      <point x="449" y="82"/>
      <point x="531" y="123"/>
      <point x="584" y="189"/>
      <point x="611" y="271"/>
      <point x="611" y="312" type="qcurve"/>
      <point x="611" y="366"/>
      <point x="578" y="456"/>
      <point x="530" y="536"/>
      <point x="473" y="613"/>
      <point x="425" y="697"/>
      <point x="393" y="795"/>
      <point x="393" y="856" type="qcurve"/>
      <point x="393" y="917"/>
      <point x="422" y="1010"/>
      <point x="456" y="1100"/>
      <point x="485" y="1202"/>
      <point x="485" y="1272" type="qcurve"/>
      <point x="485" y="1303"/>
      <point x="473" y="1362"/>
      <point x="450" y="1407"/>
      <point x="416" y="1434"/>
      <point x="394" y="1434" type="qcurve"/>
      <point x="365" y="1434"/>
      <point x="325" y="1399"/>
      <point x="299" y="1310"/>
      <point x="287" y="1158"/>
      <point x="287" y="1041" type="qcurve"/>
      <point x="287" y="0" type="line"/>
      <point x="75" y="0" type="line"/>
    </contour>
  </outline>
</glyph>
<glyph name="oslash" format="2">
  <advance width="840"/>
  <unicode hex="00F8"/>
  <outline>
    <contour>
      <point x="420" y="1004" type="qcurve"/>
      <point x="474" y="1004"/>
      <point x="523" y="989" type="qcurve"/>
      <point x="560" y="1099" type="line"/>
      <point x="680" y="1069" type="line"/>
      <point x="633" y="928" type="line"/>
      <point x="713" y="861"/>
      <point x="798" y="633"/>
      <point x="798" y="487" type="qcurve"/>
      <point x="798" y="374"/>
      <point x="746" y="185"/>
      <point x="648" y="47"/>
      <point x="508" y="-30"/>
      <point x="420" y="-30" type="qcurve"/>
      <point x="365" y="-30"/>
      <point x="317" y="-15" type="qcurve"/>
      <point x="281" y="-125" type="line"/>
      <point x="160" y="-95" type="line"/>
      <point x="207" y="46" type="line"/>
      <point x="128" y="113"/>
      <point x="42" y="341"/>
      <point x="42" y="487" type="qcurve"/>
      <point x="42" y="599"/>
      <point x="95" y="789"/>
      <point x="192" y="927"/>
      <point x="332" y="1004"/>
    </contour>
    <contour>
      <point x="420" y="82" type="qcurve"/>
      <point x="459" y="82"/>
      <point x="518" y="138"/>
      <point x="559" y="243"/>
      <point x="579" y="393"/>
      <point x="579" y="487" type="qcurve"/>
      <point x="579" y="615"/>
      <point x="560" y="708" type="qcurve"/>
      <point x="357" y="105" type="line"/>
      <point x="386" y="82"/>
    </contour>
    <contour>
      <point x="420" y="892" type="qcurve"/>
      <point x="381" y="892"/>
      <point x="322" y="836"/>
      <point x="281" y="731"/>
      <point x="261" y="581"/>
      <point x="261" y="487" type="qcurve"/>
      <point x="261" y="358"/>
      <point x="281" y="265" type="qcurve"/>
      <point x="482" y="869" type="line"/>
      <point x="455" y="892"/>
    </contour>
  </outline>
</glyph>
<glyph name="Hbar" format="2">
  <advance width="1128"/>
  <unicode hex="0126"/>
  <outline>
    <contour>
      <point x="99" y="1434" type="line"/>
      <point x="333" y="1464" type="line"/>
      <point x="333" y="1146" type="line"/>
      <point x="795" y="1146" type="line"/>
      <point x="795" y="1434" type="line"/>
      <point x="1029" y="1464" type="line"/>
      <point x="1029" y="1146" type="line"/>
      <point x="1104" y="1146" type="line"/>
      <point x="1086" y="1004" type="line"/>
      <point x="1029" y="1004" type="line"/>
      <point x="1029" y="0" type="line"/>
      <point x="795" y="0" type="line"/>
      <point x="795" y="575" type="line"/>
      <point x="333" y="575" type="line"/>
      <point x="333" y="0" type="line"/>
      <point x="99" y="0" type="line"/>
      <point x="99" y="1004" type="line"/>
      <point x="24" y="1004" type="line"/>
      <point x="42" y="1146" type="line"/>
      <point x="99" y="1146" type="line"/>
    </contour>
    <contour>
      <point x="795" y="717" type="line"/>
      <point x="795" y="1004" type="line"/>
      <point x="333" y="1004" type="line"/>
      <point x="333" y="717" type="line"/>
    </contour>
  </outline>
</glyph>
<glyph name="hbar" format="2">
  <advance width="840"/>
  <unicode hex="0127"/>
  <outline>
    <contour>
      <point x="75" y="1464" type="line"/>
      <point x="242" y="1494" type="line"/>
      <point x="287" y="1494" type="line"/>
      <point x="287" y="1271" type="line"/>
      <point x="447" y="1271" type="line"/>
      <point x="428" y="1132" type="line"/>
      <point x="287" y="1140" type="line"/>
      <point x="287" y="925" type="line"/>
      <point x="326" y="963"/>
      <point x="428" y="1004"/>
      <point x="487" y="1004" type="qcurve"/>
      <point x="548" y="1004"/>
      <point x="648" y="960"/>
      <point x="720" y="877"/>
      <point x="759" y="757"/>
      <point x="759" y="680" type="qcurve"/>
      <point x="759" y="172" type="line"/>
      <point x="759" y="124"/>
      <point x="780" y="82"/>
      <point x="813" y="82" type="qcurve"/>
      <point x="798" y="-30" type="line"/>
      <point x="727" y="-30"/>
      <point x="631" y="12"/>
      <point x="572" y="86"/>
      <point x="548" y="187"/>
      <point x="548" y="247" type="qcurve"/>
      <point x="548" y="724" type="line"/>
      <point x="548" y="763"/>
      <point x="527" y="825"/>
      <point x="493" y="868"/>
      <point x="452" y="892"/>
      <point x="433" y="892" type="qcurve"/>
      <point x="408" y="892"/>
      <point x="365" y="875"/>
      <point x="327" y="846"/>
      <point x="297" y="811"/>
      <point x="287" y="793" type="qcurve"/>
      <point x="287" y="0" type="line"/>
      <point x="75" y="0" type="line"/>
      <point x="75" y="1152" type="line"/>
      <point x="-27" y="1159" type="line"/>
      <point x="-12" y="1271" type="line"/>
      <point x="75" y="1271" type="line"/>
    </contour>
  </outline>
</glyph>
<glyph name="jcircumflex" format="2">
  <advance width="432"/>
  <unicode hex="0135"/>
  <outline>
    <contour>
      <point x="139" y="1464" type="line"/>
      <point x="295" y="1464" type="line"/>
      <point x="458" y="1129" type="line"/>
      <point x="368" y="1099" type="line"/>
      <point x="217" y="1302" type="line"/>
      <point x="66" y="1099" type="line"/>
      <point x="-25" y="1129" type="line"/>
    </contour>
    <contour>
      <point x="114" y="974" type="line"/>
      <point x="281" y="1004" type="line"/>
      <point x="326" y="1004" type="line"/>
      <point x="326" y="-76" type="line"/>
      <point x="326" y="-202"/>
      <point x="290" y="-362"/>
      <point x="215" y="-455"/>
      <point x="96" y="-490"/>
      <point x="13" y="-490" type="qcurve"/>
      <point x="28" y="-378" type="line"/>
      <point x="53" y="-378"/>
      <point x="86" y="-363"/>
      <point x="106" y="-323"/>
      <point x="114" y="-250"/>
      <point x="114" y="-191" type="qcurve"/>
    </contour>
  </outline>
</glyph>
<glyph name="kgreenlandic" format="2">
  <advance width="768"/>
  <unicode hex="0138"/>
  <outline>
    <contour>
      <point x="75" y="974" type="line"/>
      <point x="242" y="1004" type="line"/>
      <point x="287" y="1004" type="line"/>
      <point x="287" y="571" type="line"/>
      <point x="611" y="1004" type="line"/>
      <point x="721" y="973" type="line"/>
      <point x="470" y="638" type="line"/>
      <point x="768" y="0" type="line"/>
      <point x="551" y="-30" type="line"/>
      <point x="327" y="449" type="line"/>
      <point x="287" y="396" type="line"/>
      <point x="287" y="0" type="line"/>
      <point x="75" y="0" type="line"/>
    </contour>
  </outline>
</glyph>
<glyph name="Lslash" format="2">
  <advance width="816"/>
  <unicode hex="0141"/>
  <outline>
    <contour>
      <point x="98" y="1434" type="line"/>
      <point x="332" y="1464" type="line"/>
      <point x="332" y="936" type="line"/>
      <point x="419" y="1004" type="line"/>
      <point x="445" y="813" type="line"/>
      <point x="332" y="725" type="line"/>
      <point x="332" y="122" type="line"/>
      <point x="760" y="162" type="line"/>
      <point x="737" y="0" type="line"/>
      <point x="98" y="0" type="line"/>
      <point x="98" y="544" type="line"/>
      <point x="24" y="487" type="line"/>
      <point x="0" y="678" type="line"/>
      <point x="98" y="754" type="line"/>
    </contour>
  </outline>
</glyph>
<glyph name="lslash" format="2">
  <advance width="432"/>
  <unicode hex="0142"/>
  <outline>
    <contour>
      <point x="313" y="1494" type="line"/>
      <point x="313" y="935" type="line"/>
      <point x="402" y="1004" type="line"/>
      <point x="427" y="806" type="line"/>
      <point x="313" y="717" type="line"/>
      <point x="313" y="269" type="line"/>
      <point x="313" y="221"/>
      <point x="326" y="151"/>
      <point x="358" y="104"/>
      <point x="409" y="82"/>
      <point x="447" y="82" type="qcurve"/>
      <point x="432" y="-30" type="line"/>
      <point x="326" y="-30"/>
      <point x="196" y="13"/>
      <point x="125" y="103"/>
      <point x="101" y="244"/>
      <point x="101" y="342" type="qcurve"/>
      <point x="101" y="554" type="line"/>
      <point x="12" y="485" type="line"/>
      <point x="-13" y="683" type="line"/>
      <point x="101" y="771" type="line"/>
      <point x="101" y="1464" type="line"/>
      <point x="268" y="1494" type="line"/>
    </contour>
  </outline>
</glyph>
<glyph name="oe" format="2">
  <advance width="1368"/>
  <unicode hex="0153"/>
  <outline>
    <contour>
      <point x="1015" y="82" type="qcurve"/>
      <point x="1045" y="82"/>
      <point x="1097" y="109"/>
      <point x="1139" y="152"/>
      <point x="1174" y="206"/>
      <point x="1187" y="234" type="qcurve"/>
      <point x="1271" y="122" type="line"/>
      <point x="1250" y="90"/>
      <point x="1194" y="34"/>
      <point x="1124" y="-7"/>
      <point x="1041" y="-30"/>
      <point x="992" y="-30" type="qcurve"/>
      <point x="908" y="-30"/>
      <point x="767" y="42"/>
      <point x="719" y="108" type="qcurve"/>
      <point x="670" y="42"/>
      <point x="526" y="-30"/>
      <point x="440" y="-30" type="qcurve"/>
      <point x="353" y="-30"/>
      <point x="212" y="47"/>
      <point x="114" y="185"/>
      <point x="62" y="374"/>
      <point x="62" y="487" type="qcurve"/>
      <point x="62" y="599"/>
      <point x="114" y="789"/>
      <point x="212" y="927"/>
      <point x="353" y="1004"/>
      <point x="440" y="1004" type="qcurve"/>
      <point x="527" y="1004"/>
      <point x="671" y="929"/>
      <point x="721" y="863" type="qcurve"/>
      <point x="770" y="929"/>
      <point x="914" y="1004"/>
      <point x="1000" y="1004" type="qcurve"/>
      <point x="1054" y="1004"/>
      <point x="1163" y="949"/>
      <point x="1251" y="827"/>
      <point x="1307" y="629"/>
      <point x="1307" y="487" type="qcurve"/>
      <point x="826" y="487" type="line"/>
      <point x="826" y="371"/>
      <point x="861" y="215"/>
      <point x="917" y="121"/>
      <point x="983" y="82"/>
    </contour>
    <contour>
      <point x="440" y="892" type="qcurve"/>
      <point x="401" y="892"/>
      <point x="342" y="836"/>
      <point x="302" y="731"/>
      <point x="281" y="581"/>
      <point x="281" y="487" type="qcurve"/>
      <point x="281" y="393"/>
      <point x="302" y="243"/>
      <point x="342" y="138"/>
      <point x="401" y="82"/>
      <point x="440" y="82" type="qcurve"/>
      <point x="479" y="82"/>
      <point x="541" y="138"/>
      <point x="584" y="243"/>
      <point x="607" y="393"/>
      <point x="607" y="487" type="qcurve"/>
      <point x="607" y="581"/>
      <point x="584" y="731"/>
      <point x="541" y="836"/>
      <point x="479" y="892"/>
    </contour>
    <contour>
      <point x="992" y="892" type="qcurve"/>
      <point x="962" y="892"/>
      <point x="903" y="855"/>
      <point x="856" y="781"/>
      <point x="826" y="671"/>
      <point x="826" y="599" type="qcurve"/>
      <point x="1124" y="599" type="line"/>
      <point x="1124" y="677"/>
      <point x="1103" y="789"/>
      <point x="1067" y="859"/>
      <point x="1019" y="892"/>
    </contour>
  </outline>
</glyph>
<glyph name="Scedilla" format="2">
  <advance width="864"/>
  <unicode hex="015E"/>
  <outline>
    <contour>
      <point x="768" y="1235" type="qcurve"/>
      <point x="677" y="1113" type="line"/>
      <point x="661" y="1153"/>
      <point x="617" y="1229"/>
      <point x="563" y="1287"/>
      <point x="499" y="1322"/>
      <point x="462" y="1322" type="qcurve"/>
      <point x="437" y="1322"/>
      <point x="386" y="1296"/>
      <point x="345" y="1247"/>
      <point x="320" y="1177"/>
      <point x="320" y="1134" type="qcurve"/>
      <point x="320" y="1084"/>
      <point x="339" y="1005"/>
      <point x="386" y="938"/>
      <point x="464" y="880"/>
      <point x="523" y="852" type="qcurve"/>
      <point x="656" y="788"/>
      <point x="791" y="570"/>
      <point x="791" y="409" type="qcurve"/>
      <point x="791" y="330"/>
      <point x="748" y="187"/>
      <point x="669" y="72"/>
      <point x="557" y="-7"/>
      <point x="488" y="-22" type="qcurve"/>
      <point x="473" y="-72" type="line"/>
      <point x="491" y="-75"/>
      <point x="537" y="-102"/>
      <point x="579" y="-149"/>
      <point x="608" y="-217"/>
      <point x="608" y="-262" type="qcurve"/>
      <point x="608" y="-318"/>
      <point x="576" y="-403"/>
      <point x="520" y="-461"/>
      <point x="446" y="-490"/>
      <point x="404" y="-490" type="qcurve"/>
      <point x="367" y="-490"/>
      <point x="308" y="-467"/>
      <point x="263" y="-433"/>
      <point x="232" y="-393"/>
      <point x="222" y="-375" type="qcurve"/>
      <point x="284" y="-266" type="line"/>
      <point x="296" y="-311"/>
      <point x="338" y="-369"/>
      <point x="373" y="-369" type="qcurve"/>
      <point x="390" y="-369"/>
      <point x="421" y="-348"/>
      <point x="443" y="-313"/>
      <point x="457" y="-267"/>
      <point x="457" y="-243" type="qcurve"/>
      <point x="457" y="-204"/>
      <point x="436" y="-153"/>
      <point x="400" y="-124"/>
      <point x="353" y="-113"/>
      <point x="326" y="-113" type="qcurve"/>
      <point x="350" y="-24" type="line"/>
      <point x="302" y="-15"/>
      <point x="218" y="31"/>
      <point x="146" y="93"/>
      <point x="88" y="164"/>
      <point x="66" y="199" type="qcurve"/>
      <point x="158" y="321" type="line"/>
      <point x="179" y="278"/>
      <point x="233" y="202"/>
      <point x="296" y="145"/>
      <point x="370" y="112"/>
      <point x="410" y="112" type="qcurve"/>
      <point x="452" y="112"/>
      <point x="518" y="147"/>
      <point x="563" y="208"/>
      <point x="587" y="289"/>
      <point x="587" y="336" type="qcurve"/>
      <point x="587" y="384"/>
      <point x="561" y="468"/>
      <point x="506" y="543"/>
      <point x="420" y="608"/>
      <point x="359" y="637" type="qcurve"/>
      <point x="308" y="662"/>
      <point x="221" y="738"/>
      <point x="158" y="841"/>
      <point x="123" y="971"/>
      <point x="123" y="1051" type="qcurve"/>
      <point x="123" y="1138"/>
      <point x="174" y="1289"/>
      <point x="266" y="1400"/>
      <point x="389" y="1464"/>
      <point x="463" y="1464" type="qcurve"/>
      <point x="519" y="1464"/>
      <point x="612" y="1425"/>
      <point x="687" y="1361"/>
      <point x="746" y="1278"/>
    </contour>
  </outline>
</glyph>
<glyph name="scedilla" format="2">
  <advance width="648"/>
  <unicode hex="015F"/>
  <outline>
    <contour>
      <point x="110" y="234" type="line"/>
      <point x="130" y="187"/>
      <point x="173" y="128"/>
      <point x="217" y="94"/>
      <point x="261" y="82"/>
      <point x="283" y="82" type="qcurve"/>
      <point x="306" y="82"/>
      <point x="354" y="101"/>
      <point x="392" y="140"/>
      <point x="416" y="201"/>
      <point x="416" y="242" type="qcurve"/>
      <point x="416" y="300"/>
      <point x="346" y="378"/>
      <point x="275" y="413" type="qcurve"/>
      <point x="238" y="431"/>
      <point x="167" y="489"/>
      <point x="112" y="568"/>
      <point x="78" y="671"/>
      <point x="78" y="735" type="qcurve"/>
      <point x="78" y="797"/>
      <point x="114" y="897"/>
      <point x="179" y="967"/>
      <point x="266" y="1004"/>
      <point x="317" y="1004" type="qcurve"/>
      <point x="368" y="1004"/>
      <point x="449" y="983"/>
      <point x="517" y="944"/>
      <point x="575" y="888"/>
      <point x="602" y="852" type="qcurve"/>
      <point x="515" y="740" type="line"/>
      <point x="483" y="819"/>
      <point x="397" y="892"/>
      <point x="350" y="892" type="qcurve"/>
      <point x="335" y="892"/>
      <point x="303" y="875"/>
      <point x="277" y="840"/>
      <point x="260" y="788"/>
      <point x="260" y="753" type="qcurve"/>
      <point x="260" y="723"/>
      <point x="281" y="673"/>
      <point x="313" y="634"/>
      <point x="351" y="606"/>
      <point x="369" y="597" type="qcurve"/>
      <point x="430" y="567"/>
      <point x="518" y="499"/>
      <point x="577" y="417"/>
      <point x="605" y="319"/>
      <point x="605" y="260" type="qcurve"/>
      <point x="605" y="203"/>
      <point x="572" y="109"/>
      <point x="514" y="37"/>
      <point x="435" y="-11"/>
      <point x="390" y="-21" type="qcurve"/>
      <point x="376" y="-72" type="line"/>
      <point x="393" y="-75"/>
      <point x="440" y="-102"/>
      <point x="482" y="-149"/>
      <point x="511" y="-217"/>
      <point x="511" y="-262" type="qcurve"/>
      <point x="511" y="-318"/>
      <point x="479" y="-403"/>
      <point x="422" y="-461"/>
      <point x="348" y="-490"/>
      <point x="306" y="-490" type="qcurve"/>
      <point x="269" y="-490"/>
      <point x="211" y="-467"/>
      <point x="166" y="-433"/>
      <point x="134" y="-393"/>
      <point x="125" y="-375" type="qcurve"/>
      <point x="186" y="-266" type="line"/>
      <point x="199" y="-311"/>
      <point x="241" y="-369"/>
      <point x="275" y="-369" type="qcurve"/>
      <point x="293" y="-369"/>
      <point x="323" y="-348"/>
      <point x="346" y="-313"/>
      <point x="359" y="-267"/>
      <point x="359" y="-243" type="qcurve"/>
      <point x="359" y="-204"/>
      <point x="338" y="-153"/>
      <point x="302" y="-124"/>
      <point x="255" y="-113"/>
      <point x="229" y="-113" type="qcurve"/>
      <point x="253" y="-25" type="line"/>
      <point x="183" y="-15"/>
      <point x="74" y="56"/>
      <point x="26" y="122" type="qcurve"/>
    </contour>
  </outline>
</glyph>
<glyph name="tcommaaccent" format="2">
  <advance width="552"/>
  <unicode hex="0163"/>
  <outline>
    <contour>
      <point x="353" y="1322" type="line"/>
      <point x="353" y="1004" type="line"/>
      <point x="506" y="1004" type="line"/>
      <point x="487" y="865" type="line"/>
      <point x="353" y="873" type="line"/>
      <point x="353" y="269" type="line"/>
      <point x="353" y="221"/>
      <point x="366" y="151"/>
      <point x="398" y="104"/>
      <point x="449" y="82"/>
      <point x="487" y="82" type="qcurve"/>
      <point x="472" y="-30" type="line"/>
      <point x="440" y="-30"/>
      <point x="384" y="-26"/>
      <point x="360" y="-22" type="qcurve"/>
      <point x="346" y="-72" type="line"/>
      <point x="363" y="-75"/>
      <point x="410" y="-102"/>
      <point x="452" y="-149"/>
      <point x="481" y="-217"/>
      <point x="481" y="-262" type="qcurve"/>
      <point x="481" y="-318"/>
      <point x="449" y="-403"/>
      <point x="392" y="-461"/>
      <point x="318" y="-490"/>
      <point x="276" y="-490" type="qcurve"/>
      <point x="239" y="-490"/>
      <point x="181" y="-467"/>
      <point x="136" y="-433"/>
      <point x="104" y="-393"/>
      <point x="95" y="-375" type="qcurve"/>
      <point x="156" y="-266" type="line"/>
      <point x="169" y="-311"/>
      <point x="211" y="-369"/>
      <point x="245" y="-369" type="qcurve"/>
      <point x="263" y="-369"/>
      <point x="293" y="-348"/>
      <point x="316" y="-313"/>
      <point x="329" y="-267"/>
      <point x="329" y="-243" type="qcurve"/>
      <point x="329" y="-204"/>
      <point x="308" y="-153"/>
      <point x="272" y="-124"/>
      <point x="225" y="-113"/>
      <point x="199" y="-113" type="qcurve"/>
      <point x="236" y="24" type="line"/>
      <point x="206" y="45"/>
      <point x="170" y="105"/>
      <point x="149" y="184"/>
      <point x="141" y="282"/>
      <point x="141" y="342" type="qcurve"/>
      <point x="141" y="885" type="line"/>
      <point x="39" y="892" type="line"/>
      <point x="54" y="1004" type="line"/>
      <point x="141" y="1004" type="line"/>
      <point x="141" y="1292" type="line"/>
      <point x="308" y="1322" type="line"/>
    </contour>
  </outline>
</glyph>
<glyph name="Tbar" format="2">
  <advance width="864"/>
  <unicode hex="0166"/>
  <outline>
    <contour>
      <point x="23" y="1434" type="line"/>
      <point x="863" y="1434" type="line"/>
      <point x="842" y="1272" type="line"/>
      <point x="549" y="1312" type="line"/>
      <point x="549" y="839" type="line"/>
      <point x="746" y="839" type="line"/>
      <point x="728" y="697" type="line"/>
      <point x="549" y="697" type="line"/>
      <point x="549" y="0" type="line"/>
      <point x="315" y="0" type="line"/>
      <point x="315" y="697" type="line"/>
      <point x="122" y="697" type="line"/>
      <point x="140" y="839" type="line"/>
      <point x="315" y="839" type="line"/>
      <point x="315" y="1313" type="line"/>
      <point x="2" y="1271" type="line"/>
    </contour>
  </outline>
</glyph>
<glyph name="Uogonek" format="2">
  <advance width="1128"/>
  <unicode hex="0172"/>
  <outline>
    <contour>
      <point x="773" y="-418" type="line"/>
      <point x="754" y="-431"/>
      <point x="704" y="-450"/>
      <point x="670" y="-450" type="qcurve"/>
      <point x="625" y="-450"/>
      <point x="559" y="-415"/>
      <point x="516" y="-356"/>
      <point x="496" y="-280"/>
      <point x="496" y="-239" type="qcurve"/>
      <point x="496" y="-214"/>
      <point x="503" y="-164"/>
      <point x="522" y="-112"/>
      <point x="557" y="-58"/>
      <point x="585" y="-30" type="qcurve"/>
      <point x="485" y="-30"/>
      <point x="309" y="47"/>
      <point x="178" y="200"/>
      <point x="102" y="427"/>
      <point x="102" y="578" type="qcurve"/>
      <point x="102" y="1434" type="line"/>
      <point x="336" y="1464" type="line"/>
      <point x="336" y="500" type="line"/>
      <point x="336" y="404"/>
      <point x="387" y="259"/>
      <point x="470" y="162"/>
      <point x="573" y="112"/>
      <point x="626" y="112" type="qcurve"/>
      <point x="692" y="112"/>
      <point x="796" y="171"/>
      <point x="867" y="280"/>
      <point x="905" y="435"/>
      <point x="905" y="530" type="qcurve"/>
      <point x="905" y="1464" type="line"/>
      <point x="1026" y="1434" type="line"/>
      <point x="1026" y="568" type="line"/>
      <point x="1026" y="464"/>
      <point x="991" y="282"/>
      <point x="922" y="136"/>
      <point x="820" y="30"/>
      <point x="754" y="0" type="qcurve"/>
      <point x="714" y="-25"/>
      <point x="659" y="-77"/>
      <point x="625" y="-129"/>
      <point x="610" y="-182"/>
      <point x="610" y="-209" type="qcurve"/>
      <point x="610" y="-232"/>
      <point x="623" y="-269"/>
      <point x="644" y="-294"/>
      <point x="671" y="-308"/>
      <point x="684" y="-308" type="qcurve"/>
      <point x="707" y="-308"/>
      <point x="741" y="-284"/>
      <point x="754" y="-270" type="qcurve"/>
    </contour>
  </outline>
</glyph>
<glyph name="longs" format="2">
  <advance width="432"/>
  <unicode hex="017F"/>
  <outline>
    <contour>
      <point x="313" y="0" type="line"/>
      <point x="101" y="0" type="line"/>
      <point x="101" y="1012" type="line"/>
      <point x="101" y="1114"/>
      <point x="130" y="1281"/>
      <point x="206" y="1399"/>
      <point x="341" y="1464"/>
      <point x="447" y="1464" type="qcurve"/>
      <point x="432" y="1352" type="line"/>
      <point x="397" y="1352"/>
      <point x="351" y="1315"/>
      <point x="324" y="1252"/>
      <point x="313" y="1168"/>
      <point x="313" y="1120" type="qcurve"/>
    </contour>
  </outline>
</glyph>
<glyph name="florin" format="2">
  <advance width="768"/>
  <unicode hex="0192"/>
  <outline>
    <contour>
      <point x="268" y="735" type="line"/>
      <point x="173" y="742" type="line"/>
      <point x="188" y="852" type="line"/>
      <point x="284" y="852" type="line"/>
      <point x="311" y="1050" type="line"/>
      <point x="323" y="1145"/>
      <point x="382" y="1324"/>
      <point x="485" y="1463"/>
      <point x="641" y="1546"/>
      <point x="782" y="1546" type="qcurve"/>
      <point x="767" y="1434" type="line"/>
      <point x="713" y="1434"/>
      <point x="635" y="1375"/>
      <point x="577" y="1270"/>
      <point x="539" y="1126"/>
      <point x="528" y="1042" type="qcurve"/>
      <point x="503" y="852" type="line"/>
      <point x="658" y="852" type="line"/>
      <point x="639" y="712" type="line"/>
      <point x="486" y="722" type="line"/>
      <point x="391" y="4" type="line"/>
      <point x="377" y="-96"/>
      <point x="323" y="-275"/>
      <point x="221" y="-410"/>
      <point x="65" y="-490"/>
      <point x="-80" y="-490" type="qcurve"/>
      <point x="-65" y="-378" type="line"/>
      <point x="-12" y="-378"/>
      <point x="68" y="-321"/>
      <point x="125" y="-217"/>
      <point x="162" y="-73"/>
      <point x="173" y="14" type="qcurve"/>
    </contour>
  </outline>
</glyph>
<glyph name="uni019E" format="2">
  <advance width="840"/>
  <unicode hex="019E"/>
  <outline>
    <contour>
      <point x="75" y="944" type="line"/>
      <point x="242" y="974" type="line"/>
      <point x="287" y="974" type="line"/>
      <point x="287" y="892" type="line"/>
      <point x="306" y="914"/>
      <point x="354" y="955"/>
      <point x="408" y="986"/>
      <point x="465" y="1004"/>
      <point x="494" y="1004" type="qcurve"/>
      <point x="555" y="1004"/>
      <point x="653" y="960"/>
      <point x="722" y="877"/>
      <point x="759" y="757"/>
      <point x="759" y="680" type="qcurve"/>
      <point x="759" y="-460" type="line"/>
      <point x="593" y="-490" type="line"/>
      <point x="548" y="-490" type="line"/>
      <point x="548" y="724" type="line"/>
      <point x="548" y="802"/>
      <point x="498" y="892"/>
      <point x="448" y="892" type="qcurve"/>
      <point x="423" y="892"/>
      <point x="374" y="868"/>
      <point x="331" y="832"/>
      <point x="296" y="789"/>
      <point x="287" y="770" type="qcurve"/>
      <point x="287" y="0" type="line"/>
      <point x="75" y="0" type="line"/>
    </contour>
  </outline>
</glyph>
<glyph name="uni0251" format="2">
  <advance width="840"/>
  <unicode hex="0251"/>
  <outline>
    <contour>
      <point x="765" y="1004" type="line"/>
      <point x="765" y="156" type="line"/>
      <point x="765" y="120"/>
      <point x="788" y="82"/>
      <point x="819" y="82" type="qcurve"/>
      <point x="804" y="-30" type="line"/>
      <point x="755" y="-30"/>
      <point x="682" y="-20"/>
      <point x="627" y="4"/>
      <point x="589" y="43"/>
      <point x="576" y="72" type="qcurve"/>
      <point x="546" y="21"/>
      <point x="453" y="-30"/>
      <point x="400" y="-30" type="qcurve"/>
      <point x="327" y="-30"/>
      <point x="197" y="41"/>
      <point x="99" y="174"/>
      <point x="42" y="366"/>
      <point x="42" y="487" type="qcurve"/>
      <point x="42" y="602"/>
      <point x="98" y="792"/>
      <point x="194" y="929"/>
      <point x="326" y="1004"/>
      <point x="401" y="1004" type="qcurve"/>
      <point x="423" y="1004"/>
      <point x="472" y="992"/>
      <point x="518" y="972"/>
      <point x="560" y="947"/>
      <point x="576" y="934" type="qcurve"/>
      <point x="720" y="1004" type="line"/>
    </contour>
    <contour>
      <point x="554" y="811" type="line"/>
      <point x="528" y="848"/>
      <point x="467" y="892"/>
      <point x="422" y="892" type="qcurve"/>
      <point x="382" y="892"/>
      <point x="322" y="834"/>
      <point x="281" y="728"/>
      <point x="261" y="578"/>
      <point x="261" y="487" type="qcurve"/>
      <point x="261" y="382"/>
      <point x="286" y="230"/>
      <point x="329" y="130"/>
      <point x="388" y="82"/>
      <point x="422" y="82" type="qcurve"/>
      <point x="447" y="82"/>
      <point x="488" y="99"/>
      <point x="519" y="126"/>
      <point x="544" y="157"/>
      <point x="554" y="172" type="qcurve"/>
    </contour>
  </outline>
</glyph>
<glyph name="uni0252" format="2">
  <advance width="840"/>
  <unicode hex="0252"/>
  <outline>
    <contour>
      <point x="35" y="1004" type="line"/>
      <point x="83" y="1004"/>
      <point x="157" y="994"/>
      <point x="212" y="970"/>
      <point x="250" y="931"/>
      <point x="263" y="902" type="qcurve"/>
      <point x="293" y="953"/>
      <point x="386" y="1004"/>
      <point x="439" y="1004" type="qcurve"/>
      <point x="512" y="1004"/>
      <point x="641" y="933"/>
      <point x="740" y="800"/>
      <point x="797" y="608"/>
      <point x="797" y="487" type="qcurve"/>
      <point x="797" y="372"/>
      <point x="741" y="182"/>
      <point x="644" y="45"/>
      <point x="513" y="-30"/>
      <point x="438" y="-30" type="qcurve"/>
      <point x="416" y="-30"/>
      <point x="367" y="-18"/>
      <point x="320" y="2"/>
      <point x="278" y="27"/>
      <point x="263" y="40" type="qcurve"/>
      <point x="263" y="0" type="line"/>
      <point x="74" y="0" type="line"/>
      <point x="74" y="818" type="line"/>
      <point x="74" y="854"/>
      <point x="51" y="892"/>
      <point x="20" y="892" type="qcurve"/>
    </contour>
    <contour>
      <point x="285" y="802" type="qcurve"/>
      <point x="285" y="163" type="line"/>
      <point x="311" y="126"/>
      <point x="372" y="82"/>
      <point x="417" y="82" type="qcurve"/>
      <point x="457" y="82"/>
      <point x="517" y="140"/>
      <point x="557" y="246"/>
      <point x="578" y="395"/>
      <point x="578" y="487" type="qcurve"/>
      <point x="578" y="588"/>
      <point x="555" y="740"/>
      <point x="513" y="841"/>
      <point x="454" y="892"/>
      <point x="417" y="892" type="qcurve"/>
      <point x="392" y="892"/>
      <point x="351" y="875"/>
      <point x="320" y="848"/>
      <point x="295" y="817"/>
    </contour>
  </outline>
</glyph>
<glyph name="uni0256" format="2">
  <advance width="840"/>
  <unicode hex="0256"/>
  <outline>
    <contour>
      <point x="765" y="1494" type="line"/>
      <point x="765" y="-191" type="line"/>
      <point x="765" y="-249"/>
      <point x="773" y="-318"/>
      <point x="800" y="-363"/>
      <point x="834" y="-378"/>
      <point x="866" y="-378" type="qcurve"/>
      <point x="851" y="-490" type="line"/>
      <point x="773" y="-490"/>
      <point x="670" y="-453"/>
      <point x="590" y="-360"/>
      <point x="554" y="-198"/>
      <point x="554" y="-76" type="qcurve"/>
      <point x="554" y="50" type="line"/>
      <point x="522" y="12"/>
      <point x="437" y="-30"/>
      <point x="392" y="-30" type="qcurve"/>
      <point x="320" y="-30"/>
      <point x="192" y="41"/>
      <point x="97" y="174"/>
      <point x="42" y="366"/>
      <point x="42" y="487" type="qcurve"/>
      <point x="42" y="602"/>
      <point x="95" y="792"/>
      <point x="190" y="929"/>
      <point x="318" y="1004"/>
      <point x="393" y="1004" type="qcurve"/>
      <point x="416" y="1004"/>
      <point x="464" y="988"/>
      <point x="509" y="966"/>
      <point x="545" y="941"/>
      <point x="554" y="931" type="qcurve"/>
      <point x="554" y="1464" type="line"/>
      <point x="720" y="1494" type="line"/>
    </contour>
    <contour>
      <point x="554" y="821" type="line"/>
      <point x="534" y="852"/>
      <point x="474" y="892"/>
      <point x="429" y="892" type="qcurve"/>
      <point x="392" y="892"/>
      <point x="330" y="834"/>
      <point x="286" y="728"/>
      <point x="261" y="578"/>
      <point x="261" y="487" type="qcurve"/>
      <point x="261" y="386"/>
      <point x="290" y="234"/>
      <point x="338" y="133"/>
      <point x="398" y="82"/>
      <point x="429" y="82" type="qcurve"/>
      <point x="475" y="82"/>
      <point x="534" y="123"/>
      <point x="554" y="152" type="qcurve"/>
    </contour>
  </outline>
</glyph>
<glyph name="uni025A" format="2">
  <advance width="1080"/>
  <unicode hex="025A"/>
  <outline>
    <contour>
      <point x="333" y="892" type="qcurve"/>
      <point x="303" y="892"/>
      <point x="251" y="865"/>
      <point x="209" y="822"/>
      <point x="175" y="768"/>
      <point x="162" y="740" type="qcurve"/>
      <point x="77" y="852" type="line"/>
      <point x="99" y="884"/>
      <point x="155" y="940"/>
      <point x="224" y="981"/>
      <point x="306" y="1004"/>
      <point x="356" y="1004" type="qcurve"/>
      <point x="449" y="1004"/>
      <point x="593" y="915"/>
      <point x="641" y="836" type="qcurve"/>
      <point x="859" y="1038" type="line"/>
      <point x="884" y="974" type="line"/>
      <point x="862" y="935"/>
      <point x="836" y="872"/>
      <point x="823" y="821"/>
      <point x="818" y="780"/>
      <point x="818" y="762" type="qcurve"/>
      <point x="818" y="739"/>
      <point x="826" y="695"/>
      <point x="843" y="660"/>
      <point x="871" y="639"/>
      <point x="891" y="639" type="qcurve"/>
      <point x="909" y="639"/>
      <point x="940" y="654"/>
      <point x="962" y="680"/>
      <point x="975" y="717"/>
      <point x="975" y="740" type="qcurve"/>
      <point x="1057" y="788" type="line"/>
      <point x="1058" y="777"/>
      <point x="1063" y="743"/>
      <point x="1063" y="726" type="qcurve"/>
      <point x="1063" y="678"/>
      <point x="1037" y="595"/>
      <point x="992" y="533"/>
      <point x="933" y="498"/>
      <point x="899" y="498" type="qcurve"/>
      <point x="866" y="498"/>
      <point x="806" y="532"/>
      <point x="761" y="591"/>
      <point x="734" y="670"/>
      <point x="734" y="716" type="qcurve"/>
      <point x="734" y="719"/>
      <point x="735" y="735"/>
      <point x="737" y="753"/>
      <point x="740" y="770"/>
      <point x="741" y="775" type="qcurve"/>
      <point x="690" y="728" type="line"/>
      <point x="707" y="674"/>
      <point x="726" y="554"/>
      <point x="726" y="487" type="qcurve"/>
      <point x="726" y="374"/>
      <point x="673" y="185"/>
      <point x="574" y="47"/>
      <point x="434" y="-30"/>
      <point x="348" y="-30" type="qcurve"/>
      <point x="305" y="-30"/>
      <point x="217" y="5"/>
      <point x="139" y="82"/>
      <point x="77" y="204"/>
      <point x="59" y="291" type="qcurve"/>
      <point x="494" y="699" type="line"/>
      <point x="482" y="753"/>
      <point x="446" y="826"/>
      <point x="403" y="872"/>
      <point x="356" y="892"/>
    </contour>
    <contour>
      <point x="356" y="82" type="qcurve"/>
      <point x="398" y="82"/>
      <point x="460" y="137"/>
      <point x="500" y="232"/>
      <point x="519" y="359"/>
      <point x="519" y="432" type="qcurve"/>
      <point x="519" y="464"/>
      <point x="516" y="540"/>
      <point x="514" y="563" type="qcurve"/>
      <point x="227" y="295" type="line"/>
      <point x="227" y="269"/>
      <point x="241" y="197"/>
      <point x="272" y="129"/>
      <point x="321" y="82"/>
    </contour>
  </outline>
</glyph>
<glyph name="uni025B" format="2">
  <advance width="648"/>
  <unicode hex="025B"/>
  <outline>
    <contour>
      <point x="45" y="279" type="qcurve"/>
      <point x="45" y="342"/>
      <point x="70" y="432"/>
      <point x="111" y="495"/>
      <point x="165" y="536"/>
      <point x="195" y="551" type="qcurve"/>
      <point x="179" y="563"/>
      <point x="143" y="604"/>
      <point x="113" y="659"/>
      <point x="92" y="727"/>
      <point x="92" y="766" type="qcurve"/>
      <point x="92" y="818"/>
      <point x="126" y="906"/>
      <point x="189" y="969"/>
      <point x="281" y="1004"/>
      <point x="339" y="1004" type="qcurve"/>
      <point x="386" y="1004"/>
      <point x="467" y="976"/>
      <point x="532" y="932"/>
      <point x="583" y="878"/>
      <point x="602" y="852" type="qcurve"/>
      <point x="517" y="740" type="line"/>
      <point x="503" y="773"/>
      <point x="470" y="828"/>
      <point x="434" y="869"/>
      <point x="392" y="892"/>
      <point x="371" y="892" type="qcurve"/>
      <point x="326" y="892"/>
      <point x="281" y="818"/>
      <point x="281" y="761" type="qcurve"/>
      <point x="281" y="733"/>
      <point x="299" y="676"/>
      <point x="337" y="629"/>
      <point x="400" y="599"/>
      <point x="445" y="599" type="qcurve"/>
      <point x="430" y="487" type="line"/>
      <point x="381" y="487"/>
      <point x="312" y="455"/>
      <point x="269" y="397"/>
      <point x="249" y="318"/>
      <point x="249" y="271" type="qcurve"/>
      <point x="249" y="226"/>
      <point x="272" y="156"/>
      <point x="310" y="107"/>
      <point x="358" y="82"/>
      <point x="382" y="82" type="qcurve"/>
      <point x="410" y="82"/>
      <point x="458" y="108"/>
      <point x="500" y="150"/>
      <point x="533" y="205"/>
      <point x="547" y="234" type="qcurve"/>
      <point x="632" y="122" type="line"/>
      <point x="611" y="92"/>
      <point x="557" y="37"/>
      <point x="494" y="-5"/>
      <point x="419" y="-30"/>
      <point x="379" y="-30" type="qcurve"/>
      <point x="308" y="-30"/>
      <point x="185" y="18"/>
      <point x="96" y="101"/>
      <point x="45" y="214"/>
    </contour>
  </outline>
</glyph>
<glyph name="uni025C" format="2">
  <advance width="648"/>
  <unicode hex="025C"/>
  <outline>
    <contour>
      <point x="609" y="279" type="qcurve"/>
      <point x="609" y="214"/>
      <point x="558" y="101"/>
      <point x="469" y="18"/>
      <point x="347" y="-30"/>
      <point x="275" y="-30" type="qcurve"/>
      <point x="235" y="-30"/>
      <point x="161" y="-5"/>
      <point x="97" y="37"/>
      <point x="43" y="92"/>
      <point x="23" y="122" type="qcurve"/>
      <point x="107" y="234" type="line"/>
      <point x="121" y="205"/>
      <point x="155" y="150"/>
      <point x="196" y="108"/>
      <point x="244" y="82"/>
      <point x="272" y="82" type="qcurve"/>
      <point x="296" y="82"/>
      <point x="344" y="107"/>
      <point x="382" y="156"/>
      <point x="405" y="226"/>
      <point x="405" y="271" type="qcurve"/>
      <point x="405" y="318"/>
      <point x="384" y="397"/>
      <point x="343" y="455"/>
      <point x="283" y="487"/>
      <point x="245" y="487" type="qcurve"/>
      <point x="209" y="487" type="line"/>
      <point x="224" y="599" type="line"/>
      <point x="264" y="599"/>
      <point x="320" y="629"/>
      <point x="356" y="676"/>
      <point x="373" y="733"/>
      <point x="373" y="761" type="qcurve"/>
      <point x="373" y="789"/>
      <point x="362" y="837"/>
      <point x="339" y="872"/>
      <point x="305" y="892"/>
      <point x="283" y="892" type="qcurve"/>
      <point x="262" y="892"/>
      <point x="221" y="869"/>
      <point x="184" y="828"/>
      <point x="151" y="773"/>
      <point x="137" y="740" type="qcurve"/>
      <point x="53" y="852" type="line"/>
      <point x="71" y="878"/>
      <point x="122" y="932"/>
      <point x="188" y="976"/>
      <point x="268" y="1004"/>
      <point x="315" y="1004" type="qcurve"/>
      <point x="374" y="1004"/>
      <point x="465" y="969"/>
      <point x="528" y="906"/>
      <point x="562" y="818"/>
      <point x="562" y="766" type="qcurve"/>
      <point x="562" y="727"/>
      <point x="542" y="659"/>
      <point x="511" y="604"/>
      <point x="475" y="563"/>
      <point x="459" y="551" type="qcurve"/>
      <point x="489" y="536"/>
      <point x="543" y="495"/>
      <point x="584" y="432"/>
      <point x="609" y="342"/>
    </contour>
  </outline>
</glyph>
<glyph name="uni025E" format="2">
  <advance width="840"/>
  <unicode hex="025E"/>
  <outline>
    <contour>
      <point x="458" y="1004" type="qcurve"/>
      <point x="536" y="1004"/>
      <point x="662" y="963"/>
      <point x="750" y="887"/>
      <point x="798" y="779"/>
      <point x="798" y="713" type="qcurve"/>
      <point x="798" y="681"/>
      <point x="788" y="615"/>
      <point x="762" y="555"/>
      <point x="716" y="504"/>
      <point x="680" y="487" type="qcurve"/>
      <point x="716" y="469"/>
      <point x="762" y="417"/>
      <point x="788" y="357"/>
      <point x="798" y="291"/>
      <point x="798" y="260" type="qcurve"/>
      <point x="798" y="194"/>
      <point x="750" y="87"/>
      <point x="662" y="11"/>
      <point x="536" y="-30"/>
      <point x="458" y="-30" type="qcurve"/>
      <point x="382" y="-30"/>
      <point x="233" y="37"/>
      <point x="115" y="168"/>
      <point x="42" y="361"/>
      <point x="42" y="487" type="qcurve"/>
      <point x="42" y="612"/>
      <point x="115" y="805"/>
      <point x="233" y="936"/>
      <point x="382" y="1004"/>
    </contour>
    <contour>
      <point x="435" y="542" type="line"/>
      <point x="506" y="542" type="line"/>
      <point x="550" y="542"/>
      <point x="614" y="550"/>
      <point x="656" y="573"/>
      <point x="677" y="617"/>
      <point x="677" y="653" type="qcurve"/>
      <point x="677" y="709"/>
      <point x="570" y="752"/>
      <point x="458" y="752" type="qcurve"/>
      <point x="315" y="752"/>
      <point x="164" y="621"/>
      <point x="164" y="487" type="qcurve"/>
      <point x="164" y="353"/>
      <point x="315" y="222"/>
      <point x="458" y="222" type="qcurve"/>
      <point x="569" y="222"/>
      <point x="677" y="264"/>
      <point x="677" y="320" type="qcurve"/>
      <point x="677" y="354"/>
      <point x="656" y="397"/>
      <point x="614" y="421"/>
      <point x="550" y="430"/>
      <point x="506" y="430" type="qcurve"/>
      <point x="420" y="430" type="line"/>
    </contour>
  </outline>
</glyph>
<glyph name="uni025F" format="2">
  <advance width="432"/>
  <unicode hex="025F"/>
  <outline>
    <contour>
      <point x="27" y="599" type="line"/>
      <point x="114" y="599" type="line"/>
      <point x="114" y="974" type="line"/>
      <point x="281" y="1004" type="line"/>
      <point x="326" y="1004" type="line"/>
      <point x="326" y="599" type="line"/>
      <point x="428" y="599" type="line"/>
      <point x="409" y="460" type="line"/>
      <point x="326" y="466" type="line"/>
      <point x="326" y="-76" type="line"/>
      <point x="326" y="-202"/>
      <point x="290" y="-362"/>
      <point x="215" y="-455"/>
      <point x="96" y="-490"/>
      <point x="13" y="-490" type="qcurve"/>
      <point x="28" y="-378" type="line"/>
      <point x="53" y="-378"/>
      <point x="86" y="-363"/>
      <point x="106" y="-323"/>
      <point x="114" y="-250"/>
      <point x="114" y="-191" type="qcurve"/>
      <point x="114" y="479" type="line"/>
      <point x="12" y="487" type="line"/>
    </contour>
  </outline>
</glyph>
<glyph name="uni0261" format="2">
  <advance width="840"/>
  <unicode hex="0261"/>
  <outline>
    <contour>
      <point x="393" y="1004" type="qcurve"/>
      <point x="429" y="1004"/>
      <point x="503" y="983"/>
      <point x="590" y="937"/>
      <point x="696" y="865"/>
      <point x="765" y="813" type="qcurve"/>
      <point x="765" y="49" type="line"/>
      <point x="765" y="-80"/>
      <point x="713" y="-271"/>
      <point x="616" y="-398"/>
      <point x="481" y="-460"/>
      <point x="398" y="-460" type="qcurve"/>
      <point x="175" y="-460" type="line"/>
      <point x="192" y="-328" type="line"/>
      <point x="391" y="-328" type="line"/>
      <point x="425" y="-328"/>
      <point x="485" y="-309"/>
      <point x="529" y="-248"/>
      <point x="554" y="-135"/>
      <point x="554" y="-40" type="qcurve"/>
      <point x="554" y="80" type="line"/>
      <point x="522" y="42"/>
      <point x="437" y="0"/>
      <point x="392" y="0" type="qcurve"/>
      <point x="320" y="0"/>
      <point x="192" y="61"/>
      <point x="97" y="183"/>
      <point x="42" y="365"/>
      <point x="42" y="487" type="qcurve"/>
      <point x="42" y="602"/>
      <point x="95" y="792"/>
      <point x="190" y="929"/>
      <point x="318" y="1004"/>
    </contour>
    <contour>
      <point x="554" y="821" type="line"/>
      <point x="545" y="833"/>
      <point x="521" y="858"/>
      <point x="490" y="879"/>
      <point x="452" y="892"/>
      <point x="429" y="892" type="qcurve"/>
      <point x="392" y="892"/>
      <point x="330" y="834"/>
      <point x="286" y="728"/>
      <point x="261" y="578"/>
      <point x="261" y="487" type="qcurve"/>
      <point x="261" y="386"/>
      <point x="290" y="244"/>
      <point x="338" y="154"/>
      <point x="398" y="112"/>
      <point x="429" y="112" type="qcurve"/>
      <point x="475" y="112"/>
      <point x="534" y="153"/>
      <point x="554" y="182" type="qcurve"/>
    </contour>
  </outline>
</glyph>
<glyph name="uni0264" format="2">
  <advance width="768"/>
  <unicode hex="0264"/>
  <outline>
    <contour>
      <point x="437" y="780" type="qcurve"/>
      <point x="461" y="849"/>
      <point x="522" y="937"/>
      <point x="594" y="986"/>
      <point x="677" y="1004"/>
      <point x="722" y="1004" type="qcurve"/>
      <point x="707" y="892" type="line"/>
      <point x="689" y="892"/>
      <point x="641" y="877"/>
      <point x="592" y="834"/>
      <point x="542" y="755"/>
      <point x="521" y="691" type="qcurve"/>
      <point x="500" y="625" type="line"/>
      <point x="525" y="563"/>
      <point x="574" y="442"/>
      <point x="611" y="334"/>
      <point x="635" y="243"/>
      <point x="635" y="213" type="qcurve"/>
      <point x="635" y="161"/>
      <point x="606" y="72"/>
      <point x="552" y="7"/>
      <point x="473" y="-30"/>
      <point x="422" y="-30" type="qcurve"/>
      <point x="324" y="-30"/>
      <point x="228" y="84"/>
      <point x="228" y="188" type="qcurve"/>
      <point x="228" y="229"/>
      <point x="273" y="376"/>
      <point x="320" y="490" type="qcurve"/>
      <point x="250" y="691" type="line"/>
      <point x="230" y="747"/>
      <point x="191" y="824"/>
      <point x="144" y="871"/>
      <point x="86" y="892"/>
      <point x="47" y="892" type="qcurve"/>
      <point x="62" y="1004" type="line"/>
      <point x="127" y="1004"/>
      <point x="239" y="994"/>
      <point x="332" y="949"/>
      <point x="407" y="859"/>
    </contour>
    <contour>
      <point x="380" y="346" type="qcurve"/>
      <point x="372" y="326"/>
      <point x="354" y="282"/>
      <point x="338" y="237"/>
      <point x="327" y="194"/>
      <point x="327" y="175" type="qcurve"/>
      <point x="327" y="133"/>
      <point x="359" y="82"/>
      <point x="388" y="82" type="qcurve"/>
      <point x="413" y="82"/>
      <point x="446" y="122"/>
      <point x="446" y="164" type="qcurve"/>
      <point x="446" y="179"/>
      <point x="432" y="225"/>
      <point x="413" y="276"/>
      <point x="390" y="326"/>
    </contour>
  </outline>
</glyph>
<glyph name="uni0265" format="2">
  <advance width="840"/>
  <unicode hex="0265"/>
  <outline>
    <contour>
      <point x="548" y="974" type="line"/>
      <point x="714" y="1004" type="line"/>
      <point x="759" y="1004" type="line"/>
      <point x="759" y="-460" type="line"/>
      <point x="593" y="-490" type="line"/>
      <point x="548" y="-490" type="line"/>
      <point x="548" y="49" type="line"/>
      <point x="508" y="11"/>
      <point x="406" y="-30"/>
      <point x="347" y="-30" type="qcurve"/>
      <point x="287" y="-30"/>
      <point x="186" y="14"/>
      <point x="114" y="97"/>
      <point x="75" y="217"/>
      <point x="75" y="294" type="qcurve"/>
      <point x="75" y="802" type="line"/>
      <point x="75" y="850"/>
      <point x="54" y="892"/>
      <point x="21" y="892" type="qcurve"/>
      <point x="36" y="1004" type="line"/>
      <point x="107" y="1004"/>
      <point x="203" y="962"/>
      <point x="262" y="888"/>
      <point x="287" y="787"/>
      <point x="287" y="727" type="qcurve"/>
      <point x="287" y="250" type="line"/>
      <point x="287" y="211"/>
      <point x="308" y="149"/>
      <point x="341" y="106"/>
      <point x="382" y="82"/>
      <point x="401" y="82" type="qcurve"/>
      <point x="426" y="82"/>
      <point x="470" y="99"/>
      <point x="507" y="128"/>
      <point x="537" y="163"/>
      <point x="548" y="181" type="qcurve"/>
    </contour>
  </outline>
</glyph>
<glyph name="uni0267" format="2">
  <advance width="840"/>
  <unicode hex="0267"/>
  <outline>
    <contour>
      <point x="388" y="1464" type="qcurve"/>
      <point x="373" y="1352" type="line"/>
      <point x="348" y="1352"/>
      <point x="314" y="1337"/>
      <point x="295" y="1297"/>
      <point x="287" y="1223"/>
      <point x="287" y="1165" type="qcurve"/>
      <point x="287" y="925" type="line"/>
      <point x="327" y="963"/>
      <point x="428" y="1004"/>
      <point x="487" y="1004" type="qcurve"/>
      <point x="548" y="1004"/>
      <point x="648" y="960"/>
      <point x="720" y="877"/>
      <point x="759" y="756"/>
      <point x="759" y="680" type="qcurve"/>
      <point x="759" y="-76" type="line"/>
      <point x="759" y="-198"/>
      <point x="725" y="-358"/>
      <point x="652" y="-452"/>
      <point x="539" y="-490"/>
      <point x="446" y="-490" type="qcurve"/>
      <point x="461" y="-378" type="line"/>
      <point x="486" y="-378"/>
      <point x="520" y="-363"/>
      <point x="540" y="-322"/>
      <point x="548" y="-249"/>
      <point x="548" y="-191" type="qcurve"/>
      <point x="548" y="724" type="line"/>
      <point x="548" y="763"/>
      <point x="527" y="825"/>
      <point x="493" y="868"/>
      <point x="452" y="892"/>
      <point x="433" y="892" type="qcurve"/>
      <point x="408" y="892"/>
      <point x="365" y="875"/>
      <point x="327" y="846"/>
      <point x="297" y="811"/>
      <point x="287" y="793" type="qcurve"/>
      <point x="287" y="0" type="line"/>
      <point x="75" y="0" type="line"/>
      <point x="75" y="1050" type="line"/>
      <point x="75" y="1176"/>
      <point x="110" y="1336"/>
      <point x="185" y="1429"/>
      <point x="305" y="1464"/>
    </contour>
  </outline>
</glyph>
<glyph name="uni0268" format="2">
  <advance width="432"/>
  <unicode hex="0268"/>
  <outline>
    <contour>
      <point x="110" y="974" type="line"/>
      <point x="277" y="1004" type="line"/>
      <point x="322" y="1004" type="line"/>
      <point x="322" y="599" type="line"/>
      <point x="424" y="599" type="line"/>
      <point x="405" y="460" type="line"/>
      <point x="322" y="465" type="line"/>
      <point x="322" y="0" type="line"/>
      <point x="110" y="0" type="line"/>
      <point x="110" y="480" type="line"/>
      <point x="8" y="487" type="line"/>
      <point x="23" y="599" type="line"/>
      <point x="110" y="599" type="line"/>
    </contour>
    <contour>
      <point x="107" y="1318" type="qcurve"/>
      <point x="107" y="1348"/>
      <point x="124" y="1402"/>
      <point x="153" y="1441"/>
      <point x="194" y="1464"/>
      <point x="216" y="1464" type="qcurve"/>
      <point x="239" y="1464"/>
      <point x="279" y="1441"/>
      <point x="308" y="1402"/>
      <point x="326" y="1348"/>
      <point x="326" y="1318" type="qcurve"/>
      <point x="326" y="1288"/>
      <point x="308" y="1234"/>
      <point x="279" y="1195"/>
      <point x="239" y="1172"/>
      <point x="216" y="1172" type="qcurve"/>
      <point x="194" y="1172"/>
      <point x="153" y="1195"/>
      <point x="124" y="1234"/>
      <point x="107" y="1288"/>
    </contour>
  </outline>
</glyph>
<glyph name="uni026A" format="2">
  <advance width="432"/>
  <unicode hex="026A"/>
  <outline>
    <contour>
      <point x="110" y="974" type="line"/>
      <point x="277" y="1004" type="line"/>
      <point x="322" y="1004" type="line"/>
      <point x="322" y="164" type="line"/>
      <point x="322" y="148"/>
      <point x="324" y="118"/>
      <point x="335" y="96"/>
      <point x="356" y="82"/>
      <point x="376" y="82" type="qcurve"/>
      <point x="361" y="-30" type="line"/>
      <point x="294" y="-30"/>
      <point x="200" y="2"/>
      <point x="139" y="69"/>
      <point x="110" y="173"/>
      <point x="110" y="245" type="qcurve"/>
    </contour>
  </outline>
</glyph>
<glyph name="uni026B" format="2">
  <advance width="552"/>
  <unicode hex="026B"/>
  <outline>
    <contour>
      <point x="170" y="1464" type="line"/>
      <point x="337" y="1494" type="line"/>
      <point x="382" y="1494" type="line"/>
      <point x="382" y="864" type="line"/>
      <point x="420" y="864"/>
      <point x="461" y="944"/>
      <point x="461" y="1004" type="qcurve"/>
      <point x="552" y="1004" type="line"/>
      <point x="552" y="935"/>
      <point x="527" y="826"/>
      <point x="482" y="751"/>
      <point x="419" y="712"/>
      <point x="382" y="712" type="qcurve"/>
      <point x="382" y="154" type="line"/>
      <point x="382" y="140"/>
      <point x="386" y="114"/>
      <point x="397" y="94"/>
      <point x="418" y="82"/>
      <point x="436" y="82" type="qcurve"/>
      <point x="421" y="-30" type="line"/>
      <point x="354" y="-30"/>
      <point x="260" y="2"/>
      <point x="199" y="69"/>
      <point x="170" y="173"/>
      <point x="170" y="245" type="qcurve"/>
      <point x="170" y="852" type="line"/>
      <point x="132" y="852"/>
      <point x="92" y="772"/>
      <point x="92" y="712" type="qcurve"/>
      <point x="0" y="712" type="line"/>
      <point x="0" y="781"/>
      <point x="26" y="890"/>
      <point x="71" y="965"/>
      <point x="133" y="1004"/>
      <point x="170" y="1004" type="qcurve"/>
    </contour>
  </outline>
</glyph>
<glyph name="uni026F" format="2">
  <advance width="1248"/>
  <unicode hex="026F"/>
  <outline>
    <contour>
      <point x="512" y="974" type="line"/>
      <point x="679" y="1004" type="line"/>
      <point x="724" y="1004" type="line"/>
      <point x="724" y="233" type="line"/>
      <point x="724" y="191"/>
      <point x="740" y="134"/>
      <point x="765" y="98"/>
      <point x="796" y="82"/>
      <point x="811" y="82" type="qcurve"/>
      <point x="830" y="82"/>
      <point x="868" y="102"/>
      <point x="905" y="136"/>
      <point x="937" y="180"/>
      <point x="950" y="204" type="qcurve"/>
      <point x="950" y="974" type="line"/>
      <point x="1116" y="1004" type="line"/>
      <point x="1161" y="1004" type="line"/>
      <point x="1161" y="0" type="line"/>
      <point x="950" y="0" type="line"/>
      <point x="950" y="81" type="line"/>
      <point x="932" y="58"/>
      <point x="889" y="18"/>
      <point x="840" y="-12"/>
      <point x="787" y="-30"/>
      <point x="759" y="-30" type="qcurve"/>
      <point x="684" y="-30"/>
      <point x="575" y="50"/>
      <point x="545" y="122" type="qcurve"/>
      <point x="523" y="92"/>
      <point x="475" y="37"/>
      <point x="421" y="-5"/>
      <point x="358" y="-30"/>
      <point x="322" y="-30" type="qcurve"/>
      <point x="275" y="-30"/>
      <point x="185" y="7"/>
      <point x="117" y="83"/>
      <point x="75" y="197"/>
      <point x="75" y="275" type="qcurve"/>
      <point x="75" y="801" type="line"/>
      <point x="75" y="849"/>
      <point x="54" y="892"/>
      <point x="21" y="892" type="qcurve"/>
      <point x="36" y="1004" type="line"/>
      <point x="165" y="1004"/>
      <point x="287" y="864"/>
      <point x="287" y="727" type="qcurve"/>
      <point x="287" y="234" type="line"/>
      <point x="287" y="192"/>
      <point x="302" y="134"/>
      <point x="328" y="98"/>
      <point x="359" y="82"/>
      <point x="374" y="82" type="qcurve"/>
      <point x="394" y="82"/>
      <point x="432" y="103"/>
      <point x="468" y="137"/>
      <point x="500" y="182"/>
      <point x="512" y="205" type="qcurve"/>
    </contour>
  </outline>
</glyph>
<glyph name="uni0271" format="2">
  <advance width="1248"/>
  <unicode hex="0271"/>
  <outline>
    <contour>
      <point x="75" y="944" type="line"/>
      <point x="242" y="974" type="line"/>
      <point x="287" y="974" type="line"/>
      <point x="287" y="893" type="line"/>
      <point x="304" y="915"/>
      <point x="347" y="956"/>
      <point x="396" y="986"/>
      <point x="449" y="1004"/>
      <point x="477" y="1004" type="qcurve"/>
      <point x="552" y="1004"/>
      <point x="662" y="924"/>
      <point x="692" y="852" type="qcurve"/>
      <point x="713" y="882"/>
      <point x="761" y="937"/>
      <point x="815" y="979"/>
      <point x="878" y="1004"/>
      <point x="914" y="1004" type="qcurve"/>
      <point x="962" y="1004"/>
      <point x="1051" y="967"/>
      <point x="1119" y="891"/>
      <point x="1161" y="777"/>
      <point x="1161" y="699" type="qcurve"/>
      <point x="1161" y="-76" type="line"/>
      <point x="1161" y="-198"/>
      <point x="1128" y="-358"/>
      <point x="1054" y="-452"/>
      <point x="935" y="-490"/>
      <point x="848" y="-490" type="qcurve"/>
      <point x="863" y="-378" type="line"/>
      <point x="888" y="-378"/>
      <point x="922" y="-363"/>
      <point x="941" y="-322"/>
      <point x="950" y="-249"/>
      <point x="950" y="-191" type="qcurve"/>
      <point x="950" y="740" type="line"/>
      <point x="950" y="782"/>
      <point x="934" y="840"/>
      <point x="908" y="876"/>
      <point x="877" y="892"/>
      <point x="862" y="892" type="qcurve"/>
      <point x="842" y="892"/>
      <point x="804" y="871"/>
      <point x="768" y="836"/>
      <point x="737" y="792"/>
      <point x="724" y="769" type="qcurve"/>
      <point x="724" y="0" type="line"/>
      <point x="512" y="0" type="line"/>
      <point x="512" y="741" type="line"/>
      <point x="512" y="783"/>
      <point x="496" y="840"/>
      <point x="471" y="876"/>
      <point x="440" y="892"/>
      <point x="425" y="892" type="qcurve"/>
      <point x="407" y="892"/>
      <point x="368" y="872"/>
      <point x="332" y="838"/>
      <point x="299" y="794"/>
      <point x="287" y="770" type="qcurve"/>
      <point x="287" y="0" type="line"/>
      <point x="75" y="0" type="line"/>
    </contour>
  </outline>
</glyph>
<glyph name="uni0274" format="2">
  <advance width="840"/>
  <unicode hex="0274"/>
  <outline>
    <contour>
      <point x="75" y="974" type="line"/>
      <point x="197" y="1004" type="line"/>
      <point x="644" y="380" type="line"/>
      <point x="644" y="1004" type="line"/>
      <point x="765" y="974" type="line"/>
      <point x="765" y="0" type="line"/>
      <point x="644" y="0" type="line"/>
      <point x="197" y="624" type="line"/>
      <point x="197" y="0" type="line"/>
      <point x="75" y="0" type="line"/>
    </contour>
  </outline>
</glyph>
<glyph name="uni0277" format="2">
  <advance width="1200"/>
  <unicode hex="0277"/>
  <outline>
    <contour>
      <point x="258" y="434" type="qcurve"/>
      <point x="258" y="353"/>
      <point x="276" y="222"/>
      <point x="312" y="131"/>
      <point x="365" y="82"/>
      <point x="401" y="82" type="qcurve"/>
      <point x="469" y="82"/>
      <point x="539" y="227"/>
      <point x="539" y="366" type="qcurve"/>
      <point x="539" y="611" type="line"/>
      <point x="661" y="611" type="line"/>
      <point x="661" y="366" type="line"/>
      <point x="661" y="227"/>
      <point x="731" y="82"/>
      <point x="800" y="82" type="qcurve"/>
      <point x="835" y="82"/>
      <point x="888" y="131"/>
      <point x="924" y="222"/>
      <point x="942" y="353"/>
      <point x="942" y="434" type="qcurve"/>
      <point x="942" y="528"/>
      <point x="899" y="694"/>
      <point x="814" y="819"/>
      <point x="686" y="892"/>
      <point x="599" y="892" type="qcurve"/>
      <point x="514" y="892"/>
      <point x="386" y="819"/>
      <point x="300" y="694"/>
      <point x="258" y="527"/>
    </contour>
    <contour>
      <point x="1161" y="427" type="qcurve"/>
      <point x="1161" y="311"/>
      <point x="1104" y="140"/>
      <point x="1010" y="26"/>
      <point x="887" y="-30"/>
      <point x="822" y="-30" type="qcurve"/>
      <point x="779" y="-30"/>
      <point x="710" y="-3"/>
      <point x="654" y="44"/>
      <point x="613" y="106"/>
      <point x="599" y="142" type="qcurve"/>
      <point x="586" y="106"/>
      <point x="545" y="44"/>
      <point x="490" y="-3"/>
      <point x="421" y="-30"/>
      <point x="378" y="-30" type="qcurve"/>
      <point x="313" y="-30"/>
      <point x="191" y="26"/>
      <point x="96" y="140"/>
      <point x="39" y="311"/>
      <point x="39" y="427" type="qcurve"/>
      <point x="39" y="558"/>
      <point x="123" y="771"/>
      <point x="272" y="922"/>
      <point x="478" y="1004"/>
      <point x="599" y="1004" type="qcurve"/>
      <point x="722" y="1004"/>
      <point x="927" y="922"/>
      <point x="1077" y="771"/>
      <point x="1161" y="558"/>
    </contour>
  </outline>
</glyph>
<glyph name="uni0278" format="2">
  <advance width="936"/>
  <unicode hex="0278"/>
  <outline>
    <contour>
      <point x="529" y="1494" type="line"/>
      <point x="529" y="1004" type="line"/>
      <point x="619" y="993"/>
      <point x="755" y="907"/>
      <point x="848" y="770"/>
      <point x="894" y="591"/>
      <point x="894" y="487" type="qcurve"/>
      <point x="894" y="383"/>
      <point x="848" y="204"/>
      <point x="755" y="67"/>
      <point x="619" y="-19"/>
      <point x="529" y="-30" type="qcurve"/>
      <point x="529" y="-460" type="line"/>
      <point x="452" y="-490" type="line"/>
      <point x="407" y="-490" type="line"/>
      <point x="407" y="-30" type="line"/>
      <point x="317" y="-19"/>
      <point x="181" y="67"/>
      <point x="89" y="204"/>
      <point x="42" y="383"/>
      <point x="42" y="487" type="qcurve"/>
      <point x="42" y="591"/>
      <point x="89" y="770"/>
      <point x="181" y="907"/>
      <point x="317" y="993"/>
      <point x="407" y="1004" type="qcurve"/>
      <point x="407" y="1464" type="line"/>
      <point x="484" y="1494" type="line"/>
    </contour>
    <contour>
      <point x="683" y="487" type="qcurve"/>
      <point x="683" y="561"/>
      <point x="665" y="697"/>
      <point x="627" y="806"/>
      <point x="569" y="880"/>
      <point x="529" y="892" type="qcurve"/>
      <point x="529" y="82" type="line"/>
      <point x="569" y="93"/>
      <point x="627" y="167"/>
      <point x="665" y="277"/>
      <point x="683" y="413"/>
    </contour>
    <contour>
      <point x="254" y="487" type="qcurve"/>
      <point x="254" y="413"/>
      <point x="272" y="277"/>
      <point x="309" y="167"/>
      <point x="368" y="93"/>
      <point x="407" y="82" type="qcurve"/>
      <point x="407" y="892" type="line"/>
      <point x="368" y="880"/>
      <point x="309" y="806"/>
      <point x="272" y="697"/>
      <point x="254" y="561"/>
    </contour>
  </outline>
</glyph>
<glyph name="uni0279" format="2">
  <advance width="552"/>
  <unicode hex="0279"/>
  <outline>
    <contour>
      <point x="266" y="0" type="line"/>
      <point x="266" y="148" type="line"/>
      <point x="254" y="115"/>
      <point x="222" y="51"/>
      <point x="182" y="1"/>
      <point x="134" y="-30"/>
      <point x="107" y="-30" type="qcurve"/>
      <point x="89" y="-30"/>
      <point x="57" y="-19"/>
      <point x="32" y="-1"/>
      <point x="12" y="20"/>
      <point x="5" y="30" type="qcurve"/>
      <point x="32" y="234" type="line"/>
      <point x="40" y="223"/>
      <point x="64" y="207"/>
      <point x="91" y="197"/>
      <point x="116" y="192"/>
      <point x="126" y="192" type="qcurve"/>
      <point x="164" y="192"/>
      <point x="217" y="229"/>
      <point x="251" y="285"/>
      <point x="266" y="351"/>
      <point x="266" y="379" type="qcurve"/>
      <point x="266" y="974" type="line"/>
      <point x="432" y="1004" type="line"/>
      <point x="477" y="1004" type="line"/>
      <point x="477" y="0" type="line"/>
    </contour>
  </outline>
</glyph>
<glyph name="uni027A" format="2">
  <advance width="552"/>
  <unicode hex="027A"/>
  <outline>
    <contour>
      <point x="477" y="1494" type="line"/>
      <point x="477" y="0" type="line"/>
      <point x="266" y="0" type="line"/>
      <point x="266" y="148" type="line"/>
      <point x="254" y="115"/>
      <point x="222" y="51"/>
      <point x="182" y="1"/>
      <point x="134" y="-30"/>
      <point x="107" y="-30" type="qcurve"/>
      <point x="89" y="-30"/>
      <point x="57" y="-19"/>
      <point x="32" y="-1"/>
      <point x="12" y="20"/>
      <point x="5" y="30" type="qcurve"/>
      <point x="32" y="234" type="line"/>
      <point x="40" y="223"/>
      <point x="64" y="207"/>
      <point x="91" y="197"/>
      <point x="116" y="192"/>
      <point x="126" y="192" type="qcurve"/>
      <point x="164" y="192"/>
      <point x="217" y="229"/>
      <point x="251" y="285"/>
      <point x="266" y="351"/>
      <point x="266" y="379" type="qcurve"/>
      <point x="266" y="1464" type="line"/>
      <point x="432" y="1494" type="line"/>
    </contour>
  </outline>
</glyph>
<glyph name="uni027B" format="2">
  <advance width="552"/>
  <unicode hex="027B"/>
  <outline>
    <contour>
      <point x="477" y="-191" type="line"/>
      <point x="477" y="-255"/>
      <point x="486" y="-319"/>
      <point x="509" y="-360"/>
      <point x="546" y="-378"/>
      <point x="578" y="-378" type="qcurve"/>
      <point x="563" y="-490" type="line"/>
      <point x="485" y="-490"/>
      <point x="378" y="-448"/>
      <point x="302" y="-358"/>
      <point x="266" y="-204"/>
      <point x="266" y="-76" type="qcurve"/>
      <point x="266" y="148" type="line"/>
      <point x="254" y="115"/>
      <point x="222" y="51"/>
      <point x="182" y="1"/>
      <point x="134" y="-30"/>
      <point x="107" y="-30" type="qcurve"/>
      <point x="89" y="-30"/>
      <point x="57" y="-19"/>
      <point x="32" y="-1"/>
      <point x="12" y="20"/>
      <point x="5" y="30" type="qcurve"/>
      <point x="32" y="234" type="line"/>
      <point x="40" y="223"/>
      <point x="64" y="207"/>
      <point x="91" y="197"/>
      <point x="116" y="192"/>
      <point x="126" y="192" type="qcurve"/>
      <point x="164" y="192"/>
      <point x="217" y="229"/>
      <point x="251" y="285"/>
      <point x="266" y="350"/>
      <point x="266" y="379" type="qcurve"/>
      <point x="266" y="974" type="line"/>
      <point x="432" y="1004" type="line"/>
      <point x="477" y="1004" type="line"/>
    </contour>
  </outline>
</glyph>
<glyph name="uni027C" format="2">
  <advance width="552"/>
  <unicode hex="027C"/>
  <outline>
    <contour>
      <point x="287" y="974" type="line"/>
      <point x="287" y="826" type="line"/>
      <point x="298" y="859"/>
      <point x="330" y="923"/>
      <point x="370" y="973"/>
      <point x="418" y="1004"/>
      <point x="445" y="1004" type="qcurve"/>
      <point x="464" y="1004"/>
      <point x="495" y="993"/>
      <point x="521" y="975"/>
      <point x="540" y="954"/>
      <point x="548" y="944" type="qcurve"/>
      <point x="521" y="740" type="line"/>
      <point x="512" y="751"/>
      <point x="488" y="767"/>
      <point x="461" y="777"/>
      <point x="436" y="782"/>
      <point x="426" y="782" type="qcurve"/>
      <point x="389" y="782"/>
      <point x="335" y="745"/>
      <point x="302" y="689"/>
      <point x="287" y="623"/>
      <point x="287" y="595" type="qcurve"/>
      <point x="287" y="-460" type="line"/>
      <point x="120" y="-490" type="line"/>
      <point x="75" y="-490" type="line"/>
      <point x="75" y="944" type="line"/>
      <point x="242" y="974" type="line"/>
    </contour>
  </outline>
</glyph>
<glyph name="uni027E" format="2">
  <advance width="432"/>
  <unicode hex="027E"/>
  <outline>
    <contour>
      <point x="110" y="0" type="line"/>
      <point x="110" y="590" type="line"/>
      <point x="110" y="716"/>
      <point x="146" y="876"/>
      <point x="221" y="969"/>
      <point x="340" y="1004"/>
      <point x="423" y="1004" type="qcurve"/>
      <point x="408" y="892" type="line"/>
      <point x="383" y="892"/>
      <point x="350" y="877"/>
      <point x="330" y="837"/>
      <point x="322" y="763"/>
      <point x="322" y="705" type="qcurve"/>
      <point x="322" y="0" type="line"/>
    </contour>
  </outline>
</glyph>
<glyph name="uni027F" format="2">
  <advance width="432"/>
  <unicode hex="027F"/>
  <outline>
    <contour>
      <point x="48" y="1004" type="line"/>
      <point x="126" y="1004"/>
      <point x="239" y="966"/>
      <point x="311" y="872"/>
      <point x="346" y="712"/>
      <point x="346" y="590" type="qcurve"/>
      <point x="346" y="0" type="line"/>
      <point x="134" y="0" type="line"/>
      <point x="134" y="705" type="line"/>
      <point x="134" y="763"/>
      <point x="127" y="836"/>
      <point x="105" y="877"/>
      <point x="65" y="892"/>
      <point x="33" y="892" type="qcurve"/>
    </contour>
  </outline>
</glyph>
<glyph name="uni0280" format="2">
  <advance width="768"/>
  <unicode hex="0280"/>
  <outline>
    <contour>
      <point x="75" y="974" type="line"/>
      <point x="414" y="974" type="line"/>
      <point x="485" y="974"/>
      <point x="599" y="928"/>
      <point x="677" y="847"/>
      <point x="719" y="736"/>
      <point x="719" y="672" type="qcurve"/>
      <point x="719" y="624"/>
      <point x="690" y="537"/>
      <point x="637" y="465"/>
      <point x="562" y="411"/>
      <point x="515" y="396" type="qcurve"/>
      <point x="515" y="386" type="line"/>
      <point x="719" y="0" type="line"/>
      <point x="507" y="-30" type="line"/>
      <point x="310" y="385" type="line"/>
      <point x="287" y="385" type="line"/>
      <point x="287" y="0" type="line"/>
      <point x="75" y="0" type="line"/>
    </contour>
    <contour>
      <point x="316" y="497" type="line"/>
      <point x="353" y="497"/>
      <point x="422" y="515"/>
      <point x="475" y="556"/>
      <point x="507" y="622"/>
      <point x="507" y="670" type="qcurve"/>
      <point x="507" y="712"/>
      <point x="483" y="783"/>
      <point x="436" y="834"/>
      <point x="363" y="862"/>
      <point x="315" y="862" type="qcurve"/>
      <point x="287" y="862" type="line"/>
      <point x="287" y="497" type="line"/>
    </contour>
  </outline>
</glyph>
<glyph name="uni0281" format="2">
  <advance width="768"/>
  <unicode hex="0281"/>
  <outline>
    <contour>
      <point x="75" y="974" type="line"/>
      <point x="242" y="1004" type="line"/>
      <point x="287" y="1004" type="line"/>
      <point x="287" y="589" type="line"/>
      <point x="310" y="589" type="line"/>
      <point x="507" y="1004" type="line"/>
      <point x="719" y="974" type="line"/>
      <point x="515" y="588" type="line"/>
      <point x="515" y="578" type="line"/>
      <point x="562" y="563"/>
      <point x="637" y="509"/>
      <point x="690" y="437"/>
      <point x="719" y="350"/>
      <point x="719" y="302" type="qcurve"/>
      <point x="719" y="238"/>
      <point x="677" y="127"/>
      <point x="599" y="46"/>
      <point x="485" y="0"/>
      <point x="414" y="0" type="qcurve"/>
      <point x="75" y="0" type="line"/>
    </contour>
    <contour>
      <point x="287" y="477" type="line"/>
      <point x="287" y="112" type="line"/>
      <point x="315" y="112" type="line"/>
      <point x="363" y="112"/>
      <point x="436" y="140"/>
      <point x="483" y="191"/>
      <point x="507" y="262"/>
      <point x="507" y="304" type="qcurve"/>
      <point x="507" y="352"/>
      <point x="475" y="418"/>
      <point x="422" y="459"/>
      <point x="353" y="477"/>
      <point x="316" y="477" type="qcurve"/>
    </contour>
  </outline>
</glyph>
<glyph name="uni0282" format="2">
  <advance width="648"/>
  <unicode hex="0282"/>
  <outline>
    <contour>
      <point x="317" y="1004" type="qcurve"/>
      <point x="368" y="1004"/>
      <point x="449" y="983"/>
      <point x="517" y="944"/>
      <point x="575" y="888"/>
      <point x="602" y="852" type="qcurve"/>
      <point x="515" y="740" type="line"/>
      <point x="483" y="819"/>
      <point x="397" y="892"/>
      <point x="350" y="892" type="qcurve"/>
      <point x="335" y="892"/>
      <point x="303" y="875"/>
      <point x="277" y="840"/>
      <point x="260" y="788"/>
      <point x="260" y="753" type="qcurve"/>
      <point x="260" y="723"/>
      <point x="281" y="673"/>
      <point x="313" y="634"/>
      <point x="351" y="606"/>
      <point x="369" y="597" type="qcurve"/>
      <point x="491" y="539"/>
      <point x="605" y="378"/>
      <point x="605" y="260" type="qcurve"/>
      <point x="605" y="192"/>
      <point x="559" y="85"/>
      <point x="480" y="10"/>
      <point x="376" y="-30"/>
      <point x="318" y="-30" type="qcurve"/>
      <point x="296" y="-30"/>
      <point x="256" y="-27"/>
      <point x="237" y="-23" type="qcurve"/>
      <point x="237" y="-191" type="line"/>
      <point x="237" y="-249"/>
      <point x="245" y="-322"/>
      <point x="266" y="-363"/>
      <point x="306" y="-378"/>
      <point x="338" y="-378" type="qcurve"/>
      <point x="323" y="-490" type="line"/>
      <point x="245" y="-490"/>
      <point x="133" y="-452"/>
      <point x="60" y="-358"/>
      <point x="26" y="-198"/>
      <point x="26" y="-76" type="qcurve"/>
      <point x="26" y="122" type="line"/>
      <point x="110" y="234" type="line"/>
      <point x="130" y="187"/>
      <point x="173" y="128"/>
      <point x="217" y="94"/>
      <point x="261" y="82"/>
      <point x="283" y="82" type="qcurve"/>
      <point x="306" y="82"/>
      <point x="354" y="101"/>
      <point x="392" y="140"/>
      <point x="416" y="201"/>
      <point x="416" y="242" type="qcurve"/>
      <point x="416" y="300"/>
      <point x="346" y="378"/>
      <point x="275" y="413" type="qcurve"/>
      <point x="238" y="431"/>
      <point x="167" y="488"/>
      <point x="112" y="568"/>
      <point x="78" y="671"/>
      <point x="78" y="735" type="qcurve"/>
      <point x="78" y="797"/>
      <point x="114" y="897"/>
      <point x="179" y="967"/>
      <point x="266" y="1004"/>
    </contour>
  </outline>
</glyph>
<glyph name="uni0283" format="2">
  <advance width="552"/>
  <unicode hex="0283"/>
  <outline>
    <contour>
      <point x="382" y="-76" type="line"/>
      <point x="382" y="-202"/>
      <point x="347" y="-362"/>
      <point x="272" y="-455"/>
      <point x="152" y="-490"/>
      <point x="69" y="-490" type="qcurve"/>
      <point x="84" y="-378" type="line"/>
      <point x="109" y="-378"/>
      <point x="143" y="-363"/>
      <point x="162" y="-323"/>
      <point x="170" y="-250"/>
      <point x="170" y="-191" type="qcurve"/>
      <point x="170" y="1050" type="line"/>
      <point x="170" y="1176"/>
      <point x="206" y="1336"/>
      <point x="281" y="1429"/>
      <point x="400" y="1464"/>
      <point x="483" y="1464" type="qcurve"/>
      <point x="468" y="1352" type="line"/>
      <point x="443" y="1352"/>
      <point x="410" y="1337"/>
      <point x="390" y="1297"/>
      <point x="382" y="1223"/>
      <point x="382" y="1165" type="qcurve"/>
    </contour>
  </outline>
</glyph>
<glyph name="uni0287" format="2">
  <advance width="552"/>
  <unicode hex="0287"/>
  <outline>
    <contour>
      <point x="62" y="1464" type="line"/>
      <point x="167" y="1464"/>
      <point x="298" y="1421"/>
      <point x="368" y="1331"/>
      <point x="392" y="1190"/>
      <point x="392" y="1092" type="qcurve"/>
      <point x="392" y="599" type="line"/>
      <point x="495" y="599" type="line"/>
      <point x="476" y="460" type="line"/>
      <point x="392" y="465" type="line"/>
      <point x="392" y="0" type="line"/>
      <point x="181" y="0" type="line"/>
      <point x="181" y="480" type="line"/>
      <point x="47" y="487" type="line"/>
      <point x="62" y="599" type="line"/>
      <point x="181" y="599" type="line"/>
      <point x="181" y="1165" type="line"/>
      <point x="181" y="1213"/>
      <point x="167" y="1283"/>
      <point x="136" y="1330"/>
      <point x="85" y="1352"/>
      <point x="47" y="1352" type="qcurve"/>
    </contour>
  </outline>
</glyph>
<glyph name="uni0288" format="2">
  <advance width="552"/>
  <unicode hex="0288"/>
  <outline>
    <contour>
      <point x="353" y="1322" type="line"/>
      <point x="353" y="1004" type="line"/>
      <point x="506" y="1004" type="line"/>
      <point x="487" y="865" type="line"/>
      <point x="353" y="873" type="line"/>
      <point x="353" y="-191" type="line"/>
      <point x="353" y="-239"/>
      <point x="366" y="-309"/>
      <point x="398" y="-356"/>
      <point x="449" y="-378"/>
      <point x="487" y="-378" type="qcurve"/>
      <point x="472" y="-490" type="line"/>
      <point x="366" y="-490"/>
      <point x="236" y="-447"/>
      <point x="165" y="-357"/>
      <point x="141" y="-216"/>
      <point x="141" y="-118" type="qcurve"/>
      <point x="141" y="885" type="line"/>
      <point x="39" y="892" type="line"/>
      <point x="54" y="1004" type="line"/>
      <point x="141" y="1004" type="line"/>
      <point x="141" y="1292" type="line"/>
      <point x="308" y="1322" type="line"/>
    </contour>
  </outline>
</glyph>
<glyph name="uni028A" format="2">
  <advance width="840"/>
  <unicode hex="028A"/>
  <outline>
    <contour>
      <point x="516" y="974" type="line"/>
      <point x="832" y="974" type="line"/>
      <point x="814" y="835" type="line"/>
      <point x="680" y="850" type="line"/>
      <point x="680" y="840" type="line"/>
      <point x="705" y="813"/>
      <point x="749" y="736"/>
      <point x="782" y="641"/>
      <point x="801" y="534"/>
      <point x="801" y="477" type="qcurve"/>
      <point x="801" y="366"/>
      <point x="742" y="179"/>
      <point x="639" y="45"/>
      <point x="500" y="-30"/>
      <point x="420" y="-30" type="qcurve"/>
      <point x="340" y="-30"/>
      <point x="201" y="45"/>
      <point x="98" y="179"/>
      <point x="39" y="365"/>
      <point x="39" y="477" type="qcurve"/>
      <point x="39" y="534"/>
      <point x="58" y="641"/>
      <point x="91" y="736"/>
      <point x="135" y="813"/>
      <point x="161" y="840" type="qcurve"/>
      <point x="161" y="850" type="line"/>
      <point x="8" y="835" type="line"/>
      <point x="26" y="974" type="line"/>
      <point x="324" y="974" type="line"/>
      <point x="339" y="863" type="line"/>
      <point x="311" y="830"/>
      <point x="276" y="743"/>
      <point x="257" y="641"/>
      <point x="251" y="527"/>
      <point x="251" y="467" type="qcurve"/>
      <point x="251" y="380"/>
      <point x="270" y="238"/>
      <point x="311" y="137"/>
      <point x="375" y="82"/>
      <point x="420" y="82" type="qcurve"/>
      <point x="465" y="82"/>
      <point x="530" y="138"/>
      <point x="570" y="239"/>
      <point x="590" y="381"/>
      <point x="590" y="467" type="qcurve"/>
      <point x="590" y="526"/>
      <point x="583" y="639"/>
      <point x="563" y="742"/>
      <point x="529" y="830"/>
      <point x="501" y="863" type="qcurve"/>
    </contour>
  </outline>
</glyph>
<glyph name="uni028B" format="2">
  <advance width="840"/>
  <unicode hex="028B"/>
  <outline>
    <contour>
      <point x="287" y="1004" type="line"/>
      <point x="287" y="269" type="line"/>
      <point x="287" y="185"/>
      <point x="338" y="82"/>
      <point x="394" y="82" type="qcurve"/>
      <point x="437" y="82"/>
      <point x="506" y="136"/>
      <point x="556" y="254"/>
      <point x="582" y="443"/>
      <point x="582" y="578" type="qcurve"/>
      <point x="582" y="646"/>
      <point x="575" y="761"/>
      <point x="551" y="845"/>
      <point x="500" y="892"/>
      <point x="456" y="892" type="qcurve"/>
      <point x="471" y="1004" type="line"/>
      <point x="551" y="1004"/>
      <point x="674" y="944"/>
      <point x="758" y="833"/>
      <point x="801" y="676"/>
      <point x="801" y="578" type="qcurve"/>
      <point x="801" y="480"/>
      <point x="767" y="313"/>
      <point x="706" y="178"/>
      <point x="626" y="75"/>
      <point x="533" y="5"/>
      <point x="434" y="-30"/>
      <point x="386" y="-30" type="qcurve"/>
      <point x="290" y="-30"/>
      <point x="169" y="13"/>
      <point x="101" y="103"/>
      <point x="75" y="244"/>
      <point x="75" y="342" type="qcurve"/>
      <point x="75" y="974" type="line"/>
      <point x="242" y="1004" type="line"/>
    </contour>
  </outline>
</glyph>
<glyph name="uni028C" format="2">
  <advance width="768"/>
  <unicode hex="028C"/>
  <outline>
    <contour>
      <point x="297" y="974" type="line"/>
      <point x="470" y="974" type="line"/>
      <point x="736" y="0" type="line"/>
      <point x="518" y="-30" type="line"/>
      <point x="328" y="666" type="line"/>
      <point x="138" y="-30" type="line"/>
      <point x="32" y="0" type="line"/>
    </contour>
  </outline>
</glyph>
<glyph name="uni028D" format="2">
  <advance width="1080"/>
  <unicode hex="028D"/>
  <outline>
    <contour>
      <point x="233" y="974" type="line"/>
      <point x="406" y="974" type="line"/>
      <point x="540" y="353" type="line"/>
      <point x="674" y="974" type="line"/>
      <point x="847" y="974" type="line"/>
      <point x="1057" y="0" type="line"/>
      <point x="839" y="-30" type="line"/>
      <point x="705" y="606" type="line"/>
      <point x="570" y="-30" type="line"/>
      <point x="398" y="-30" type="line"/>
      <point x="264" y="606" type="line"/>
      <point x="129" y="-30" type="line"/>
      <point x="23" y="0" type="line"/>
    </contour>
  </outline>
</glyph>
<glyph name="uni028E" format="2">
  <advance width="720"/>
  <unicode hex="028E"/>
  <outline>
    <contour>
      <point x="473" y="-30" type="line"/>
      <point x="287" y="589" type="line"/>
      <point x="137" y="-30" type="line"/>
      <point x="31" y="0" type="line"/>
      <point x="275" y="1004" type="line"/>
      <point x="308" y="1141"/>
      <point x="382" y="1318"/>
      <point x="471" y="1423"/>
      <point x="580" y="1464"/>
      <point x="662" y="1464" type="qcurve"/>
      <point x="647" y="1352" type="line"/>
      <point x="608" y="1352"/>
      <point x="525" y="1314"/>
      <point x="461" y="1226"/>
      <point x="408" y="1083"/>
      <point x="382" y="977" type="qcurve"/>
      <point x="692" y="0" type="line"/>
    </contour>
  </outline>
</glyph>
<glyph name="uni0290" format="2">
  <advance width="720"/>
  <unicode hex="0290"/>
  <outline>
    <contour>
      <point x="23" y="60" type="line"/>
      <point x="443" y="862" type="line"/>
      <point x="62" y="835" type="line"/>
      <point x="80" y="974" type="line"/>
      <point x="698" y="974" type="line"/>
      <point x="698" y="914" type="line"/>
      <point x="270" y="112" type="line"/>
      <point x="697" y="141" type="line"/>
      <point x="679" y="0" type="line"/>
      <point x="679" y="-221" type="line"/>
      <point x="679" y="-269"/>
      <point x="692" y="-330"/>
      <point x="719" y="-365"/>
      <point x="756" y="-378"/>
      <point x="780" y="-378" type="qcurve"/>
      <point x="765" y="-490" type="line"/>
      <point x="671" y="-490"/>
      <point x="554" y="-429"/>
      <point x="489" y="-320"/>
      <point x="467" y="-168"/>
      <point x="467" y="-78" type="qcurve"/>
      <point x="467" y="0" type="line"/>
      <point x="23" y="0" type="line"/>
    </contour>
  </outline>
</glyph>
<glyph name="uni0293" format="2">
  <advance width="768"/>
  <unicode hex="0293"/>
  <outline>
    <contour>
      <point x="776" y="-460" type="line"/>
      <point x="671" y="-491" type="line"/>
      <point x="582" y="-365" type="line"/>
      <point x="560" y="-388"/>
      <point x="503" y="-424"/>
      <point x="440" y="-448"/>
      <point x="374" y="-460"/>
      <point x="342" y="-460" type="qcurve"/>
      <point x="277" y="-460"/>
      <point x="174" y="-417"/>
      <point x="103" y="-340"/>
      <point x="65" y="-233"/>
      <point x="65" y="-168" type="qcurve"/>
      <point x="65" y="-122"/>
      <point x="92" y="-33"/>
      <point x="143" y="38"/>
      <point x="215" y="82"/>
      <point x="260" y="82" type="qcurve"/>
      <point x="292" y="82"/>
      <point x="348" y="66"/>
      <point x="404" y="30"/>
      <point x="463" y="-29"/>
      <point x="497" y="-71" type="qcurve"/>
      <point x="500" y="-46"/>
      <point x="503" y="8"/>
      <point x="503" y="37" type="qcurve"/>
      <point x="503" y="131"/>
      <point x="474" y="278"/>
      <point x="425" y="379"/>
      <point x="359" y="432"/>
      <point x="321" y="432" type="qcurve"/>
      <point x="284" y="432"/>
      <point x="232" y="421"/>
      <point x="207" y="407" type="qcurve"/>
      <point x="207" y="468" type="line"/>
      <point x="413" y="862" type="line"/>
      <point x="65" y="835" type="line"/>
      <point x="83" y="974" type="line"/>
      <point x="668" y="974" type="line"/>
      <point x="668" y="914" type="line"/>
      <point x="458" y="524" type="line"/>
      <point x="519" y="501"/>
      <point x="617" y="413"/>
      <point x="685" y="288"/>
      <point x="722" y="130"/>
      <point x="722" y="37" type="qcurve"/>
      <point x="722" y="-58"/>
      <point x="684" y="-217"/>
      <point x="648" y="-280" type="qcurve"/>
    </contour>
    <contour>
      <point x="466" y="-200" type="qcurve"/>
      <point x="435" y="-157"/>
      <point x="383" y="-93"/>
      <point x="335" y="-51"/>
      <point x="285" y="-30"/>
      <point x="258" y="-30" type="qcurve"/>
      <point x="234" y="-30"/>
      <point x="194" y="-52"/>
      <point x="165" y="-91"/>
      <point x="149" y="-142"/>
      <point x="149" y="-172" type="qcurve"/>
      <point x="149" y="-205"/>
      <point x="171" y="-268"/>
      <point x="209" y="-317"/>
      <point x="258" y="-348"/>
      <point x="286" y="-348" type="qcurve"/>
      <point x="312" y="-348"/>
      <point x="360" y="-336"/>
      <point x="405" y="-303"/>
      <point x="446" y="-245"/>
    </contour>
  </outline>
</glyph>
<glyph name="uni0294" format="2">
  <advance width="768"/>
  <unicode hex="0294"/>
  <outline>
    <contour>
      <point x="230" y="690" type="line"/>
      <point x="313" y="690" type="line"/>
      <point x="349" y="690"/>
      <point x="412" y="734"/>
      <point x="459" y="814"/>
      <point x="487" y="927"/>
      <point x="487" y="997" type="qcurve"/>
      <point x="487" y="1080"/>
      <point x="458" y="1212"/>
      <point x="409" y="1303"/>
      <point x="343" y="1352"/>
      <point x="305" y="1352" type="qcurve"/>
      <point x="272" y="1352"/>
      <point x="220" y="1325"/>
      <point x="179" y="1281"/>
      <point x="147" y="1227"/>
      <point x="134" y="1200" type="qcurve"/>
      <point x="50" y="1312" type="line"/>
      <point x="71" y="1343"/>
      <point x="122" y="1399"/>
      <point x="189" y="1440"/>
      <point x="274" y="1464"/>
      <point x="328" y="1464" type="qcurve"/>
      <point x="414" y="1464"/>
      <point x="554" y="1394"/>
      <point x="653" y="1269"/>
      <point x="706" y="1098"/>
      <point x="706" y="997" type="qcurve"/>
      <point x="706" y="914"/>
      <point x="669" y="768"/>
      <point x="601" y="651"/>
      <point x="503" y="568"/>
      <point x="442" y="548" type="qcurve"/>
      <point x="442" y="0" type="line"/>
      <point x="230" y="0" type="line"/>
    </contour>
  </outline>
</glyph>
<glyph name="uni0295" format="2">
  <advance width="768"/>
  <unicode hex="0295"/>
  <outline>
    <contour>
      <point x="525" y="0" type="line"/>
      <point x="314" y="0" type="line"/>
      <point x="314" y="548" type="line"/>
      <point x="252" y="568"/>
      <point x="155" y="651"/>
      <point x="86" y="768"/>
      <point x="50" y="914"/>
      <point x="50" y="997" type="qcurve"/>
      <point x="50" y="1098"/>
      <point x="103" y="1269"/>
      <point x="202" y="1394"/>
      <point x="341" y="1464"/>
      <point x="428" y="1464" type="qcurve"/>
      <point x="482" y="1464"/>
      <point x="566" y="1440"/>
      <point x="633" y="1399"/>
      <point x="685" y="1343"/>
      <point x="706" y="1312" type="qcurve"/>
      <point x="621" y="1200" type="line"/>
      <point x="608" y="1227"/>
      <point x="577" y="1281"/>
      <point x="536" y="1325"/>
      <point x="483" y="1352"/>
      <point x="450" y="1352" type="qcurve"/>
      <point x="413" y="1352"/>
      <point x="347" y="1303"/>
      <point x="297" y="1212"/>
      <point x="269" y="1080"/>
      <point x="269" y="997" type="qcurve"/>
      <point x="269" y="927"/>
      <point x="296" y="814"/>
      <point x="343" y="734"/>
      <point x="407" y="690"/>
      <point x="443" y="690" type="qcurve"/>
      <point x="525" y="690" type="line"/>
    </contour>
  </outline>
</glyph>
<glyph name="uni0297" format="2">
  <advance width="768"/>
  <unicode hex="0297"/>
  <outline>
    <contour>
      <point x="621" y="1200" type="line"/>
      <point x="608" y="1227"/>
      <point x="577" y="1281"/>
      <point x="536" y="1325"/>
      <point x="483" y="1352"/>
      <point x="450" y="1352" type="qcurve"/>
      <point x="413" y="1352"/>
      <point x="347" y="1297"/>
      <point x="297" y="1194"/>
      <point x="269" y="1047"/>
      <point x="269" y="954" type="qcurve"/>
      <point x="269" y="487" type="line"/>
      <point x="269" y="393"/>
      <point x="297" y="243"/>
      <point x="347" y="138"/>
      <point x="413" y="82"/>
      <point x="450" y="82" type="qcurve"/>
      <point x="486" y="82"/>
      <point x="539" y="109"/>
      <point x="578" y="152"/>
      <point x="608" y="206"/>
      <point x="621" y="234" type="qcurve"/>
      <point x="706" y="122" type="line"/>
      <point x="684" y="90"/>
      <point x="632" y="34"/>
      <point x="566" y="-7"/>
      <point x="482" y="-30"/>
      <point x="428" y="-30" type="qcurve"/>
      <point x="341" y="-30"/>
      <point x="202" y="47"/>
      <point x="103" y="185"/>
      <point x="50" y="374"/>
      <point x="50" y="487" type="qcurve"/>
      <point x="50" y="952" type="line"/>
      <point x="50" y="1063"/>
      <point x="104" y="1251"/>
      <point x="203" y="1388"/>
      <point x="342" y="1464"/>
      <point x="428" y="1464" type="qcurve"/>
      <point x="482" y="1464"/>
      <point x="566" y="1440"/>
      <point x="633" y="1399"/>
      <point x="685" y="1343"/>
      <point x="706" y="1312" type="qcurve"/>
    </contour>
  </outline>
</glyph>
<glyph name="uni0298" format="2">
  <advance width="1080"/>
  <unicode hex="0298"/>
  <outline>
    <contour>
      <point x="261" y="717" type="qcurve"/>
      <point x="261" y="571"/>
      <point x="299" y="337"/>
      <point x="371" y="171"/>
      <point x="474" y="82"/>
      <point x="540" y="82" type="qcurve"/>
      <point x="606" y="82"/>
      <point x="710" y="171"/>
      <point x="782" y="337"/>
      <point x="819" y="571"/>
      <point x="819" y="717" type="qcurve"/>
      <point x="819" y="862"/>
      <point x="782" y="1097"/>
      <point x="710" y="1263"/>
      <point x="606" y="1352"/>
      <point x="540" y="1352" type="qcurve"/>
      <point x="474" y="1352"/>
      <point x="371" y="1263"/>
      <point x="299" y="1097"/>
      <point x="261" y="862"/>
    </contour>
    <contour>
      <point x="42" y="717" type="qcurve"/>
      <point x="42" y="889"/>
      <point x="120" y="1166"/>
      <point x="255" y="1360"/>
      <point x="437" y="1464"/>
      <point x="540" y="1464" type="qcurve"/>
      <point x="644" y="1464"/>
      <point x="825" y="1360"/>
      <point x="960" y="1166"/>
      <point x="1038" y="889"/>
      <point x="1038" y="717" type="qcurve"/>
      <point x="1038" y="544"/>
      <point x="960" y="268"/>
      <point x="825" y="74"/>
      <point x="644" y="-30"/>
      <point x="540" y="-30" type="qcurve"/>
      <point x="436" y="-30"/>
      <point x="254" y="74"/>
      <point x="119" y="268"/>
      <point x="42" y="544"/>
    </contour>
    <contour>
      <point x="431" y="717" type="qcurve"/>
      <point x="431" y="747"/>
      <point x="448" y="801"/>
      <point x="477" y="840"/>
      <point x="518" y="863"/>
      <point x="540" y="863" type="qcurve"/>
      <point x="563" y="863"/>
      <point x="603" y="840"/>
      <point x="632" y="801"/>
      <point x="650" y="747"/>
      <point x="650" y="717" type="qcurve"/>
      <point x="650" y="687"/>
      <point x="632" y="633"/>
      <point x="603" y="594"/>
      <point x="563" y="571"/>
      <point x="540" y="571" type="qcurve"/>
      <point x="518" y="571"/>
      <point x="477" y="594"/>
      <point x="448" y="633"/>
      <point x="431" y="687"/>
    </contour>
  </outline>
</glyph>
<glyph name="uni029B" format="2">
  <advance width="840"/>
  <unicode hex="029B"/>
  <outline>
    <contour>
      <point x="698" y="740" type="line"/>
      <point x="683" y="767"/>
      <point x="644" y="821"/>
      <point x="593" y="865"/>
      <point x="531" y="892"/>
      <point x="492" y="892" type="qcurve"/>
      <point x="440" y="892"/>
      <point x="358" y="839"/>
      <point x="300" y="736"/>
      <point x="269" y="585"/>
      <point x="269" y="487" type="qcurve"/>
      <point x="269" y="397"/>
      <point x="299" y="247"/>
      <point x="353" y="141"/>
      <point x="427" y="82"/>
      <point x="470" y="82" type="qcurve"/>
      <point x="490" y="82"/>
      <point x="521" y="89"/>
      <point x="544" y="101"/>
      <point x="563" y="117"/>
      <point x="572" y="126" type="qcurve"/>
      <point x="572" y="376" type="line"/>
      <point x="427" y="376" type="line"/>
      <point x="442" y="488" type="line"/>
      <point x="783" y="488" type="line"/>
      <point x="783" y="142" type="line"/>
      <point x="752" y="110"/>
      <point x="686" y="48"/>
      <point x="605" y="0"/>
      <point x="506" y="-30"/>
      <point x="443" y="-30" type="qcurve"/>
      <point x="350" y="-30"/>
      <point x="205" y="47"/>
      <point x="104" y="185"/>
      <point x="50" y="374"/>
      <point x="50" y="487" type="qcurve"/>
      <point x="50" y="603"/>
      <point x="110" y="794"/>
      <point x="221" y="930"/>
      <point x="380" y="1004"/>
      <point x="477" y="1004" type="qcurve"/>
      <point x="506" y="1004"/>
      <point x="557" y="997"/>
      <point x="581" y="991" type="qcurve"/>
      <point x="603" y="1109"/>
      <point x="754" y="1234"/>
      <point x="884" y="1234" type="qcurve"/>
      <point x="869" y="1122" type="line"/>
      <point x="845" y="1122"/>
      <point x="811" y="1107"/>
      <point x="791" y="1067"/>
      <point x="783" y="993"/>
      <point x="783" y="935" type="qcurve"/>
      <point x="783" y="852" type="line"/>
    </contour>
  </outline>
</glyph>
<glyph name="uni029C" format="2">
  <advance width="840"/>
  <unicode hex="029C"/>
  <outline>
    <contour>
      <point x="288" y="1004" type="line"/>
      <point x="288" y="599" type="line"/>
      <point x="552" y="599" type="line"/>
      <point x="552" y="974" type="line"/>
      <point x="719" y="1004" type="line"/>
      <point x="764" y="1004" type="line"/>
      <point x="764" y="0" type="line"/>
      <point x="552" y="0" type="line"/>
      <point x="552" y="487" type="line"/>
      <point x="288" y="487" type="line"/>
      <point x="288" y="0" type="line"/>
      <point x="77" y="0" type="line"/>
      <point x="77" y="974" type="line"/>
      <point x="243" y="1004" type="line"/>
    </contour>
  </outline>
</glyph>
<glyph name="uni029D" format="2">
  <advance width="552"/>
  <unicode hex="029D"/>
  <outline>
    <contour>
      <point x="552" y="0" type="line"/>
      <point x="533" y="-139" type="line"/>
      <point x="432" y="-133" type="line"/>
      <point x="432" y="-217"/>
      <point x="389" y="-349"/>
      <point x="312" y="-441"/>
      <point x="204" y="-490"/>
      <point x="140" y="-490" type="qcurve"/>
      <point x="98" y="-490"/>
      <point x="33" y="-455"/>
      <point x="-12" y="-393"/>
      <point x="-35" y="-306"/>
      <point x="-35" y="-255" type="qcurve"/>
      <point x="-35" y="-203"/>
      <point x="-8" y="-110"/>
      <point x="50" y="-40"/>
      <point x="136" y="0"/>
      <point x="194" y="0" type="qcurve"/>
      <point x="221" y="0" type="line"/>
      <point x="221" y="974" type="line"/>
      <point x="387" y="1004" type="line"/>
      <point x="432" y="1004" type="line"/>
      <point x="432" y="0" type="line"/>
    </contour>
    <contour>
      <point x="217" y="1318" type="qcurve"/>
      <point x="217" y="1348"/>
      <point x="234" y="1402"/>
      <point x="263" y="1441"/>
      <point x="304" y="1464"/>
      <point x="326" y="1464" type="qcurve"/>
      <point x="349" y="1464"/>
      <point x="389" y="1441"/>
      <point x="419" y="1402"/>
      <point x="436" y="1348"/>
      <point x="436" y="1318" type="qcurve"/>
      <point x="436" y="1288"/>
      <point x="419" y="1234"/>
      <point x="389" y="1195"/>
      <point x="349" y="1172"/>
      <point x="326" y="1172" type="qcurve"/>
      <point x="304" y="1172"/>
      <point x="263" y="1195"/>
      <point x="234" y="1234"/>
      <point x="217" y="1288"/>
    </contour>
    <contour>
      <point x="221" y="-122" type="line"/>
      <point x="166" y="-118" type="line"/>
      <point x="144" y="-118"/>
      <point x="103" y="-133"/>
      <point x="69" y="-166"/>
      <point x="49" y="-218"/>
      <point x="49" y="-255" type="qcurve"/>
      <point x="49" y="-286"/>
      <point x="62" y="-332"/>
      <point x="83" y="-363"/>
      <point x="110" y="-378"/>
      <point x="125" y="-378" type="qcurve"/>
      <point x="141" y="-378"/>
      <point x="176" y="-361"/>
      <point x="203" y="-319"/>
      <point x="221" y="-249"/>
      <point x="221" y="-195" type="qcurve"/>
    </contour>
  </outline>
</glyph>
<glyph name="uni029E" format="2">
  <advance width="768"/>
  <unicode hex="029E"/>
  <outline>
    <contour>
      <point x="0" y="974" type="line"/>
      <point x="218" y="1004" type="line"/>
      <point x="441" y="525" type="line"/>
      <point x="482" y="578" type="line"/>
      <point x="482" y="974" type="line"/>
      <point x="648" y="1004" type="line"/>
      <point x="693" y="1004" type="line"/>
      <point x="693" y="-460" type="line"/>
      <point x="527" y="-490" type="line"/>
      <point x="482" y="-490" type="line"/>
      <point x="482" y="403" type="line"/>
      <point x="157" y="-30" type="line"/>
      <point x="47" y="1" type="line"/>
      <point x="299" y="336" type="line"/>
    </contour>
  </outline>
</glyph>
<glyph name="uni02A0" format="2">
  <advance width="885"/>
  <unicode hex="02A0"/>
  <outline>
    <contour>
      <point x="393" y="1004" type="qcurve"/>
      <point x="416" y="1004"/>
      <point x="462" y="989"/>
      <point x="506" y="964"/>
      <point x="542" y="932"/>
      <point x="554" y="915" type="qcurve"/>
      <point x="560" y="1011"/>
      <point x="603" y="1134"/>
      <point x="680" y="1206"/>
      <point x="791" y="1234"/>
      <point x="866" y="1234" type="qcurve"/>
      <point x="851" y="1122" type="line"/>
      <point x="827" y="1122"/>
      <point x="793" y="1107"/>
      <point x="773" y="1067"/>
      <point x="765" y="993"/>
      <point x="765" y="935" type="qcurve"/>
      <point x="765" y="-460" type="line"/>
      <point x="599" y="-490" type="line"/>
      <point x="554" y="-490" type="line"/>
      <point x="554" y="51" type="line"/>
      <point x="522" y="13"/>
      <point x="437" y="-30"/>
      <point x="392" y="-30" type="qcurve"/>
      <point x="320" y="-30"/>
      <point x="192" y="41"/>
      <point x="97" y="174"/>
      <point x="42" y="366"/>
      <point x="42" y="487" type="qcurve"/>
      <point x="42" y="602"/>
      <point x="95" y="792"/>
      <point x="190" y="929"/>
      <point x="318" y="1004"/>
    </contour>
    <contour>
      <point x="554" y="802" type="line"/>
      <point x="544" y="817"/>
      <point x="519" y="849"/>
      <point x="488" y="875"/>
      <point x="452" y="892"/>
      <point x="429" y="892" type="qcurve"/>
      <point x="392" y="892"/>
      <point x="330" y="834"/>
      <point x="286" y="728"/>
      <point x="261" y="578"/>
      <point x="261" y="487" type="qcurve"/>
      <point x="261" y="386"/>
      <point x="290" y="234"/>
      <point x="338" y="133"/>
      <point x="398" y="82"/>
      <point x="429" y="82" type="qcurve"/>
      <point x="452" y="82"/>
      <point x="489" y="96"/>
      <point x="520" y="119"/>
      <point x="544" y="148"/>
      <point x="554" y="163" type="qcurve"/>
    </contour>
  </outline>
</glyph>
